<svg xmlns="http://www.w3.org/2000/svg" width="344.64" height="173.579" viewBox="0 0 91.186 45.926" stroke-linejoin="round" xmlns:v="https://vecta.io/nano"><path d="M45.504.132c-.004.002-3.999 2.122-3.83 5.507-1.609 1.185-3.098-.409-4.706.692s-2.441 5.722 2.046 5.214c-.381 3.937-5.695 3.037-5.697-1.454 0-1.046-.836.512-.836.512s-1.178-.762-1.474.508c-1.097-1.196-3.404-1.397-4.463.677 1.281.527 1.031 1.354 1.031 1.354s-3.201.102-4.099 1.629c-.221-.992-1.317-.239-1.317-.239s.03-1.706-.868-.868c-.475-.241.287-2.065-.689-1.856-1.211.258.09 2.994.09 2.994s-1.137.988-.658 2.664c-1.532-.102-2.786.705-3.832 1.946-3.367 3.996-4.4 1.048-5.537-2.305-.833-2.456 2.275 24.814 9.698 22.719.161 3.112.643 3.021 3.54.942-.893 2.688-.783 5.108.441 5.024 2.185-.15.088-3.087.988-6.025 0 0 1.365 5.137 3.472 4.64.997-.236.599-2.245.599-2.245s2.784 3.622 7.363 2.544a.96.96 0 0 0 .479 1.018s1.189-.237 2.215-1.377c.524-.582 1.168-1.467 2.724-.928s3.322.599 3.322.599h.174s1.766-.06 3.322-.599 2.2.346 2.724.928c1.026 1.14 2.215 1.377 2.215 1.377s.598-.297.479-1.018c4.58 1.078 7.363-2.544 7.363-2.544s-.398 2.009.599 2.245c2.107.498 3.472-4.64 3.472-4.64.899 2.938-1.198 5.875.988 6.025 1.224.084 1.335-2.336.441-5.024 2.897 2.079 3.379 2.17 3.54-.942 7.423 2.095 10.531-25.175 9.698-22.719-1.137 3.352-2.17 6.301-5.537 2.305-1.046-1.241-2.3-2.047-3.832-1.946.479-1.676-.658-2.664-.658-2.664s1.301-2.735.09-2.994c-.976-.208-.214 1.615-.689 1.856-.898-.838-.868.868-.868.868s-1.097-.753-1.317.239c-.898-1.527-4.099-1.629-4.099-1.629s-.25-.827 1.031-1.354c-1.058-2.074-3.366-1.873-4.463-.677-.296-1.27-1.474-.508-1.474-.508s-.836-1.558-.836-.512c-.002 4.49-5.316 5.391-5.697 1.454 4.487.508 3.655-4.114 2.046-5.214s-3.098.493-4.706-.692c.169-3.385-3.826-5.505-3.828-5.506zm0 2.485h.178s2.751 2.476 1.926 3.45-1.926-.169-1.926-.169h-.178s-1.101 1.143-1.926.169 1.926-3.45 1.926-3.45zm-2.857 4.91s.551.142.652.859c.159 1.137.886 1.548 1.118 1.652-.305-.13-1.531-.718-2.532-2.151.315.019.762-.36.762-.36zm5.893 0s.447.379.762.36c-1 1.433-2.226 2.021-2.532 2.151.232-.104.959-.515 1.118-1.652.1-.717.652-.859.652-.859zm-9.53.899c.78 0 1.987.482 2.706.964 2.042 1.37 2.611 3.137 2.477 3.027 0 0-1.312-1.926-3.619-2.794-1.023-.385-2.265-.064-2.307-.572-.038-.451.276-.625.744-.625zm13.168 0c.468 0 .782.173.744.625-.042.508-1.285.187-2.307.572-2.307.868-3.619 2.794-3.619 2.794-.134.111.435-1.657 2.477-3.027.719-.482 1.926-.964 2.706-.964zm-11.374 3.225a.12.12 0 0 1 .023.003c1.818.432 2.265 1.778 2.265 1.778-1.609-.931-2.329-.444-2.329-.444s-.273-1.351.04-1.337zm9.58 0c.313-.014.04 1.337.04 1.337s-.72-.487-2.329.444c0 0 .447-1.346 2.265-1.778a.12.12 0 0 1 .023-.003zm-4.798 1.123c.325 1.265 1.092 1.418 1.092 1.418s-.931 1.439-1.121 2.857c-.212-1.609-1.122-2.878-1.122-2.878s.804-.164 1.151-1.397zm-4.738 1.293s3.281.508 3.704 4.593c-1.058-2.752-3.704-4.593-3.704-4.593zm9.491 0s-2.646 1.841-3.704 4.593c.423-4.085 3.704-4.593 3.704-4.593zm-28.75 1.438c.281 0 .509.261.509.584s-.228.584-.509.583-.509-.261-.509-.583.228-.584.509-.584zm48.008 0c.281 0 .509.261.509.584s-.228.584-.509.583-.509-.261-.509-.583.228-.584.509-.584zm-46.062.539s.538.779.419 1.751c-.174 1.414.688 2.23.688 2.23s-1.093.404-1.542.763c-.464-2.948.434-4.744.434-4.744zm44.117 0s.898 1.796.434 4.744c-.449-.359-1.542-.763-1.542-.763s.862-.816.688-2.23c-.119-.972.419-1.751.419-1.751zm-47.499 1.991c1.676.344 2.664 2.933 2.664 2.933-.808.569-1.586 1.302-1.586 1.302s.538-1.556-1.078-4.235zm50.882 0c-1.616 2.679-1.078 4.235-1.078 4.235s-.778-.734-1.586-1.302c0 0 .988-2.589 2.664-2.933zm-40.405 2.709l-.03.853-.988.089.03-.913zm29.928 0l.988.03.03.913-.988-.089zm-28.686.045l1.062.134-.03.853-1.092-.134zm27.444 0l.06.853-1.092.134-.03-.853zm-25.453.329l.598.284-.045.823-.613-.284zm23.463 0l.06.823-.613.284-.045-.823zm-25.823 3.313c1.115-.009 2.177.24 3.123.876 4.656 3.133 5.08 8.297 5.08 8.297s-7.619.381-11.853.085-6.519-1.905-7.959-5.122c2.058-.101 7.234-4.1 11.608-4.135zm28.184 0c4.374.035 9.55 4.034 11.608 4.135-1.439 3.217-3.726 4.826-7.959 5.122s-11.853-.085-11.853-.085.423-5.164 5.08-8.297c.946-.636 2.008-.885 3.123-.876zm-36.744 9.173c.593 1.101 1.693 1.566 1.693 1.566s-.931-.254-1.058.931c-.137 1.282.72 1.228.72 1.228s-.551 2.54-2.794 1.693c1.736-2.074 1.439-5.419 1.439-5.419zm45.304 0s-.296 3.345 1.439 5.419c-2.244.847-2.794-1.693-2.794-1.693s.857.054.72-1.228c-.127-1.185-1.058-.931-1.058-.931s1.101-.466 1.693-1.566zm-41.198 2.032s1.439.297 3.048.297c-2.244 2.879-1.439 5.122-1.439 5.122s-2.667-.042-1.947-2.667c0 0 1.104.102 1.297-.879.275-1.402-.958-1.873-.958-1.873zm37.092 0s-1.233.471-.958 1.873c.192.98 1.297.879 1.297.879.72 2.625-1.947 2.667-1.947 2.667s.804-2.244-1.439-5.122c1.609 0 3.048-.297 3.048-.297z" fill="#999" stroke="#666" stroke-width=".265"/><path d="M18.843 18.138c.046-.001.092 0 .138.005.176.016.352.071.523.16.165.086.326.204.477.35a2.87 2.87 0 0 1 .413.51 3.89 3.89 0 0 1 .541 1.409c.099.545.101 1.152-.031 1.792-.068.331-.182.628-.332.893s-.339.506-.549.711c-.435.425-.968.719-1.496.915l-.056.021c-.506.182-1.056.298-1.6.347-.262.023-.519.031-.762.023a4.54 4.54 0 0 1-.654-.065c-.761-.138-1.462-.465-2.079-.98-.631-.526-1.137-1.219-1.527-2.017a7.8 7.8 0 0 1-.756-2.722c-.041-.475-.024-.795-.01-.926.027-.263.072-.267.084-.266s.042.018.058.268l.075.901c.071.555.25 1.555.794 2.622.391.764.886 1.41 1.485 1.891.247.198.507.364.777.498l.136-.074a1.1 1.1 0 0 0 .154-.112.7.7 0 0 0 .127-.148c.037-.058.066-.125.084-.203a.84.84 0 0 0 .017-.261 1.39 1.39 0 0 0-.098-.381c-.052-.136-.112-.249-.166-.339l-.094-.137-.035-.044c-.031-.036-.055-.055-.07-.064s-.021-.013-.027-.013c-.391.248-.785-.311-.414-.581.011-.008.046-.053.185-.106.051-.019.117-.038.196-.044s.164-.001.255.025a.74.74 0 0 1 .263.14c.089.073.158.162.21.252a1.09 1.09 0 0 1 .052.102 1.3 1.3 0 0 1 .08.25c.031.144.045.298.053.463a2.47 2.47 0 0 1-.02.476l-.003.021a1.38 1.38 0 0 1-.095.342c-.044.102-.1.189-.164.263a.89.89 0 0 1-.201.171.83.83 0 0 1-.217.096 3.9 3.9 0 0 0 .954.28l.28.033.089-.035c.104-.036.32-.1.522-.204.091-.047.185-.104.273-.174s.164-.146.231-.239.121-.196.159-.316.058-.261.056-.415-.022-.289-.055-.392c-.03-.093-.07-.155-.109-.193s-.073-.052-.106-.059-.071-.008-.111-.003-.086.016-.129.031-.088.036-.123.056c-.102.06-.105.093-.09.099-.563.257-.954-.583-.394-.847.029.012.069-.005.279-.028.069-.008.157-.014.253-.013a1.34 1.34 0 0 1 .3.037.97.97 0 0 1 .314.138c.103.07.19.162.258.276s.114.251.138.396a2.2 2.2 0 0 1 .019.514 1.86 1.86 0 0 1-.114.54 1.56 1.56 0 0 1-.236.417 1.64 1.64 0 0 1-.313.3c-.053.039-.106.074-.16.105l.087-.008c.513-.054 1.027-.171 1.494-.348l.052-.02c.487-.191.962-.461 1.342-.836a2.76 2.76 0 0 0 .473-.615c.128-.228.226-.483.286-.77a4.31 4.31 0 0 0 .033-1.628c-.088-.495-.262-.922-.476-1.256-.109-.171-.228-.315-.351-.434s-.254-.213-.378-.276-.251-.1-.364-.108-.226.012-.325.056a.82.82 0 0 0-.275.205c-.082.092-.149.201-.201.317-.058.13-.1.267-.128.398-.033.156-.048.306-.052.433-.009.388.099.626.157.763l.056.15c.031.117.007.157.006.153.054.769-1.097.858-1.161.089 0-.004-.035-.069-.01-.215.009-.055.029-.115.054-.184.093-.252.143-.34.276-.834l.005-.019.148-.486c.053-.149.121-.313.21-.472.079-.142.179-.287.307-.413.118-.117.262-.221.436-.292a1.12 1.12 0 0 1 .396-.083zm12.987.926c2.197-.009 4.559.596 6.726 2.367 5.334 4.36 4.826 13.758 4.826 13.758-2.689.565-4.716-.721-8.872.369-2.242.588-3.4 1.755-3.937 3.605-.47 1.621.212 3.123 2.639 4.927-2.498-.99-4.411-2.063-4.488-4.47-.05-1.555.596-2.901 1.367-3.723-.964-.102-4.341-.101-6.52-1.555a10.54 10.54 0 0 1-.596-.429 14.36 14.36 0 0 1 .002 1.239c-.032.716-.129 1.54-.377 2.262a3.69 3.69 0 0 1-.482.962c-.209.29-.462.523-.762.683l-.142.075a4.64 4.64 0 0 1-.826.332c-.292.084-.566.124-.825.126a2.33 2.33 0 0 1-.682-.095c-.206-.061-.383-.147-.535-.242-.337-.212-.55-.472-.654-.629a1.04 1.04 0 0 1-.116-.218c-.044-.125-.004-.16.008-.165s.056-.015.144.068c.041.039.078.083.156.164.118.124.329.335.629.491.135.07.289.13.463.167a1.91 1.91 0 0 0 .569.033c.214-.019.444-.072.689-.165.228-.087.462-.207.701-.359l.121-.079c.191-.136.343-.325.461-.561a2.91 2.91 0 0 0 .249-.809c.107-.63.083-1.352.011-2.008-.081-.742-.222-1.406-.297-1.773a14.24 14.24 0 0 1-.008-.04c-.123-.607-.141-.783-.14-.777-.019-.085-.022-.172-.01-.258-2.585-2.993-3.255-6.675-3.255-6.675.931-.085 3.979-2.836 6.308-4.36 1.382-.905 4.242-2.227 7.453-2.24h.001zm-.847.991c-2.663.013-4.598.73-6.544 1.994-3.804 2.471-5.448 4.011-5.448 4.011l.318.825c1.82-.466 6.843-3.676 9.341-4.268 1.715-.407 6.04-1.017 9.397 2.879 2.657 3.084 3.09 8.212 3.09 8.212l1.44-.045c-.509-6.436-2.335-10.446-6.286-12.452-1.605-.815-3.488-1.164-5.31-1.155zm.578 4.376c-4.374.035-9.55 4.034-11.608 4.135.589 1.318 1.745 2.661 2.694 3.46 1.78 1.197 3.525 1.529 5.265 1.662 4.233.296 11.853-.085 11.853-.085s-.423-5.164-5.08-8.297c-.946-.636-2.008-.885-3.123-.876zm-17.641 3.411a1.04 1.04 0 0 1 .064.002c.037.003.069.015.096.028s.049.03.068.045c.037.031.07.07.098.109s.057.085.085.135a2.76 2.76 0 0 1 .085.166 6.88 6.88 0 0 1 .181.43 18.57 18.57 0 0 1 .202.548l.464 1.373.46 1.373a2.38 2.38 0 0 0 .26.201.93.93 0 0 0 .243.118.39.39 0 0 0 .101.017c.03 0 .057-.004.08-.012s.045-.021.066-.039.043-.045.065-.081a.71.71 0 0 0 .064-.143 1.46 1.46 0 0 0 .052-.216c.014-.082.022-.16.025-.234.009-.186-.008-.372-.054-.544a1.29 1.29 0 0 0-.111-.286.76.76 0 0 0-.14-.189c-.049-.047-.093-.07-.126-.078s-.05 0-.061.008a.51.51 0 0 0-.045.045.74.74 0 0 0-.073.105l-.029.048c-.214.372-.772.053-.56-.32.006-.011.024-.045.054-.087s.112-.149.229-.231c.095-.067.221-.124.371-.129.124-.004.244.029.353.094.098.059.182.14.253.237.282.396.375.817.36 1.254.012.381-.122.877-.396 1.094-.304.24-.59.12-.819-.074.39 1.209 1.113 2.952 1.83 4.003a3.35 3.35 0 0 0 .33.405c.107.11.208.191.301.246.217.129.411.203.579.234s.303.022.421-.013a.83.83 0 0 0 .323-.185 1.39 1.39 0 0 0 .275-.356 2.5 2.5 0 0 0 .212-.518c.058-.196.1-.411.127-.637.054-.463.039-.96-.042-1.432-.084-.492-.225-.859-.373-1.121-.162-.286-.332-.444-.455-.52-.431.888-1.518.284-1.228-.558.07-.146.184-.314.365-.444a1.06 1.06 0 0 1 .53-.197 1.21 1.21 0 0 1 .525.074 1.61 1.61 0 0 1 .452.26c.26.209.504.518.7.931.181.382.325.862.395 1.446a5.96 5.96 0 0 1-.036 1.683c-.045.267-.111.525-.197.766a3.19 3.19 0 0 1-.323.666c-.13.201-.285.378-.467.519s-.393.244-.623.293a1.6 1.6 0 0 1-.724-.021c-.251-.063-.506-.18-.762-.347-.147-.096-.285-.22-.412-.36a4.07 4.07 0 0 1-.373-.486c-.243-.366-.473-.808-.688-1.278-.425-.933-.816-2.04-1.138-3.013l-.072-.218-.513-1.612-.437-1.374-.185-.541c-.058-.16-.112-.297-.16-.409-.024-.056-.047-.104-.068-.145a1.1 1.1 0 0 0-.055-.098c-.01-.015-.018-.025-.023-.032-.037-.004-.07-.004-.098-.002-.039.003-.071.011-.098.022a.23.23 0 0 0-.073.048c-.022.021-.043.049-.06.084-.036.074-.056.173-.058.294-.002.128.018.269.053.415.037.153.092.265.147.347.046.068.094.121.136.16.018.017.037.033.055.047a1.26 1.26 0 0 0 .169.113c.061.035.073.044.072.053s-.016.021-.092.014c-.05-.005-.129-.021-.22-.066-.024-.012-.049-.025-.074-.041-.058-.037-.126-.09-.192-.166-.08-.092-.161-.22-.219-.399a2.05 2.05 0 0 1-.1-.468c-.011-.143-.002-.287.042-.416.022-.063.052-.124.094-.179s.093-.102.155-.141a.64.64 0 0 1 .206-.081c.056-.012.116-.018.179-.018zm22.237 8.113c.114.001.225.011.332.028.462.077.844.298 1.109.556.153.149.27.312.351.477.098.198.142.393.147.574a1.22 1.22 0 0 1-.138.605c-.142.273-.357.439-.453.51-.396.283-.826-.304-.437-.596a.81.81 0 0 0 .234-.258c.013-.025.025-.051.035-.079a.51.51 0 0 0 .029-.168c.001-.076-.014-.17-.063-.278-.041-.091-.105-.192-.2-.29a1.41 1.41 0 0 0-.732-.397 1.43 1.43 0 0 0-.467-.017c-.16.021-.33.07-.503.157-.179.091-.375.219-.573.382a4.55 4.55 0 0 0-.581.576 4.32 4.32 0 0 0-.855 1.546c-.087.297-.131.592-.131.882 0 .26.036.512.105.754.015.051.031.103.049.155.104.298.27.607.518.918.241.301.56.604.976.898.408.289.812.487 1.207.615a3.87 3.87 0 0 0 .85.173 4.49 4.49 0 0 1-.718-.368c-.289-.183-.625-.447-.876-.8-.117-.165-.217-.352-.284-.562-.065-.204-.098-.429-.086-.674a2.85 2.85 0 0 1 .338-1.231c.007-.014.015-.027.023-.041.168-.293.405-.568.706-.759a1.58 1.58 0 0 1 .451-.198c.153-.039.315-.053.478-.03a1.1 1.1 0 0 1 .459.174 1.27 1.27 0 0 1 .369.384c.184.287.286.544.328.775a1.32 1.32 0 0 1 .019.331c-.008.106-.028.2-.056.284a1.14 1.14 0 0 1-.223.386c-.096.11-.146.144-.159.159-.462.255-.849-.433-.391-.696-.01.012-.012.031.033.006a.28.28 0 0 0 .104-.107c.016-.027.031-.063.041-.109a.57.57 0 0 0 .011-.167c-.009-.134-.059-.321-.195-.568a.75.75 0 0 0-.192-.234.58.58 0 0 0-.233-.111c-.088-.02-.184-.021-.286-.003a1.08 1.08 0 0 0-.325.117c-.237.128-.442.334-.599.574l-.021.033c-.177.283-.305.639-.345 1.056a1.59 1.59 0 0 0 .045.564c.047.179.124.343.219.493.206.326.5.586.766.779.291.212.584.367.751.454l.059.03.144.075c.745-.002 1.422-.212 1.974-.464a1.14 1.14 0 0 1-.096-.063 2.32 2.32 0 0 1-.452-.451c-.142-.184-.29-.428-.378-.72-.041-.135-.069-.282-.077-.439a1.84 1.84 0 0 1 .051-.52c.041-.166.092-.317.155-.452a1.45 1.45 0 0 1 .208-.327 1.09 1.09 0 0 1 .252-.218 1.04 1.04 0 0 1 .271-.119c.188-.053.363-.047.474-.038.163.014.224.027.24.022.416.218.103.845-.321.642.014-.004.021-.033-.063-.083a.53.53 0 0 0-.25-.071.49.49 0 0 0-.162.023.57.57 0 0 0-.182.1c-.065.052-.13.123-.192.219a1.7 1.7 0 0 0-.176.375c-.056.161-.079.307-.084.434a1.43 1.43 0 0 0 .041.402 1.91 1.91 0 0 0 .327.67c.148.202.314.363.399.45.05.051.085.089.11.118a7.85 7.85 0 0 0 1.425-.897c.215-.168.345-.279.425-.344.156-.125.184-.116.194-.108s.029.038-.104.199c-.062.075-.188.215-.391.399a6.95 6.95 0 0 1-1.481 1.031c-.583.299-1.334.568-2.185.584a4.19 4.19 0 0 1-1.273-.173 4.8 4.8 0 0 1-1.332-.64 5.24 5.24 0 0 1-1.086-.958c-.288-.343-.489-.692-.621-1.038-.023-.06-.044-.121-.063-.181-.09-.283-.141-.58-.149-.887-.01-.342.033-.688.124-1.034a4.86 4.86 0 0 1 .921-1.774 5.18 5.18 0 0 1 .641-.667c.222-.192.449-.353.672-.474.232-.126.468-.204.7-.242a2.09 2.09 0 0 1 .349-.027zm6.463.473c.045 0 .09.001.136.003.166.007.341.028.515.07a1.81 1.81 0 0 1 .494.195 1.41 1.41 0 0 1 .41.362 1.6 1.6 0 0 1 .265.545c.057.205.077.41.057.613a1.63 1.63 0 0 1-.119.47l.105.058a3.23 3.23 0 0 0-.115-.035l-.024.054a2.1 2.1 0 0 1-.311.471 2.85 2.85 0 0 1-.421.395c-.344.265-.711.438-.999.539-.171.06-.316.095-.427.115l-.067.011c-.221.034-.364.022-.43.016.064-.001.208-.01.421-.061.021-.005.042-.011.065-.017a3.46 3.46 0 0 0 .411-.138c.278-.113.631-.297.948-.564a2.62 2.62 0 0 0 .382-.393c.11-.141.199-.291.262-.448.004-.01.008-.021.011-.031l-.294-.075c-.379-.094-.859-.19-1.382-.14-.538.051-.929.243-1.184.432l-.029.022c-.31.238-.482.514-.584.7l-.066.124a1.93 1.93 0 0 1-.108.191c-.15.324-.637.11-.501-.22.002-.005.028-.103.148-.266.029-.04.065-.084.107-.132a3.39 3.39 0 0 1 .828-.662l.036-.02a2.92 2.92 0 0 1 1.339-.38c.55-.022 1.068.107 1.429.245a3.39 3.39 0 0 1 .281.123c.043-.131.066-.264.069-.397a1.37 1.37 0 0 0-.092-.518 1.12 1.12 0 0 0-.26-.412.96.96 0 0 0-.341-.214c-.123-.046-.255-.069-.392-.076a2.08 2.08 0 0 0-.414.023 3.17 3.17 0 0 0-.727.205c-.099.041-.173.077-.209.094-.087.04-.094.034-.092.033-.487.185-.778-.534-.299-.739.003-.001.016-.019.132-.049a3.71 3.71 0 0 1 .271-.054c.165-.027.449-.068.762-.067zm1.824 3.533c.412.003.541.559.172.743h0c-.002.004-.024.027-.116.062-.151.057-.495.154-1.004.447-.088.051-.176.105-.263.162-.637.42-1.089.893-1.601 1.373-.192.179-.376.328-.451.399.053-.094.151-.301.31-.522.386-.54.969-1.064 1.508-1.551l.238-.215.881-.777c.102-.076.145-.078.148-.079a.39.39 0 0 1 .178-.041zm-.681-32.838s-1.482-1.863-.339-4.656m.889 10.625s-2.159-2.54-6.942-3.26m7.239 1.566S41.773 7.462 38.895 6.7m33.448 11.439c-.046-.001-.092 0-.138.005-.176.016-.352.071-.523.16-.165.086-.326.204-.477.35a2.87 2.87 0 0 0-.413.51 3.89 3.89 0 0 0-.541 1.409c-.099.545-.101 1.152.031 1.792.068.331.182.628.332.893s.339.506.549.711c.435.425.968.719 1.496.915l.056.021c.506.182 1.056.298 1.6.347.262.023.519.031.762.023a4.54 4.54 0 0 0 .654-.065c.761-.138 1.462-.465 2.079-.98.631-.526 1.137-1.219 1.527-2.017a7.8 7.8 0 0 0 .756-2.722c.041-.475.024-.795.01-.926-.027-.263-.073-.267-.084-.266s-.042.018-.058.268c-.005.086-.022.482-.075.901-.071.555-.25 1.555-.794 2.622-.391.764-.886 1.41-1.485 1.891-.247.198-.507.364-.777.498-.048-.024-.091-.047-.136-.074a1.1 1.1 0 0 1-.154-.112.7.7 0 0 1-.127-.148c-.037-.058-.066-.125-.084-.203a.84.84 0 0 1-.017-.261 1.39 1.39 0 0 1 .098-.381c.052-.136.112-.249.166-.339.032-.053.064-.099.094-.137a.95.95 0 0 1 .035-.044c.031-.036.055-.055.07-.064s.021-.013.027-.013c.391.248.785-.311.414-.581-.011-.008-.046-.053-.185-.106-.051-.019-.117-.038-.196-.044s-.164-.001-.255.025a.74.74 0 0 0-.263.14c-.089.073-.158.162-.21.252a1.09 1.09 0 0 0-.052.102 1.3 1.3 0 0 0-.08.25c-.031.144-.045.298-.053.463a2.47 2.47 0 0 0 .02.476l.003.021a1.38 1.38 0 0 0 .095.342c.044.102.1.189.164.263a.89.89 0 0 0 .201.171.83.83 0 0 0 .217.096 3.9 3.9 0 0 1-.954.28c-.087.014-.181.025-.28.033-.033-.014-.059-.024-.089-.035-.104-.036-.32-.1-.522-.204-.091-.047-.185-.104-.273-.174s-.164-.146-.231-.239-.121-.196-.159-.316-.058-.261-.056-.415.022-.289.055-.392c.031-.093.07-.155.109-.193s.073-.052.106-.059.071-.008.111-.003.086.016.129.031.088.036.123.056c.103.06.105.093.09.099.563.257.954-.583.394-.847-.029.012-.069-.005-.279-.028-.069-.008-.157-.014-.253-.013a1.34 1.34 0 0 0-.3.037.97.97 0 0 0-.314.138c-.103.07-.19.162-.258.276s-.114.251-.138.396a2.2 2.2 0 0 0-.019.514 1.86 1.86 0 0 0 .114.54 1.56 1.56 0 0 0 .236.417 1.64 1.64 0 0 0 .313.3c.053.039.106.074.16.105l-.087-.008c-.513-.054-1.027-.171-1.494-.348l-.052-.02c-.487-.191-.962-.461-1.342-.836a2.76 2.76 0 0 1-.473-.615c-.128-.228-.226-.483-.286-.77a4.31 4.31 0 0 1-.033-1.628c.088-.495.262-.922.476-1.256.109-.171.228-.315.351-.434s.254-.213.378-.276.251-.1.364-.108.226.012.325.056a.82.82 0 0 1 .275.205c.082.092.149.201.201.317.058.13.1.267.128.398.033.156.048.306.052.433.009.388-.099.626-.157.763-.025.058-.045.106-.056.15-.031.117-.007.157-.006.153-.054.769 1.097.858 1.161.089 0-.004.034-.069.01-.215-.009-.055-.029-.115-.054-.184-.093-.252-.143-.34-.276-.834l-.005-.019a6.64 6.64 0 0 0-.148-.486c-.053-.149-.121-.313-.21-.472-.079-.142-.179-.287-.307-.413-.118-.117-.262-.221-.436-.292a1.12 1.12 0 0 0-.396-.083zm-12.987.926c-2.197-.009-4.559.596-6.726 2.367-5.334 4.36-4.826 13.758-4.826 13.758 2.689.565 4.716-.721 8.872.369 2.242.588 3.4 1.755 3.937 3.605.47 1.621-.212 3.123-2.639 4.927 2.498-.99 4.411-2.063 4.488-4.47.05-1.555-.596-2.901-1.367-3.723.964-.102 4.341-.101 6.52-1.555a10.54 10.54 0 0 0 .596-.429 14.31 14.31 0 0 0-.002 1.239c.032.716.129 1.54.377 2.262a3.69 3.69 0 0 0 .482.962c.209.29.462.523.762.683l.142.075a4.64 4.64 0 0 0 .826.332c.292.084.566.124.825.126a2.33 2.33 0 0 0 .682-.095c.206-.061.383-.147.535-.242.337-.212.55-.472.654-.629a1.04 1.04 0 0 0 .116-.218c.044-.125.004-.16-.008-.165s-.056-.015-.144.068c-.041.039-.078.083-.156.164-.118.124-.329.335-.629.491-.135.07-.289.13-.463.167a1.91 1.91 0 0 1-.569.033c-.214-.019-.444-.072-.689-.165-.228-.087-.462-.207-.701-.359l-.121-.079c-.191-.136-.343-.325-.461-.561a2.91 2.91 0 0 1-.249-.809c-.107-.63-.083-1.352-.011-2.008.081-.742.222-1.406.297-1.773a14.29 14.29 0 0 0 .008-.04c.123-.607.141-.783.14-.777a.74.74 0 0 0 .01-.258c2.585-2.993 3.255-6.675 3.255-6.675-.931-.085-3.979-2.836-6.308-4.36-1.382-.905-4.242-2.227-7.453-2.24h-.001zm.847.991c2.663.013 4.598.73 6.544 1.994 3.804 2.471 5.448 4.011 5.448 4.011l-.318.825c-1.82-.466-6.843-3.676-9.341-4.268-1.715-.407-6.04-1.017-9.397 2.879-2.657 3.084-3.09 8.212-3.09 8.212l-1.44-.045c.509-6.436 2.335-10.446 6.286-12.452 1.605-.815 3.488-1.164 5.31-1.155zm-.578 4.376c4.374.035 9.55 4.034 11.608 4.135-.589 1.318-1.745 2.661-2.694 3.46-1.78 1.197-3.525 1.529-5.265 1.662-4.233.296-11.853-.085-11.853-.085s.423-5.164 5.08-8.297c.946-.636 2.008-.885 3.123-.876zm17.641 3.411a1.04 1.04 0 0 0-.064.002c-.037.003-.069.015-.096.028s-.049.03-.068.045c-.037.031-.07.07-.098.109s-.057.085-.085.135a2.76 2.76 0 0 0-.085.166 6.88 6.88 0 0 0-.181.43 18.57 18.57 0 0 0-.202.548l-.464 1.373-.46 1.373a2.38 2.38 0 0 1-.26.201.93.93 0 0 1-.243.118.39.39 0 0 1-.101.017c-.03 0-.057-.004-.08-.012s-.045-.021-.066-.039-.043-.045-.065-.081a.71.71 0 0 1-.064-.143 1.46 1.46 0 0 1-.052-.216c-.014-.082-.022-.16-.025-.234-.009-.186.008-.372.054-.544a1.29 1.29 0 0 1 .111-.286.76.76 0 0 1 .14-.189c.049-.047.093-.07.126-.078s.05 0 .061.008a.51.51 0 0 1 .045.045.74.74 0 0 1 .073.105l.029.048c.214.372.772.053.56-.32-.006-.011-.024-.045-.054-.087s-.112-.149-.229-.231c-.095-.067-.221-.124-.371-.129-.124-.004-.244.029-.353.094-.098.059-.182.14-.253.237-.282.396-.375.817-.36 1.254-.012.381.122.877.396 1.094.304.24.59.12.819-.074-.39 1.209-1.113 2.952-1.83 4.003a3.35 3.35 0 0 1-.33.405c-.107.11-.208.191-.301.246-.217.129-.411.203-.579.234s-.303.022-.421-.013a.83.83 0 0 1-.323-.185 1.39 1.39 0 0 1-.275-.356 2.5 2.5 0 0 1-.212-.518c-.058-.196-.1-.411-.127-.637-.054-.463-.039-.96.042-1.432.084-.492.225-.859.373-1.121.162-.286.332-.444.455-.52.431.888 1.518.284 1.228-.558-.07-.146-.184-.314-.365-.444a1.06 1.06 0 0 0-.53-.197 1.21 1.21 0 0 0-.525.074 1.61 1.61 0 0 0-.452.26c-.26.209-.504.518-.7.931-.181.382-.325.862-.395 1.446a5.96 5.96 0 0 0 .036 1.683c.045.267.111.525.197.766a3.19 3.19 0 0 0 .323.666c.13.201.285.378.467.519s.393.244.623.293a1.6 1.6 0 0 0 .724-.021c.251-.063.506-.18.762-.347.147-.096.285-.22.412-.36a4.07 4.07 0 0 0 .373-.486c.243-.366.473-.808.688-1.278.425-.933.816-2.04 1.138-3.013l.072-.218.513-1.612.437-1.374.185-.541c.058-.16.112-.297.16-.409.024-.056.047-.104.068-.145a1.1 1.1 0 0 1 .055-.098c.01-.015.018-.025.023-.032.037-.004.07-.004.098-.002.039.003.071.011.098.022a.23.23 0 0 1 .073.048c.022.021.043.049.06.084.036.074.056.173.058.294.002.128-.017.269-.053.415-.037.153-.092.265-.147.347-.046.068-.094.121-.136.16-.018.017-.037.033-.055.047a1.26 1.26 0 0 1-.169.113c-.061.035-.073.044-.072.053s.016.021.093.014c.05-.005.129-.021.22-.066.024-.012.049-.025.074-.041.058-.037.126-.09.192-.166.08-.092.161-.22.219-.399a2.05 2.05 0 0 0 .1-.468c.011-.143.002-.287-.042-.416-.022-.063-.052-.124-.094-.179s-.093-.102-.155-.141a.64.64 0 0 0-.206-.081c-.056-.012-.116-.018-.179-.018zm-31.558 5.866c-.362 0-.656.294-.656.656s.293.656.656.656.656-.294.656-.656-.294-.656-.656-.656zm9.321 2.247c-.114.001-.225.011-.332.028-.462.077-.844.298-1.109.556-.153.149-.27.312-.351.477-.098.198-.142.393-.147.574a1.23 1.23 0 0 0 .138.605c.142.273.357.439.453.51.396.283.826-.304.437-.596a.81.81 0 0 1-.234-.258c-.013-.025-.025-.051-.035-.079a.51.51 0 0 1-.029-.168c-.001-.076.014-.17.063-.278a1.04 1.04 0 0 1 .2-.29 1.41 1.41 0 0 1 .732-.397 1.43 1.43 0 0 1 .467-.017c.16.021.33.07.503.157.179.091.375.219.573.382a4.55 4.55 0 0 1 .581.576c.387.457.693.992.855 1.546.087.297.131.592.131.882 0 .26-.036.512-.105.754a2.75 2.75 0 0 1-.049.155c-.104.298-.27.607-.518.918-.241.301-.56.604-.976.898-.408.289-.812.487-1.207.615a3.87 3.87 0 0 1-.85.173 4.49 4.49 0 0 0 .718-.368c.289-.183.625-.447.876-.8.117-.165.217-.352.284-.562.065-.204.098-.429.086-.674a2.85 2.85 0 0 0-.338-1.231l-.023-.041c-.168-.293-.405-.568-.706-.759a1.58 1.58 0 0 0-.451-.198c-.153-.039-.315-.053-.478-.03a1.1 1.1 0 0 0-.459.174 1.27 1.27 0 0 0-.369.384c-.184.287-.286.544-.328.775-.021.119-.026.229-.019.331s.028.2.056.284a1.14 1.14 0 0 0 .223.386c.096.11.146.144.159.159.462.255.849-.433.391-.696.01.012.012.031-.033.006a.28.28 0 0 1-.104-.107c-.016-.027-.031-.063-.041-.109a.58.58 0 0 1-.011-.167c.009-.134.058-.321.195-.568a.75.75 0 0 1 .192-.234.58.58 0 0 1 .233-.111c.088-.02.184-.021.286-.003a1.08 1.08 0 0 1 .325.117c.237.128.442.334.599.574l.021.033c.177.283.305.639.345 1.056.019.204.001.391-.045.564-.047.179-.124.343-.219.493-.206.326-.5.586-.766.779-.291.212-.584.367-.751.454l-.059.03-.144.075c-.745-.002-1.422-.212-1.974-.464.027-.016.059-.036.096-.063a2.32 2.32 0 0 0 .452-.451c.142-.184.29-.428.378-.72.041-.135.069-.282.076-.439a1.82 1.82 0 0 0-.051-.52c-.041-.166-.092-.317-.155-.452a1.45 1.45 0 0 0-.208-.327 1.09 1.09 0 0 0-.252-.218 1.04 1.04 0 0 0-.271-.119c-.188-.053-.363-.047-.474-.038-.163.014-.224.027-.24.022-.416.218-.103.845.321.642-.014-.004-.021-.033.063-.083a.53.53 0 0 1 .25-.071.49.49 0 0 1 .162.023.57.57 0 0 1 .182.1.91.91 0 0 1 .192.219 1.7 1.7 0 0 1 .176.375c.056.161.079.307.084.434.005.148-.011.279-.041.402a1.91 1.91 0 0 1-.327.67c-.148.202-.314.363-.399.45a2.65 2.65 0 0 0-.11.118 7.85 7.85 0 0 1-1.425-.897c-.215-.168-.345-.279-.425-.344-.156-.125-.184-.116-.194-.108s-.029.038.104.199a4.17 4.17 0 0 0 .391.399 6.95 6.95 0 0 0 1.481 1.031c.583.299 1.334.568 2.185.584a4.19 4.19 0 0 0 1.273-.173 4.8 4.8 0 0 0 1.332-.64 5.24 5.24 0 0 0 1.086-.958c.288-.343.489-.692.621-1.038a3.27 3.27 0 0 0 .063-.181c.09-.283.141-.58.149-.887.01-.342-.033-.688-.124-1.034a4.86 4.86 0 0 0-.921-1.774 5.18 5.18 0 0 0-.641-.667c-.222-.192-.449-.353-.672-.474-.232-.126-.468-.204-.7-.242a2.09 2.09 0 0 0-.349-.027zm-6.463.473c-.045 0-.09.001-.136.003-.166.007-.341.028-.515.07a1.81 1.81 0 0 0-.494.195 1.41 1.41 0 0 0-.41.362 1.6 1.6 0 0 0-.265.545c-.057.205-.077.41-.057.613a1.63 1.63 0 0 0 .119.47l-.105.058a3.22 3.22 0 0 1 .115-.035l.024.054c.08.17.186.327.311.471a2.85 2.85 0 0 0 .421.395c.344.265.711.438.999.539.171.06.316.095.427.115l.067.011c.221.034.364.022.43.016-.064-.001-.208-.01-.421-.061a2.72 2.72 0 0 1-.065-.017 3.46 3.46 0 0 1-.411-.138c-.278-.113-.631-.297-.948-.564a2.62 2.62 0 0 1-.382-.393 1.85 1.85 0 0 1-.262-.448c-.004-.01-.008-.021-.011-.031l.294-.075c.379-.094.859-.19 1.382-.14.538.051.929.243 1.184.432l.029.022c.31.238.482.514.584.7.025.046.047.088.066.124.076.144.11.196.108.191.15.324.637.11.501-.22-.002-.005-.028-.103-.148-.266a1.87 1.87 0 0 0-.107-.132 3.39 3.39 0 0 0-.828-.662l-.036-.02a2.92 2.92 0 0 0-1.339-.38c-.55-.022-1.068.107-1.429.245-.105.04-.199.083-.281.123-.043-.131-.066-.264-.069-.397-.004-.175.028-.348.092-.518a1.12 1.12 0 0 1 .26-.412.96.96 0 0 1 .341-.214c.123-.046.255-.069.392-.076a2.08 2.08 0 0 1 .414.023 3.17 3.17 0 0 1 .727.205c.099.041.173.077.209.094.087.04.094.034.091.033.487.185.778-.534.299-.739-.003-.001-.016-.019-.132-.049a3.71 3.71 0 0 0-.271-.054c-.165-.027-.449-.068-.762-.067zm-2.858.03a.53.53 0 0 0-.529.529.53.53 0 0 0 .529.529.53.53 0 0 0 .529-.529.53.53 0 0 0-.529-.529zm0 2.455a.38.38 0 1 0 0 .762.38.38 0 1 0 0-.762zm1.034 1.047c-.412.003-.541.559-.172.743h0c.002.004.024.027.116.062.151.057.495.154 1.004.447a5.21 5.21 0 0 1 .263.162c.637.42 1.089.893 1.601 1.373.192.179.376.328.451.399-.053-.094-.151-.301-.31-.522-.386-.54-.969-1.064-1.508-1.551l-.238-.215-.881-.777c-.102-.076-.145-.078-.148-.079a.39.39 0 0 0-.178-.041zm-1.034 1.451c-.163 0-.296.133-.296.296s.133.296.296.296.297-.132.297-.296-.133-.296-.297-.296zm1.715-34.289s1.482-1.863.339-4.656m-.889 10.625s2.159-2.54 6.942-3.26m-7.239 1.566s2.836-3.937 5.715-4.699m-4.868 1.778a1.736 1.736 0 1 1-3.471 0 1.736 1.736 0 0 1 3.471 0zm-18.019 4.896c-.178.003-.356.037-.529.107a1.31 1.31 0 0 0-.439.29 1.29 1.29 0 0 0-.276.42c-.134.326-.143.697-.067 1.057.074.353.24.76.545 1.184a4.38 4.38 0 0 0 .479.557l-.145.088c-.124.074-.353.202-.637.297-.244.081-.544.144-.87.118a1.79 1.79 0 0 1-.476-.104 1.94 1.94 0 0 1-.484-.263c-.339-.25-.58-.489-.746-.711a1.47 1.47 0 0 1-.295-.637c-.015-.094-.017-.185-.004-.273s.037-.165.073-.241c.071-.148.186-.282.343-.399.124-.099.236-.153.332-.177a.5.5 0 0 1 .253-.003c.076.019.149.057.217.108a1.07 1.07 0 0 1 .202.204c.145.188.238.41.284.571.025.087.038.157.046.209.003.02.005.038.007.054.012.108.007.141.005.152-.094.494.643.641.746.149.015-.074.038-.21.007-.408-.005-.03-.011-.062-.019-.095a1.91 1.91 0 0 0-.101-.312c-.089-.215-.252-.506-.502-.752-.105-.103-.229-.201-.371-.276-.134-.071-.285-.122-.449-.136a1.05 1.05 0 0 0-.486.076c-.159.065-.313.168-.46.311-.18.182-.307.387-.374.605-.034.113-.052.227-.053.34-.001.12.015.237.045.35.057.216.174.456.384.713.19.233.454.476.809.726a2.11 2.11 0 0 0 .534.274 1.95 1.95 0 0 0 .522.101c.352.02.672-.056.924-.148a2.97 2.97 0 0 0 .649-.334 1.84 1.84 0 0 0 .152-.114c.188.18.402.355.645.524.256.178.497.305.725.392s.444.133.64.147a1.82 1.82 0 0 0 .548-.042c.172-.04.322-.103.45-.172a2.07 2.07 0 0 0 .593-.485 1.55 1.55 0 0 0 .071-.091l.036.037a4.12 4.12 0 0 0 1.19.832c.431.203.853.322 1.197.393.808.165 1.151.114 1.238.094a.18.18 0 0 0 .024-.007c.186.344.43.623.71.847.384.308.811.493 1.181.604.431.13.805.166 1.013.175.064.003.118.003.163.003a3.26 3.26 0 0 0-.028.424l.001.069c.01.325.085.653.22.966a2.89 2.89 0 0 0 .589.877c.249.254.548.463.883.596a2.16 2.16 0 0 0 1.107.138c.394-.055.724-.197.986-.356.299-.181.527-.394.682-.561a3.42 3.42 0 0 0 .222-.265c.273-.362.296-.499.302-.512.327-.727-.765-1.217-1.092-.489.006-.013-.018.047-.187.31-.035.055-.08.122-.135.194-.095.125-.228.277-.4.408-.149.114-.333.218-.557.273-.196.049-.405.048-.622-.012-.212-.059-.423-.172-.617-.333a2.04 2.04 0 0 1-.482-.591 1.87 1.87 0 0 1-.218-.685c-.002-.016-.004-.033-.005-.05a2.62 2.62 0 0 1 .108-.915c.093-.318.247-.647.474-.932a2.09 2.09 0 0 1 .866-.652c.365-.146.812-.202 1.348-.121a2.72 2.72 0 0 1 .71.203c.209.094.424.172.534.332.967 1.403 1.232 3.248 1.013 5.882a2.45 2.45 0 0 0-.279-.352 1.86 1.86 0 0 0-.362-.294 1.53 1.53 0 0 0-.451-.188c-.119-.028-.243-.042-.372-.043h-.001c-.058 0-.118.003-.179.008-.193.018-.376.062-.545.14-.16.074-.302.176-.425.304a1.57 1.57 0 0 0-.289.434 1.95 1.95 0 0 0-.15.51 2.14 2.14 0 0 0 .107 1.074 1.52 1.52 0 0 0 .187.349 1.28 1.28 0 0 0 .106.127c.19.2.387.279.497.32.667.244 1.045-.748.384-1.009-.011-.004-.048-.032-.106-.082a1.68 1.68 0 0 1-.043-.038 1.18 1.18 0 0 1-.122-.129 1.37 1.37 0 0 1-.271-.599 1.26 1.26 0 0 1-.019-.35.95.95 0 0 1 .09-.331.79.79 0 0 1 .228-.28c.109-.084.245-.146.407-.179s.319-.033.464-.003c.138.028.265.083.379.158s.213.166.301.268.166.218.229.329c.141.247.235.509.288.636l.023.053.036 1.315.117 5.151.009 1.33c.002.215.325.213.323-.003l-.009-1.33.044-5.153.021-1.595a3.56 3.56 0 0 1 .194-.404 2.12 2.12 0 0 1 .229-.329 1.43 1.43 0 0 1 .301-.268c.115-.075.241-.129.379-.158.145-.03.301-.03.464.003s.298.095.407.179a.79.79 0 0 1 .228.28.95.95 0 0 1 .09.331 1.26 1.26 0 0 1-.019.35 1.37 1.37 0 0 1-.271.599c-.048.059-.091.1-.122.129a1.79 1.79 0 0 1-.043.038c-.058.05-.096.078-.106.082-.661.262-.283 1.253.384 1.009.11-.042.307-.121.497-.32.037-.039.072-.081.106-.127a1.52 1.52 0 0 0 .187-.349 2.14 2.14 0 0 0 .107-1.074 1.95 1.95 0 0 0-.15-.51 1.57 1.57 0 0 0-.289-.434c-.123-.129-.265-.231-.425-.304-.17-.078-.352-.122-.545-.14-.061-.006-.121-.008-.179-.008a1.62 1.62 0 0 0-.372.043c-.165.039-.315.104-.452.188s-.255.184-.361.294c-.088.091-.165.188-.233.284.048-2.628.055-4.545.967-5.814.113-.158.325-.239.534-.332a2.72 2.72 0 0 1 .71-.203c.536-.081.983-.024 1.348.121a2.09 2.09 0 0 1 .866.652c.227.285.381.614.474.932a2.62 2.62 0 0 1 .108.915c-.001.017-.003.033-.005.05a1.87 1.87 0 0 1-.218.685 2.04 2.04 0 0 1-.482.591c-.193.161-.405.275-.617.333-.217.06-.427.062-.622.012-.224-.055-.408-.159-.557-.273-.172-.132-.305-.283-.4-.408-.055-.072-.1-.14-.135-.194-.169-.262-.192-.322-.187-.31-.327-.727-1.418-.238-1.092.489.006.013.029.149.302.512.057.076.131.167.222.265.155.167.383.38.682.561.262.159.592.301.986.356a2.16 2.16 0 0 0 1.107-.138c.334-.133.634-.342.883-.596a2.89 2.89 0 0 0 .589-.877c.135-.313.209-.641.22-.966.001-.023.001-.046.001-.069 0-.132-.009-.274-.028-.424.045.001.099 0 .163-.003.208-.009.582-.046 1.013-.175.37-.111.797-.296 1.181-.604.279-.224.524-.503.71-.847.007.003.014.005.024.007.087.02.43.071 1.238-.094.344-.07.766-.19 1.197-.393a4.12 4.12 0 0 0 1.19-.832l.036-.037a1.57 1.57 0 0 0 .071.091 2.07 2.07 0 0 0 .593.485c.128.069.278.131.45.172.163.038.346.057.548.042.196-.014.41-.059.64-.147s.469-.214.725-.392c.243-.169.457-.344.645-.524.033.028.081.065.152.114a2.97 2.97 0 0 0 .649.334c.252.092.572.168.924.148a1.95 1.95 0 0 0 .522-.101 2.11 2.11 0 0 0 .534-.274c.355-.249.619-.493.809-.726.21-.257.327-.497.384-.713.03-.114.046-.231.045-.35-.001-.113-.019-.227-.053-.34-.066-.219-.194-.423-.374-.605-.148-.142-.301-.246-.46-.311a1.05 1.05 0 0 0-.486-.076c-.163.014-.315.065-.449.136-.142.075-.265.173-.371.276-.25.245-.412.537-.502.752a1.91 1.91 0 0 0-.101.312 1.49 1.49 0 0 0-.019.095c-.031.198-.008.334.007.408.103.492.84.344.746-.149-.002-.011-.007-.044.005-.152l.007-.054c.008-.052.021-.122.046-.209.046-.16.139-.383.284-.571a1.07 1.07 0 0 1 .202-.204c.068-.051.141-.089.217-.108a.5.5 0 0 1 .253.003c.096.025.208.078.332.177.156.117.272.251.343.399.037.077.061.158.073.241a.89.89 0 0 1-.004.273 1.47 1.47 0 0 1-.295.637c-.165.222-.407.462-.746.711a1.94 1.94 0 0 1-.484.263 1.79 1.79 0 0 1-.476.104c-.325.026-.626-.037-.87-.118-.284-.095-.513-.223-.637-.297l-.145-.088a4.38 4.38 0 0 0 .479-.557c.304-.424.471-.831.545-1.184.075-.361.067-.731-.067-1.057a1.29 1.29 0 0 0-.276-.42 1.31 1.31 0 0 0-.439-.29c-.173-.07-.351-.104-.529-.107h-.001a1.71 1.71 0 0 0-.528.077c-.363.111-.681.326-.923.563a2.31 2.31 0 0 0-.585.921 1.76 1.76 0 0 0-.058.231 1.55 1.55 0 0 0-.025.314 1.43 1.43 0 0 0 .126.552.37.37 0 0 0 .669-.294c-.021-.047-.052-.143-.057-.279-.002-.052 0-.111.009-.178.005-.043.013-.091.026-.145.045-.186.148-.438.358-.691.165-.199.386-.384.64-.494a1.21 1.21 0 0 1 .363-.097c.121-.012.246-.003.371.033s.233.093.325.166.169.169.228.28c.126.237.164.54.114.868-.048.316-.186.698-.465 1.105a4.49 4.49 0 0 1-1.117 1.108c-.243.172-.47.295-.68.378s-.409.128-.587.143a1.66 1.66 0 0 1-.497-.03c-.156-.034-.294-.088-.413-.148-.273-.139-.468-.327-.57-.431-.036-.037-.063-.066-.086-.092a4.3 4.3 0 0 0 .718-1.08c.099-.216.172-.426.222-.624.018-.072.033-.142.044-.211.022-.126.035-.256.035-.386 0-.183-.024-.372-.091-.548-.063-.167-.166-.326-.32-.45s-.336-.199-.552-.227a1.85 1.85 0 0 0-.697.055 3.2 3.2 0 0 0-1.237.603 2.56 2.56 0 0 0-.744.959c-.179.41-.212.805-.162 1.134.055.36.203.615.306.757.112.153.225.245.261.276.562.468 1.273-.361.725-.845-.013-.011-.056-.055-.101-.106a.77.77 0 0 1-.16-.286c-.042-.137-.063-.341.01-.594.061-.209.188-.449.412-.674.21-.21.502-.404.888-.537.183-.063.326-.086.437-.085a.51.51 0 0 1 .253.059c.066.037.123.095.169.181.05.092.083.21.096.348a1.66 1.66 0 0 1-.001.303c-.005.057-.013.116-.023.178-.029.171-.081.358-.158.556-.146.372-.379.77-.703 1.132-.317.353-.688.619-1.064.819-.397.211-.792.345-1.121.433-.416.111-.758.111-1.172.219.055-.11.104-.226.147-.349a5.46 5.46 0 0 0 .118-.383 4.39 4.39 0 0 0 .155-1.154c-.002-.235-.026-.459-.072-.666s-.115-.392-.207-.556a1.3 1.3 0 0 0-.351-.409c-.144-.107-.309-.175-.49-.197s-.377.001-.576.066c-.204.067-.414.177-.631.327-.16.111-.301.223-.425.335a3.53 3.53 0 0 0-.554.624c-.235.342-.372.685-.452 1.001-.089.349-.106.662-.107.842 0 .095.004.17.012.221.021.137.061.165.066.175.397.893 1.736.298 1.339-.595.004.008.03.018-.011-.032-.014-.018-.04-.043-.073-.085-.066-.084-.166-.234-.221-.465a1.35 1.35 0 0 1 .038-.75 1.7 1.7 0 0 1 .333-.568c.091-.106.203-.213.337-.319.178-.141.344-.236.494-.291s.27-.066.377-.052a.54.54 0 0 1 .274.118.84.84 0 0 1 .215.276 1.66 1.66 0 0 1 .144.435 2.93 2.93 0 0 1 .05.567c-.001.323-.044.675-.127 1.037-.026.115-.057.234-.095.356-.141.466-.39.833-.706 1.124s-.687.491-1.025.628a5.64 5.64 0 0 1-.939.279l-.162.034c-.031-.183-.079-.374-.145-.568-.128-.375-.328-.768-.621-1.111-.286-.335-.656-.618-1.119-.788-.469-.171-1.01-.218-1.621-.111-.317.055-.592.147-.831.263-.248.12-.456.266-.63.422a2.92 2.92 0 0 0-.738 1.062c-.103.251-.163.481-.196.665a.35.35 0 0 0-.141.005c-.033-.184-.093-.417-.197-.67a2.92 2.92 0 0 0-.738-1.062c-.174-.156-.382-.302-.63-.422-.239-.116-.515-.208-.831-.263-.611-.107-1.152-.06-1.621.111-.463.17-.834.453-1.119.788-.293.343-.493.736-.621 1.111a3.71 3.71 0 0 0-.145.568l-.162-.034a5.64 5.64 0 0 1-.939-.279c-.338-.137-.707-.335-1.025-.628s-.565-.658-.706-1.124c-.037-.122-.068-.241-.095-.356-.083-.363-.127-.714-.127-1.037a2.93 2.93 0 0 1 .05-.567c.033-.169.082-.315.144-.435a.84.84 0 0 1 .215-.276.54.54 0 0 1 .274-.118c.107-.014.232-.001.377.052s.315.15.494.291a2.48 2.48 0 0 1 .337.319 1.7 1.7 0 0 1 .333.568 1.35 1.35 0 0 1 .038.75c-.055.231-.155.382-.221.465-.033.042-.058.068-.073.085-.041.05-.015.04-.011.032-.397.893.943 1.488 1.339.595.005-.01.045-.039.066-.175a1.51 1.51 0 0 0 .012-.221 3.56 3.56 0 0 0-.107-.842c-.08-.316-.217-.659-.452-1.001a3.53 3.53 0 0 0-.554-.624c-.124-.112-.265-.224-.425-.335-.217-.15-.427-.26-.631-.327-.198-.065-.392-.089-.576-.066s-.346.09-.49.197a1.3 1.3 0 0 0-.351.409c-.092.164-.161.352-.207.556s-.07.431-.072.666a4.39 4.39 0 0 0 .155 1.154c.033.125.072.253.118.383a2.9 2.9 0 0 0 .147.349c-.414-.108-.756-.107-1.172-.219-.328-.088-.724-.222-1.121-.433-.376-.2-.747-.465-1.064-.819-.324-.361-.557-.759-.703-1.132a2.88 2.88 0 0 1-.158-.556 2.15 2.15 0 0 1-.023-.178c-.01-.105-.01-.207-.001-.303.013-.138.047-.256.096-.348.046-.086.104-.144.169-.181a.51.51 0 0 1 .253-.059c.11-.001.254.022.437.085.386.133.679.327.888.537.224.225.351.465.412.674.074.253.052.457.01.594a.77.77 0 0 1-.16.286c-.044.052-.088.095-.101.106-.549.484.162 1.314.725.845.036-.031.15-.123.261-.276.104-.142.252-.397.306-.757.05-.33.018-.724-.162-1.134a2.56 2.56 0 0 0-.744-.959 3.2 3.2 0 0 0-1.237-.603 1.85 1.85 0 0 0-.697-.055c-.216.029-.402.107-.552.227s-.257.283-.32.45c-.066.176-.091.365-.091.548a2.32 2.32 0 0 0 .035.386 2.87 2.87 0 0 0 .044.211c.049.198.122.408.222.624a4.3 4.3 0 0 0 .718 1.08l-.086.092c-.102.105-.297.292-.57.431-.119.061-.257.114-.413.148a1.66 1.66 0 0 1-.497.03c-.178-.015-.374-.059-.587-.143s-.437-.206-.68-.378a4.49 4.49 0 0 1-1.117-1.108c-.278-.407-.416-.789-.465-1.105-.05-.328-.012-.631.114-.868.059-.111.136-.205.228-.28s.2-.13.325-.166.25-.045.371-.033a1.21 1.21 0 0 1 .363.097c.254.11.475.295.64.494.21.254.313.505.358.691a1.31 1.31 0 0 1 .026.145c.008.067.011.126.009.178-.005.136-.036.232-.057.279a.37.37 0 0 0 .669.294c.045-.101.119-.29.126-.552a1.56 1.56 0 0 0-.025-.314 1.75 1.75 0 0 0-.058-.231 2.31 2.31 0 0 0-.585-.921c-.242-.238-.56-.452-.923-.563a1.71 1.71 0 0 0-.527-.077h-.001z" fill="#782121" stroke="#2b0000" stroke-width=".066" stroke-linecap="round"/><path d="M18.877 10.089c1.037.021.995 1.207.995 1.207s.597-.831 1.249-.699c.952.193 1.185 1.439.466 1.693-.974-.783-1.482.212-.952 1.63.463 1.242 2.074 1.947 2.074 1.947s-.614-.995.021-1.354 1.503.889 1.503.889-.871-2.815.732-3.45c1.563-.62 2.033 1.941.778 1.917-.408-1.274-1.279-.585-1.309.387-.055 1.738 3.989 2.373 6.286 3.691-.275-1.09.629-2.438 1.856-1.694.907.55.597 1.654-.18 1.634.845-.895-.588-1.7-.718-.479-.172 1.617 3.85 3.78 6.409 5.23.715-1.365 2.71-2.027 3.588-.021.526 1.199-.881 2.457-1.242 1.742-.322-.639.584-.607.67-1.01.158-.739-1.187-1.113-1.999.018.12.898 2.691 3.022 2.691 3.022s-.797-.979.165-1.437c.383-.182 1.103.055.884.328-.136.17-1.794-.226-.105 1.652.566-.218.789.345.789.345s1.315-.036 1.141 1.208c-.162 1.155-1.518.68-1.518.68s-.228 2.063.49 3.799.19 4.201.19 4.201c-5.029-.778-6.602 1.901-8.022 3.024-1.188.94-3.719 2.39-4.548.488-1.757 1.376-4.72-2.202-5.27-2.35s-1.291 1.122-.952 1.566.825-.144 1.082-.777c.581 1.321-.469 2.256-1.146 2.11-1.286-.276-.804-1.629-.804-1.629s-.596.693-1.058.064c-.681-.927 1.376-1.969 1.376-1.969s-.762-.867-2.561-1.1-2.999 1.313-2.787 1.842.967.316.967.316-.363 1.395-1.267.895c-.65-.36-.575-1.91-.575-1.91s-2.075.85-2.487 2.037c.486.517.689.924.275 1.424-.762.825-1.968-.829-1.386-1.936-.496.135-.656-.381-.656-.381s-1.853 1.557-2.307.677c-1.222-2.363 8.382-2.964 7.366-3.45s-2.921-.889-5.545-.36-1.926-.529-1.926-.529c-4.613.62-6.33 2.15-6.33 2.15s.249 1.562-.781 1.423c-1.376-.185-.085-2.176-.614-2.705s-2.45 2.986-2.921 2.222c-.985-1.598 2.223-3.45 5.482-4.529s5.651-.825 5.651-.825-.699-1.217.55-2.35c-1.926.085-2.356 1.002-3.259.847-.832-.143-.338-.974-.338-.974-1.503.296-1.418 1.397-2.159 1.206s-.508-1.926 1.566-2.455 3.682.064 3.682.064.138-.311.125-.484c0 0-.291-.128-.332-.484 0 0-.16.004-.274-.075 0 0-.118.357-.673.233-.444-.099-.411-.545-.411-.545l-.593-.233s-.137.485-.72.36c-.54-.116-.466-.677-.466-.677l-.593-.085s-.127.466-.572.423-.487-.529-.487-.529l-.572-.021s-.186.414-.508.444c-.561.053-.508-.614-.762-.593s-.141.531-.55.614c-.352.071-.508-.381-.635-.317s-.011.36-.286.487-.412-.021-.412-.021.042.339-.148.487-.381.064-.381.064.188.205.127.55c-.063.36-.317.381-.317.381s.201.402-.053.719-.498.169-.498.169c.254 1.037 1.185 1.863 1.693 1.715s.709-1.069.233-1.566c-.621-.649-.063-1.058.212-.889-.127-.508.762-.699 1.101.169s.275 2.329-.868 2.794-1.937-.371-1.937-.371.383.394.127 1.006c-.349.847-2.646.836-2.561-2.985.087-3.922 3.57-4.308 5.26-4.445 3.415-.276 6.358 1.099 7.851 1.556 0 0-.268-.628.382-1.091-6.583-4.762-5.932-7.005-5.197-7.408.773-.423 1.281.127 1.408.846-.085.804-.487.444-.317 1.482s2.582 2.9 2.582 2.9-2.095-2.836-2.137-6.519.973-5.355 1.693-5.059.222.833.687.96.638-.409 1.297-.174c.415.148.431.618.431.618s1.348-.237 1.945-.022c1.363.492 2.815 1.92 3.006 4.905s-1.545 4.36-3.365 3.556-2.762-3.441-2.069-4.366c.359-.479 1.153-.495.973 1.119-.236 2.125 1.752 3.162 2.916 2.612s1.275-2.506.868-4.487c.072 1.191-.064 2.963-1.016 3.683s-2.286.064-2.455-1.482 1.304-1.677 1.482-1.164c.23.665-.749.845-.36 1.735.385.881 1.799.593 1.99-1.778s-1.757-3.831-1.376-3.492c.396.518.105.889.105.889.745.396.487 1.228.487 1.228-.169-.381-.402-.233-.572-.424s-.169-.487-.169-.487-.3-.01-.423-.105c-.284-.218-.278-.359-.278-.359s-.114-.079-.212.017c0 0-.068.415-.594.355-.451-.052-.267-.413-.648-.349s-.194.379-.575.569-.741 0-.741 0 .305.385-.113.894c-.322.392-.582-.016-.775.306-.141.235.132.381.105.739-.065.873-.615.6-.488 1.087s.466.254.677.783-.445.698-.212 1.143.402.021.635.508-.106.783.127 1.164.55.021.846.233.127.826.508 1.101.591-.124.909-.019.255.759.594.844.42-.421.801-.378.321.618.723.596.3-.532.851-.489.346.463.719.5c.286.028.065-.595.688-.667.64-.074.381.438.926.338.301-.055.073-.507.715-.666.55-.136.711.402.921.348.504-.129.127-1.08 1.157-.802.69.186.966-.114.415-1.744-2.244 1.291-3.704.296-3.958-.466s.445-1.968 1.376-1.566 1.016 1.27.529 1.439-.571-1.016-1.037-.72-.254 1.143.402 1.291c1.983.448 2.963-.656 2.963-.656s-1.439-.678-1.101-2.223c-.974-.508-.381-1.376-.381-1.376s-5.08-2.604-5.143-5.207c-.042-1.016.466-2.117 1.503-2.095zm-.122.36c-.209.004-.479.102-.735.466-.455.646-.359 1.524.159 2.445s1.714 1.83 1.714 1.83-.953-.963-1.365-2.297c-.295-.954-.19-1.767.18-1.915s.719.148.719.148-.013-.408-.328-.592c-.056-.032-.182-.088-.345-.085zm2.229.476c-.571-.011-1.384.865-1.164 2.159.193 1.133 1.227 1.947 1.227 1.947-.942-1.259-1.016-1.947-.836-2.72s.571-.878.868-.762.317.349.423.254.053-.868-.518-.878zm-1.852.442c-.27-.003-.448.245-.307.997.18.963.277 1.447 1.513 2.645 2.423 2.349 4.032 2.381 4.032 2.381s-.73-.392-1.545-1.185c-1.164-.413-1.662-.719-2.402-1.492s-.984-1.46-.857-2.233c.107-.651.103-.94-.19-1.058a.68.68 0 0 0-.243-.055zm6.325.814c-.196-.005-.384.051-.494.13-.418.302-.444.709-.444.709s.311-.266.582-.296.497.032.645.243c.198.282.169.466.169.466s.392-.222.201-.794c-.11-.33-.391-.451-.659-.458zm-14.049.732c-.383-.014-.686.871-.908 1.814-.254 1.078-.165 2.365-.165 2.365l.659-2.185c.284-.763 1.047-1.601.583-1.931-.058-.041-.114-.062-.169-.064zm1.831.543c-.298-.005-.821.293-1.198.583-.524.404-.793 1.407-.793 1.407s.664-1.064 1.497-1.317c.253-.077.808-.105.718-.509-.025-.114-.107-.162-.224-.164zm1.734.548a4.04 4.04 0 0 0-1.466.274c.022.12.105.3.105.3.202.056.336.248.336.248.157.046.517-.075.517-.075s.172-.434.591-.404.531.426.531.426l.15.015s.043-.425.479-.449l.015-.067s-.474-.261-1.258-.267zm-2.154.649s-.486.202-.718.629c.06.18.187.202.187.202s.195-.195.464-.053c-.037-.359.224-.546.224-.546v-.001c.003-.008.025-.077-.158-.232zm3.465.09c-.136 0-.247.12-.247.269s.11.27.247.27.247-.121.247-.27-.111-.269-.247-.269zm-1.25.015a.27.27 0 0 0-.269.269.27.27 0 0 0 .269.27.27.27 0 0 0 .27-.27.27.27 0 0 0-.27-.269zm8.04.056c-.073-.001-.146.03-.217.101-.413.413.497 1.524 1.281 2.032s2.053.466 2.053.466-1.418-.561-2.085-1.46c-.304-.41-.678-1.135-1.032-1.138zm-9.566.109c-.149 0-.269.127-.269.284s.121.284.269.284.27-.127.27-.284-.121-.284-.27-.284zm-1.811.748s-.47.487-.606 1.369c.072.152.254.104.254.104s.081-.188.449-.172c.119.005.195-.351.195-.351s-.247-.352-.12-.756c0-.187-.172-.194-.172-.194zm12.989.113c-.009 0-.016.003-.019.009-.16.287 1.746 1.175 3.08 1.64s2.889 1.799 2.889 1.799c.127-.169.232-.144.212-.252-.499-.702-1.395-1.263-3.489-1.976-2.268-.772-2.534-1.225-2.674-1.221zM12.437 16c-.136 0-.247.131-.247.292s.111.291.247.291.246-.131.246-.291-.11-.292-.246-.292zm-.831 1.482c-.14 0-.254.144-.254.322s.114.321.254.321.254-.144.254-.321-.114-.322-.254-.322zm11.239.068c-.198.519.014.712.269.872.285-.192.61-.543 2.049-.733h-1.437c-.395-.001-.641-.051-.882-.138zm8.34.061c-.118-.002-.18.165-.18.396 0 .344.258.533.258.533s.389-.509.134-.793c-.084-.093-.154-.134-.212-.135zm-4.955.233c-.985-.005-1.992.244-2.464.776-.656.741-.275 2.159.974 2.032s1.333-1.461.931-1.693-.847-.053-1.037.317c.088-.64.493-.812.846-.836.359-.024 1.006.285 1.069 1.206 1.651-1.206 3.634-.182 3.634-.182s-1.613-1.225-2.841-1.5c-.345-.077-.728-.118-1.113-.12zm-12.197.124c-.275-.009-.402.526-.332 1.102.12 1.362 1.197 2.11 1.197 2.11s-.554-.689-.659-1.631.165-1.482-.149-1.571c-.02-.006-.039-.009-.057-.009zm-3.436.054c-.219.03-.054 1.721.784 3.727s2.163 3.195 2.32 3.054c.231-.208-1.153-1.662-1.781-2.994-1.09-2.311-1.122-3.77-1.322-3.787zm4.982.401c-.219-.009-.396.541-.367.779.06.494.464.718.464.718s-.181-.477-.12-.778c.048-.236.359-.509.105-.688-.028-.02-.055-.029-.082-.03zm16.079.191c-.021-.002-.041.004-.061.018-.779.545 3.702 2.858 6.435 4.995.257.201-.074-.603-.074-.603l-3.259-2.074c-2.451-1.537-2.833-2.314-3.04-2.335zm-22.846.232c-.307.003-.523.39-.379.419.108.022.257-.303.579-.12.107.061.172.273.309.141.039-.038.121-.371-.462-.438a.36.36 0 0 0-.046-.003zm-.03.453c-.582.024-.418 1.926 1.269 3.492a24.28 24.28 0 0 0 2.709 2.159l-2.349-2.159c-2.274-2.126-.593-3.154-1.503-3.472a.34.34 0 0 0-.126-.021zm2.944.086c-.165 0-.299.158-.299.352s.134.352.299.352.299-.158.299-.352-.134-.352-.299-.352zm19.396.02c-.804.677-.414.902-1.112 1.863-.53.73-.868.804-1.566 1.037.656.296 4.064-.889 9.779 2.392 0 0 .085-.392-.127-.593-5.113-3.972-6.36-3.99-6.974-4.699zm-2.534.328c-.607-.001-1.3.162-1.881.731.374.224.239 1.571.928 1.706.629-.075 1.646-.524 2.021-1.167.34-.586.434-.958.434-.958s-.67-.31-1.502-.312zm-2.586 1.144c-.278-.009-.605.392-1.542.312-.104.161-.383.303-.383.303.003.474.229.654.229.654s.169-.131.434-.025a.55.55 0 0 1 .307.407s.487-.392 1.661-.307c-.404-.442-.276-1.128-.535-1.277a.29.29 0 0 0-.172-.066zm-13.512.424c-.14 0-.254.138-.254.307s.114.307.254.307.254-.138.254-.307-.114-.307-.254-.307zm27.339.449a.94.94 0 0 0-.178.018c-.874.173-1.191 1.011-1.191 1.011s.065.177.227.213c.173-.322.632-.695 1.051-.77.762-.136 1.398.261 1.398.261s-.613-.736-1.307-.733zm-15.41.763c-.124 0-.225.107-.225.24s.101.239.225.239.224-.107.224-.239-.1-.24-.224-.24zm2.082.051c-.263 0-.557.023-.84.092-.823.202-1.018.666-.875.898s.764.314.808-.134c.022-.22-.269-.18-.269-.18s.187.075.03.21-.367-.105-.232-.24.629-.172 1.07-.127c.849-.18 1.205-.434 1.205-.434s-.393-.084-.896-.084zm3.815.088c-.28-.001-.617.023-.988.101-.052.18-.015.366-.015.366s.374-.12.808.247c.374-.329.891-.187.943-.262s.067-.366.067-.366-.317-.083-.815-.086zm1.368.118c4.445 1.376 6.244 3.852 6.244 3.852s.262-.231.434-.688c-.131-.276-.159-.582-.18-.836s-4.043-2.159-6.498-2.328zm-3.112.048s-.606-.004-1.526.512c-.044.176.128.402.128.402.149.015.412-.049.803.158.235-.567.623-.741.652-.818.032-.085-.056-.254-.056-.254zm-15.01.099c-.153 0-.277.124-.277.277s.124.277.277.277.277-.124.276-.277-.124-.277-.276-.277zm24.731.189c-.026-.002-.038.006-.038.006-.006.162.07.575.192.727-.042-.434.097-.553.097-.553-.128-.144-.209-.176-.252-.179zm-11.62.332c-.5.078-.885.111-1.348.533a.76.76 0 0 0 .135.316s.418-.08.814.146c.215-.465.592-.577.592-.577.015-.17-.194-.418-.194-.418zm2.477.048c-.397 0-.719.328-.719.733s.322.734.719.733.718-.328.718-.733-.322-.733-.718-.733zm1.736.045c-.38 0-.688.315-.688.703s.308.703.688.703.688-.315.688-.703-.308-.703-.688-.703zm7.943.107c-.226.412-.007.51-.067 1.202.258.012.428-.081.658-.229-.273-.322-.591-.973-.591-.973zm-15.741.117c-.149 0-.269.134-.269.299s.12.3.269.3.269-.134.269-.3-.121-.299-.269-.299zm17.81.12c-.132 0-.24.1-.24.224s.107.225.24.225.239-.101.239-.225-.107-.224-.239-.224zm-8.074.015c-.442 0-.801.315-.801.703s.359.703.801.703.8-.315.8-.703-.358-.703-.8-.703zm-17.81.224c-.137 0-.247.121-.247.27s.111.269.247.269.247-.12.247-.269-.11-.27-.247-.27zm9.917.043c-.498.126-.811.175-1.257.619.009.131.113.306.113.306s.272-.098.652.028c.171-.533.59-.671.59-.671.012-.091-.098-.282-.098-.282zm-3.511.032c-.169 0-.307.134-.307.299s.137.3.307.3.307-.134.306-.3-.137-.299-.306-.299zm6.024.105c-.388 0-.703.315-.703.703s.315.703.703.703.703-.315.703-.703-.315-.703-.703-.703zm-7.782.194c-.141 0-.255.121-.255.27s.114.269.255.269.254-.121.254-.269-.114-.27-.254-.27zm-3.098.09c-.141 0-.255.107-.255.24s.114.239.255.239.254-.107.254-.239-.114-.24-.254-.24zm1.594.06c-.153 0-.277.117-.277.262s.124.262.277.262.277-.117.277-.262-.124-.262-.277-.262zm7.476.224c-.389 0-.704.332-.704.741s.315.741.704.741.703-.332.703-.741-.315-.741-.703-.741zm4.46.06s-.359.449-.838.449-.778-.269-.778-.269-.074.727-.733.936-1.093-.218-1.093-.218-.061.689-.658.874c-.673.21-1.003-.096-1.003-.096s-.105.539-.674.748-1.048-.179-1.048-.179-.074.613-.643.688c-.844.111-.929-.284-.929-.284s.094.519-.793.703c-.718.15-1.018-.389-1.018-.389s-.075.508-.808.508c-.539 0-.718-.449-.718-.449s-.299.449-.838.389-.688-.539-.688-.539-.449.419-1.018.329-.778-.628-.778-.628-.037.456-.598.538c.516.329.389.823.389.823l.479.225s.209-.569.748-.359.344.905.344.905l.344.232s.388-.459.838-.217c.523.281.299.845.299.845l.479.21s.359-.659.898-.3.359 1.018.359 1.018l.359.239s.399-.512.838-.269c.667.368.209 1.018.209 1.018l.449.389s.382-.554.898-.299c.64.316.419.988.419.988l.239.089s.539-.419 1.018-.03.366.726.366.726l.435.187s.269-.471.785-.224c.593.284.337.823.337.823l.381.254s.394-.469.959-.023c.473.373.178.861.178.861l.374.269s.357-.532.788-.349c.666.283.364.963.364.963l.299.164s.308-.634.808-.449c.511.216.419.718.419.718l.539.12s.058-.527.538-.509c.629.06.569.659.569.659l.479-.09s.06-.658.598-.628.539.568.539.568l.299-.12s.269-.838.808-.808.628.539.628.539l.509-.09s.12-.808.688-.808.389.36.808.3.075-.658.808-.748c.446-.055.718.419.718.419s-.036-.433.449-.763c.325-.221.703-.164.703-.164s-.363-.681-.059-1.646c.266-.845 1.092-.988 1.092-.988-.09-.329 0-.808 0-.808s-.778.179-1.137-.569c-.348-.725.03-1.287.03-1.287s-.49.314-1.033-.09c-.643-.479-.374-.988-.374-.988s-.644.315-1.227-.209c-.464-.416-.389-1.078-.389-1.078s-.613.404-1.242-.104-.554-.958-.554-.958-.659.165-1.227-.224-.479-.838-.479-.838-.509.329-1.107.149-.898-.628-.898-.628-.239.329-.808.209-.718-.359-.718-.359zm-6.744.005c-.554.045-.768.079-1.24.509.021.186.091.286.091.286s.098-.08.64.09c.218-.448.615-.606.615-.606-.012-.137-.106-.28-.106-.28zm11.436.01c-.426 0-.771.302-.771.674s.345.673.771.673.77-.302.77-.673-.345-.674-.77-.674zm4.703.033c-.455.001-.722.212-.722.212s-.085.508.328 1.175c.333.538.977 1.072 1.028 1.114-.041-.041-.21-.238-.266-.796-.078-.769.305-.933-.192-1.694-.061-.007-.12-.01-.176-.01zm-24.731.35c-.086-.001-.179.015-.284.058-.417.171-.144.486-.144.486s.553.028.846.503c.275-.364.671-.304.671-.304.064-.065.053-.319.053-.319-.493.011-.729-.419-1.143-.425zm9.147.171c-.392 0-.71.338-.711.756s.318.756.711.756.711-.338.711-.756-.318-.756-.711-.756zm-2.076.037c-.471.019-.674-.026-1.173.251a.83.83 0 0 0 .036.319s.32-.042.652.151c.297-.401.544-.433.544-.433.035-.084-.059-.288-.059-.288zm18.409.11s-.127.508-.095 1.016c.025.398.265.857 1.545 2.286.698-.18.475-1.365-.381-1.555-1.143-.195-.959-1.148-1.069-1.746zm-23.591.101a1.91 1.91 0 0 0-.407.042c-.071.173-.053.3-.053.3s.464 0 .709.325c.28-.225.568-.209.568-.209.06-.069.01-.299.01-.299-.435-.052-.559-.151-.827-.158zm3.306.036a2.41 2.41 0 0 0-.742.107c-.052.18-.052.309-.052.309s.39.018.649.273c.374-.329.631-.325.631-.325.052-.075.009-.319.009-.319-.192-.026-.349-.042-.495-.044zm20.582.001s-.035.718.328 1.058c.328.307.889.264 1.281.688 0 0-.021-.346-.561-.974-.392-.455-1.047-.773-1.047-.773zm-22.389.03c-.119-.002-.26.018-.45.084-.052.18-.004.309-.004.309s.39-.025.649.279c.374-.329.541-.262.541-.262.052-.075.009-.314.009-.314-.328.022-.484-.091-.746-.095zm18.333.194a.73.73 0 1 0 0 1.467.73.73 0 0 0 .726-.733.73.73 0 0 0-.726-.733zm-31.114.045c-.3.007-.578.067-.578.067s-.12.052-.037.351c.337.045.397.292.397.292s.174.031.291-.022c.013-.165.105-.298.247-.367.044-.168-.022-.307-.022-.307a1.89 1.89 0 0 0-.298-.014zm.844.007s-.105.097-.023.299c.299.015.404.412.404.412l.531.007s.016-.254.285-.374c.035-.168-.023-.292-.023-.292-.449-.052-1.175-.052-1.175-.052zm16.126.052c-.376 0-.681.315-.681.703s.304.704.681.704.681-.315.681-.704-.305-.703-.681-.703zm-14.524.068h-.001s-.082.179.007.284c.449.157.427.471.427.471.014 0 .413.102.576.09.122-.296.389-.307.389-.307.052-.165 0-.314 0-.314-.501-.232-1.399-.224-1.399-.224zm-3.72.058c-.307.004-.674.159-.674.159s-.083.17.09.359c.24-.008.367.194.367.194s.043.079.202-.015c-.037-.254 0-.284.164-.471.022-.105-.022-.217-.022-.217a.75.75 0 0 0-.127-.009zm10.147.099a.61.61 0 0 0-.606.613.61.61 0 0 0 .606.614.61.61 0 0 0 .606-.614.61.61 0 0 0-.606-.613zm24.36.018l-.413.518s1.037-.053 1.207 1.164a1.31 1.31 0 0 1 1.006.265c.333.277.526.592.496.955.255.035.361-.119.361-.119s-.093-.585-1.545-1.524c-.718-.465-1.111-1.259-1.111-1.259zm-28.932.132s-.097.06-.015.3c.314.09.389.456.389.456s.305.208.621.239c.09-.217.299-.262.299-.262l.007-.321c-.395-.21-.76-.284-1.302-.412zm6.278.045c-.343 0-.621.275-.621.614s.278.613.621.613.621-.275.621-.613-.278-.614-.621-.614zm4.827.015c-.388 0-.703.315-.703.703s.315.704.703.704.704-.315.703-.704-.315-.703-.703-.703zm-3.151.15a.61.61 0 0 0-.606.613.61.61 0 0 0 .606.614.61.61 0 0 0 .606-.614.61.61 0 0 0-.606-.613zm-11.614 0c-.169 0-.307.144-.307.321s.137.322.307.322.307-.144.307-.322-.138-.322-.307-.321zm13.073.03c-.355 0-.643.292-.643.651s.288.65.643.651.644-.291.644-.651-.288-.651-.644-.651zm-11.434.06c-.165 0-.299.137-.299.306s.134.307.299.307.299-.138.299-.307-.134-.306-.299-.306zm-3.068.044c-.149 0-.269.124-.269.277s.12.277.269.277.269-.124.269-.277-.12-.277-.269-.277zm-2.054.112c-.315-.015-1.38.912-1.706 1.804-.36.984-.159 2.413.878 3.09.212-.37.529-.201.529-.201s-.857-1.006-.667-2.286 1.196-2.127 1.037-2.37c-.015-.023-.039-.035-.072-.036zm8.751.038c-.105.082-.052.284-.052.284s.449.067.479.509c.172.112.389.112.389.112s.157-.209.396-.194c.15-.127.075-.337.075-.337s-.763-.329-1.287-.374zm-7.775.045c-.141 0-.255.12-.255.269s.114.27.255.27.254-.121.254-.27-.114-.269-.254-.269zm5.882.06c-.165 0-.299.131-.299.292s.134.291.299.291.299-.13.299-.291-.134-.292-.299-.292zm28.878.119c-.401 0-.726.332-.726.741s.325.741.726.741.726-.332.726-.741-.325-.741-.726-.741zm-25.441.208s-.116.116 0 .328c.467.124.402.625.402.625s.2.134.317.095c.065-.328.519-.455.519-.455-.605-.11-.532-.5-1.238-.592zm-1.656.136a.3.3 0 0 0-.299.299.3.3 0 0 0 .299.299.3.3 0 0 0 .3-.299.3.3 0 0 0-.3-.299zm-8.284.059c-.137 0-.247.114-.247.255s.111.254.247.254.247-.114.247-.254-.11-.255-.247-.255zm39.984.035c-.282-.01-.437 1.021-.465 2.166a6.21 6.21 0 0 0 .569 2.275s-.36-1.108-.33-2.066c.09-1.916.521-2.209.3-2.35-.026-.016-.05-.024-.074-.025zm.806.15c-.257 0-.466.218-.466.487s.208.487.466.487.466-.218.466-.487-.208-.487-.466-.487zm-31.083.16a.31.31 0 0 0-.314.306.31.31 0 0 0 .314.307.31.31 0 0 0 .314-.307.31.31 0 0 0-.314-.306zm-10.207.434c-.132 0-.24.134-.24.3s.107.299.24.299.239-.134.239-.299-.107-.3-.239-.3zm37.364.045c-.384 0-.696.312-.696.696s.311.696.696.696.696-.312.696-.696-.312-.696-.696-.696zm-25.615.075a.3.3 0 0 0-.299.299.3.3 0 0 0 .299.3.3.3 0 0 0 .299-.3.3.3 0 0 0-.299-.299zm-1.003.142c-.112.172-.419.262-.419.262s-.172.097-.104.501a5.32 5.32 0 0 1 1.16.472s.157-.225.09-.502c-.404-.224-.344-.553-.344-.553s-.135-.18-.382-.18zm2.702.382c-.161 0-.292.151-.292.337s.131.336.292.336.292-.151.292-.336-.131-.337-.292-.337zm-1.122.187s-.202.254-.404.232-.18.628-.18.628l1.182.614c-.083-.37.091-.6.12-.719 0 0-.307-.202-.247-.546-.202-.187-.471-.209-.471-.209zm-12.512.037c-.128 0-.232.128-.232.285s.104.284.232.284.231-.127.232-.284-.103-.284-.232-.285zm2.553.021c-.027 0-.051.007-.073.021-.265.169.097.335.201.783.169.73.021 1.27.021 1.27s.444-.476.381-1.111c-.061-.61-.342-.96-.53-.963zm37.316.01s-.36.233-.582.201c.349.116.561.476.561.476a3.89 3.89 0 0 1 .021-.677zm-32.309.109c-.083 0-.166.001-.249.003-.794.025-1.975.398-2.507 1.182-.282.416-.179.966.517.337s2.133-1.199 3.636-.958c2.469.397 3.372 1.078 3.443.98.097-.135-2.276-1.533-4.84-1.545zm-5.543.282c-.151-.005-.212.253-.056.403a2.35 2.35 0 0 1 .444.646s.053-.646-.211-.942c-.066-.074-.127-.105-.177-.107zm13.092.155c-.194 0-.352.152-.352.341s.158.341.352.341.351-.153.351-.341-.157-.34-.351-.341zm23.781.038c-.413 0-.748.355-.748.793s.335.793.748.793.748-.355.748-.793-.335-.793-.748-.793zm-24.89.075s-.059.133-.337.159c-.282.309-.229.717-.229.717l1.227.603c.149-.294.05-.631.05-.631-.206-.117-.266-.303-.275-.558-.074-.18-.435-.29-.435-.29zm-5.591.251a2.38 2.38 0 0 0-.125.004c-.644.037-1.182.367-1.07.666s.697.141 1.1-.045c.763-.352 1.594-.404 1.594-.404s-.861-.224-1.499-.221zm8.328.528c-.175 0-.318.164-.318.366s.142.367.318.367.318-.164.318-.367-.143-.367-.318-.366zm-6.002.058c-.082.024-.488.492-.609.959-.236.91.014 1.003.014 1.003s.397.277.487.165-.165-.546-.098-1.1.275-.965.217-1.025zm4.784.019s-.148.159-.371.159c-.159.275-.076.659.286.815.783.339.91-.127.91-.127s-.359-.085-.306-.614c-.222-.169-.519-.233-.519-.233zm-17.134.053s.55 1.609 1.207 1.683.591-.574.36-.604c-.328-.042-.116.265-.561.212S.569 30.842.569 30.842zm12.875.012c-.164-.011-.444.463-.483.866-.042.444.042 1.228.328 1.207s-.266-.349.032-1.281c.116-.364.337-.628.169-.773-.014-.012-.03-.019-.046-.02zm.93.399c-.374-.002-.603.271-.732.656-.147.441-.007 1.032.688 1.018.485-.01.404-.658.404-.658s-.569-.03-.419-.33.629-.133.748.3-.119.808-.119.808 2.245.748 2.499.359-1.796-1.616-2.514-1.991c-.213-.111-.398-.161-.556-.162zM.547 31.53s.527 1.876 1.482 1.641c.688-.169.438-.761.222-.561-.275.254-.731.179-1.09-.169-.442-.428-.614-.911-.614-.911zm18.745.229c-.1-.003-.176.028-.211.087-.073.123.046.33.267.461s.459.139.533.017-.046-.33-.267-.461c-.106-.063-.222-.101-.321-.104zm1.2.001c-.18 0-.326.152-.326.341s.146.341.326.341.326-.152.326-.341-.146-.341-.326-.341zm21.563.075c-.277 0-.501.218-.501.486s.224.486.501.486.502-.218.502-.486-.225-.486-.502-.486zm-24.597.157c-.182 0-.329.156-.329.348s.147.348.329.348.329-.156.329-.348-.147-.348-.329-.348zm.546.673c-.182 0-.329.151-.329.337s.147.336.329.336.33-.15.33-.336-.148-.337-.33-.337zm.962.045c-.2 0-.363.179-.363.4s.163.4.363.4.363-.179.363-.4-.163-.401-.363-.4zm1.825.006a.29.29 0 0 0-.05.005c-.041.008-.077.026-.105.052-.117.109-.072.337.1.508s.407.223.525.114.072-.337-.1-.508c-.111-.11-.251-.173-.37-.171zm1.239.091c-.19 0-.344.168-.344.374s.154.374.344.374.344-.168.344-.374-.154-.374-.344-.374zm-2.136.284c-.145 0-.263.12-.263.268s.118.269.263.269.264-.12.264-.269-.118-.268-.264-.268zm21.53.005s-1.343.216-.938 2.331a.54.54 0 0 1 .213.39s.202-.108.409.057c-.067-.338.021-.628.316-.776.266-.134.927-.091.989.497.634-.03 1.111.914 1.111.914s.353-1.206-1.051-2.073c-.5-.309-.59-.714-.455-1.066-.496.027-.594-.273-.594-.273zm1.379.055c-.228 0-.412.198-.412.442s.185.441.412.441.411-.198.411-.441-.184-.442-.411-.442zm-30.026.71c.053.177.083.245-.004.426-.052.107.061.223.15.234s.212-.085.171-.196c-.079-.212-.113-.246-.013-.428.083-.151-.101-.21-.15-.209-.085.002-.184.07-.154.173zm1.09-.003c.068.172.063.299-.054.458-.076.103.041.249.138.273s.262-.091.21-.208c-.095-.211-.091-.308.008-.457s-.06-.22-.113-.229c-.096-.017-.227.066-.189.163zm-5.454-.116c-.442.026-1.544.492-2.151.772-.762.351-2.335 1.018-2.125 1.347s1.198-.387 2.245-.898c1.041-.508 2.335-.928 2.215-1.167-.015-.03-.051-.047-.104-.052-.023-.002-.05-.003-.08-.001zm5.07.038c-.153 0-.277.134-.277.299s.124.299.277.299.277-.134.277-.299-.124-.299-.277-.299zm-1.85.201a.34.34 0 0 1 .04.41c-.045.106.089.208.187.207s.222-.108.166-.208c-.106-.19-.114-.261-.058-.41.059-.159-.132-.197-.182-.183-.091.025-.214.092-.152.184zm.773-.186c-.141 0-.255.147-.255.329s.114.329.255.329.254-.147.254-.329-.114-.329-.254-.329zm2.717.003c-.081.001-.206.06-.186.158.048.231.07.295-.114.46-.098.088.017.26.121.298s.301-.038.257-.162c-.092-.265-.026-.339.094-.468.132-.143-.013-.288-.173-.286zm5.192.012c-.186 0-.337.149-.337.333s.151.333.337.333.337-.149.337-.333-.151-.333-.337-.333zm2.215.03s-.419.554-1.003.015c.12.629-.419.763-.419.763s.744.614 1.811.538l.15-.434s-.344-.239-.209-.688c-.195-.165-.33-.194-.33-.194zm1.112.007a.33.33 0 0 0-.333.326.33.33 0 0 0 .333.326.33.33 0 0 0 .333-.326.33.33 0 0 0-.333-.326zm-9.088 0c-.145 0-.262.127-.262.284s.117.285.262.285.262-.128.262-.285-.117-.284-.262-.284zm-4.016.236c.124.16.115.218.031.41-.046.105.086.209.184.211s.231-.107.171-.205c-.127-.21-.132-.282-.05-.411.092-.143-.111-.223-.19-.209s-.213.119-.147.204zm.738-.138c-.132 0-.239.136-.239.303s.107.303.239.303.239-.136.239-.303-.107-.303-.239-.303zm4.688.714c-.108.095.031.281.148.317s.295-.046.276-.189c-.033-.243-.095-.348.081-.513.095-.089-.023-.282-.136-.292-.342-.031-.03.319-.368.676zm-5.776-.609c-.138 0-.251.134-.251.299s.112.3.251.3.251-.134.251-.3-.112-.299-.251-.299zm5.451.038c-.161 0-.291.122-.291.273s.13.273.291.273.292-.122.292-.273-.131-.273-.292-.273zm-6.236.219c.123.111.139.23.068.396-.03.105.104.19.2.182s.209-.12.147-.21c-.126-.184-.149-.26-.087-.394.071-.153-.123-.203-.201-.189s-.198.152-.128.215zm7.727.054c.015.25.085.235-.067.512-.07.126.051.278.171.305s.287-.066.261-.208c-.064-.35-.088-.245.044-.517.019-.174-.064-.227-.163-.283-.051-.029-.259-.017-.246.191zm-.342-.078c-.134 0-.243.126-.243.281s.109.28.243.281.243-.126.243-.281-.109-.281-.243-.281zm1.731.01c-.096.015-.179.082-.205.195-.044.193.086.235-.067.512-.07.126.051.279.17.306s.283-.065.261-.208c-.038-.256-.037-.343.044-.517.088-.19-.084-.307-.205-.288zm-9.465.05c-.124 0-.224.129-.224.288s.1.288.224.288.225-.129.225-.288-.101-.288-.225-.288zm8.838.03c-.145 0-.262.127-.262.284s.117.284.262.284.262-.127.262-.284-.117-.284-.262-.284zm-9.644.299c.099.083.176.192.164.368-.008.112.154.167.253.14s.188-.162.106-.238c-.172-.161-.181-.21-.184-.363-.002-.137-.168-.169-.247-.151s-.204.149-.092.244zm17.124-.142c-.184 0-.333.151-.333.337s.149.336.333.336.333-.151.333-.336-.149-.337-.333-.337zm-5.815.061a.26.26 0 0 0-.078.014c-.15.06-.449.224-.239 1.018.599-.554 1.046-.402 1.047-.613.003-.301-.503-.431-.73-.418zm-11.602.133c-.128 0-.232.141-.232.315s.104.314.232.314.232-.141.232-.314-.104-.315-.232-.315zm16.241.015c-.021-.001-.032 0-.032 0s-.292.3-.591.195c-.135.359-.062.64.419.815.718.262.831-.291.831-.291s-.18-.292-.15-.517c-.253-.168-.413-.198-.477-.202zm-17.072.374c.181.076.178.15.161.337-.01.104.144.151.232.124s.159-.15.085-.223c-.136-.134-.187-.189-.178-.332s-.165-.163-.231-.138-.184.183-.069.231zm6.609-.095c-.427-.004-.855.027-1.198.125-.628.18-.519.585.284.374 1.385-.365 2.784-.314 2.784-.314s-.931-.177-1.87-.185zm-6.878.14c-.116 0-.21.132-.21.296s.094.296.21.296.209-.132.209-.296-.094-.295-.209-.296zm-.726.405a.51.51 0 0 1 .161.337c.014.103.143.151.231.124s.159-.149.085-.223c-.119-.119-.123-.239-.14-.362-.021-.146-.175-.155-.241-.124s-.176.165-.096.248zm35.635-.165c-.19 0-.344.194-.344.434s.154.434.344.434.344-.194.344-.434-.154-.434-.344-.434zm-21.179.004c-.389-.015-1.248.564-.989.786.296.254 1.291-.508 1.122-.741-.032-.029-.078-.043-.133-.045zm-17.268.04c-.284.014-.929.687-1.246 1.064-.344.408-1.005 1.28-.762 1.418s.552-.519 1.069-1.175c.499-.632 1.228-1.048 1.037-1.27-.024-.028-.057-.039-.098-.037zm22.402.017s-.15.194-.471.164c-.187.374-.12.606.239.86s.763-.202.763-.202-.194-.209-.074-.501c-.165-.105-.457-.321-.457-.321zm1.142.029c-.192 0-.348.156-.348.348s.156.348.348.348.348-.156.348-.348-.156-.348-.348-.348zm-20.965.173c-.128 0-.232.13-.232.291s.104.292.232.292.232-.131.232-.292-.104-.291-.232-.291zm16.115.028c-1.104-.011-1.623.499-1.545.623.105.165.658-.329 2.26.09.924.242 1.601.629 2.275 1.137.808-.12 1.362.06 1.362.06s-1.063-1.078-3.054-1.691c-.498-.153-.931-.215-1.299-.219zm17.912.054c-.207 0-.374.171-.374.381s.167.382.374.382.374-.171.374-.382-.168-.381-.374-.381zm2.551.172c-.075.458-.408.401-.365.673.394-.079.788-.051 1.25.067-.331-.413-.592-.732-.884-.741zm-37.282.247c.104.095.165.175.161.337-.003.104.144.151.232.124s.159-.149.085-.223c-.121-.121-.155-.197-.178-.332s-.155-.157-.223-.135-.171.142-.076.229zm35.679-.096c-.045.003-.091.014-.14.032-.123.252-.049.563-.673.782 0 0 1.059-.25 1.478-.265.007-.098-.043-.192-.043-.192a.49.49 0 0 1-.287-.245.47.47 0 0 0-.335-.112zm-2.467.2c-.203 0-.367.161-.367.36s.164.359.367.359.366-.161.366-.359-.164-.36-.366-.36zm-33.469.015c-.126 0-.228.138-.228.307s.102.307.228.307.228-.137.228-.307-.102-.307-.228-.307zm23.513.105c-.18 0-.326.146-.326.326s.146.326.326.326.326-.146.326-.326-.146-.326-.326-.326zm-1.183.087s-.213.201-.457.127c-.165.284-.229.832.272 1.049.561.243.831-.373.831-.373s-.255-.187-.181-.441c-.201-.169-.466-.362-.466-.362zm11.91.168c-.128.3-.216.572-.625.778.82-.378 1.119-.434 1.119-.434s-.285-.03-.494-.344zm-20.01.059c-1.856.479-3.308.883-4.475 1.661-.38.253-.329.853.434.269s4.041-1.931 4.041-1.931zm17.653.05c-.231 0-.419.181-.419.404s.188.404.419.404.419-.181.419-.404-.188-.404-.419-.404zm-1.943.341c-.191 0-.347.176-.347.392s.155.392.347.392.347-.176.347-.392-.155-.392-.347-.392zm-4.96.141c-.196 0-.355.161-.356.359s.159.359.356.359.356-.161.356-.359-.159-.359-.356-.359zm-1.135.164s-.235.194-.511.067c-.254.593-.12.897.25 1.085.667.339.719-.36.719-.36s-.222-.222-.127-.55c-.159-.18-.332-.242-.332-.242zm4.453.038c-.14 0-.254.164-.254.366s.114.367.254.367.255-.164.255-.367-.114-.367-.255-.366zm-1.631.052c-.182 0-.329.153-.329.341s.147.34.329.341.33-.152.33-.341-.148-.341-.33-.341zm-27.078 0c-.233 0-.423.211-.423.471s.189.471.423.471.423-.211.423-.471-.189-.471-.423-.471zm10.78.007s-1.234.285-1.751.539c-.823.404-1.766.763-1.482 1.227s1.265-.339 1.796-.733c.618-.459 1.437-1.033 1.437-1.033zm20.67.054c-.14-.001-.454.047-.735.44-.374.524-.179 1.182-.179 1.182s-.669-.545-.748 0c-.133.909.873.409 1.407.075.359-.224.688-.524 1.212-1.137-.718.135-.883-.554-.883-.554s-.027-.005-.073-.006zm-10.631.398c-.821-.005-2.077 1.002-1.823 1.314.269.329.494-.18.868-.509s1.092-.793 1.092-.793c-.044-.007-.09-.011-.138-.011zm-8.363.071s-1.798.928-1.976 1.497c-.224.718.156 1.569.674 1.362.423-.477-.517-.562-.24-1.392.178-.533 1.541-1.467 1.541-1.467zm15.401.015c-.149 0-.27.137-.27.307s.121.307.27.306.269-.137.269-.306-.12-.307-.269-.307zm-5.621.071c-.139 0-.236.023-.26.068-.074.138.63.677 1.183.938.243-.222.191-.71.191-.71-.368-.2-.829-.297-1.114-.297zm3.654.011s-.318.391-.699.296c-.095.614.137.778.688.804.962.045.857-.55.857-.55s-.339-.116-.328-.455l-.518-.095zm3.493.04a1.6 1.6 0 0 0-.056.001c-.389.733-.871.402-.871.402-.075.314-.314.314-.314.314s.457.179.479.583c.03.561-.638.549-.769.541.194.002.621-.305.305-.735-.329-.449-1.257-.135-1.122.688s1.212.658 2.065.344.195-.644.27-1.212.628-.598.628-.598-.046-.32-.614-.327zm-4.979.626c-.106 0-.191.089-.191.198s.086.199.191.198.191-.089.191-.198-.085-.198-.191-.198zm-4.329.509s-.509 1.062.135 1.437c.783.455 1.167-.568 1.167-.568s-.404.538-1.048.134c-.374-.371-.372-.534-.254-1.003zm4.622.1c-.157 0-.284.137-.284.306s.127.307.284.307.284-.138.284-.307-.127-.306-.284-.306zm1.904.035c-.075 0-.135.067-.135.15s.06.15.135.15.134-.067.134-.15-.06-.15-.134-.15zm-.606.225c-.111 0-.202.087-.202.194s.09.195.202.195.202-.087.202-.195-.091-.194-.202-.194zm-.606.12c-.124 0-.225.104-.225.232s.101.232.225.232.224-.104.224-.232-.1-.232-.224-.232zm5.359.214c-.255-.013-1.029.483-1.647.728-.868.344-1.332-.179-1.407.27-.157.942 3.218-.749 3.098-.988-.012-.006-.027-.009-.044-.01zm37.039-29.893c-1.037.021-.995 1.207-.995 1.207s-.597-.831-1.249-.699c-.952.193-1.185 1.439-.466 1.693.974-.783 1.482.212.952 1.63-.463 1.242-2.074 1.947-2.074 1.947s.614-.995-.021-1.354-1.503.889-1.503.889.871-2.815-.732-3.45c-1.563-.62-2.033 1.941-.778 1.917.408-1.274 1.279-.585 1.309.387.055 1.738-3.989 2.373-6.286 3.691.275-1.09-.629-2.438-1.856-1.694-.907.55-.597 1.654.18 1.634-.845-.895.588-1.7.718-.479.172 1.617-3.85 3.78-6.409 5.23-.715-1.365-2.71-2.027-3.588-.021-.526 1.199.881 2.457 1.242 1.742.322-.639-.584-.607-.67-1.01-.158-.739 1.187-1.113 1.999.018-.12.898-2.691 3.022-2.691 3.022s.797-.979-.165-1.437c-.383-.182-1.103.055-.884.328.136.17 1.794-.226.105 1.652-.566-.218-.789.345-.789.345s-1.315-.036-1.141 1.208c.162 1.155 1.518.68 1.518.68s.228 2.063-.49 3.799-.19 4.201-.19 4.201c5.029-.778 6.602 1.901 8.022 3.024 1.188.94 3.719 2.39 4.548.488 1.757 1.376 4.72-2.202 5.27-2.35s1.291 1.122.952 1.566-.825-.144-1.082-.777c-.581 1.321.469 2.256 1.146 2.11 1.286-.276.804-1.629.804-1.629s.596.693 1.058.064c.681-.927-1.376-1.969-1.376-1.969s.762-.867 2.561-1.1 2.999 1.313 2.787 1.842-.967.316-.967.316.363 1.395 1.267.895c.65-.36.575-1.91.575-1.91s2.075.85 2.487 2.037c-.486.517-.689.924-.275 1.424.762.825 1.968-.829 1.386-1.936.496.135.656-.381.656-.381s1.853 1.557 2.307.677c1.222-2.363-8.382-2.964-7.366-3.45s2.921-.889 5.545-.36 1.926-.529 1.926-.529c4.613.62 6.33 2.15 6.33 2.15s-.249 1.562.781 1.423c1.376-.185.085-2.176.614-2.705s2.45 2.986 2.921 2.222c.985-1.598-2.223-3.45-5.482-4.529s-5.651-.825-5.651-.825.699-1.217-.55-2.35c1.926.085 2.356 1.002 3.259.847.832-.143.338-.974.338-.974 1.503.296 1.418 1.397 2.159 1.206s.508-1.926-1.566-2.455-3.682.064-3.682.064-.138-.311-.125-.484c0 0 .291-.128.332-.484 0 0 .16.004.274-.075 0 0 .118.357.673.233.444-.099.411-.545.411-.545l.593-.233s.137.485.72.36c.54-.116.466-.677.466-.677l.593-.085s.127.466.572.423.487-.529.487-.529l.572-.021s.186.414.508.444c.561.053.508-.614.762-.593s.141.531.55.614c.352.071.508-.381.635-.317s.011.36.286.487.412-.021.412-.021-.042.339.148.487.381.064.381.064-.188.205-.127.55c.064.36.317.381.317.381s-.201.402.053.719.498.169.498.169c-.254 1.037-1.185 1.863-1.693 1.715s-.709-1.069-.233-1.566c.621-.649.063-1.058-.212-.889.127-.508-.762-.699-1.101.169s-.275 2.329.868 2.794 1.937-.371 1.937-.371-.383.394-.127 1.006c.349.847 2.646.836 2.561-2.985-.087-3.922-3.57-4.308-5.26-4.445-3.415-.276-6.358 1.099-7.851 1.556 0 0 .268-.628-.382-1.091 6.583-4.762 5.932-7.005 5.197-7.408-.773-.423-1.281.127-1.408.846.085.804.487.444.317 1.482s-2.582 2.9-2.582 2.9 2.095-2.836 2.137-6.519-.973-5.355-1.693-5.059-.222.833-.687.96-.638-.409-1.297-.174c-.415.148-.431.618-.431.618s-1.348-.237-1.945-.022c-1.363.492-2.815 1.92-3.005 4.905s1.545 4.36 3.365 3.556 2.762-3.441 2.069-4.366c-.359-.479-1.153-.495-.973 1.119.236 2.125-1.752 3.162-2.916 2.612s-1.275-2.506-.868-4.487c-.072 1.191.064 2.963 1.016 3.683s2.286.064 2.455-1.482-1.304-1.677-1.482-1.164c-.23.665.749.845.36 1.735-.385.881-1.799.593-1.99-1.778s1.757-3.831 1.376-3.492c-.396.518-.105.889-.105.889-.745.396-.487 1.228-.487 1.228.169-.381.402-.233.572-.424s.169-.487.169-.487.3-.01.423-.105c.284-.218.278-.359.278-.359s.114-.079.212.017c0 0 .068.415.594.355.451-.052.267-.413.648-.349s.194.379.575.569.741 0 .741 0-.305.385.113.894c.322.392.582-.016.775.306.141.235-.132.381-.105.739.065.873.615.6.488 1.087s-.466.254-.677.783.445.698.212 1.143-.402.021-.635.508.106.783-.127 1.164-.55.021-.846.233-.127.826-.508 1.101-.591-.124-.909-.019-.255.759-.594.844-.42-.421-.801-.378-.321.618-.723.596-.3-.532-.851-.489-.346.463-.719.5c-.286.028-.065-.595-.688-.667-.64-.074-.381.438-.926.338-.301-.055-.073-.507-.715-.666-.55-.136-.711.402-.921.348-.504-.129-.127-1.08-1.157-.802-.69.186-.966-.114-.415-1.744 2.244 1.291 3.704.296 3.958-.466s-.445-1.968-1.376-1.566-1.016 1.27-.529 1.439.571-1.016 1.037-.72.254 1.143-.402 1.291c-1.983.448-2.963-.656-2.963-.656s1.439-.678 1.101-2.223c.974-.508.381-1.376.381-1.376s5.08-2.604 5.143-5.207c.042-1.016-.466-2.117-1.503-2.095zm.122.36c.209.004.479.102.735.466.455.646.359 1.524-.159 2.445s-1.714 1.83-1.714 1.83.953-.963 1.365-2.297c.295-.954.19-1.767-.18-1.915s-.719.148-.719.148.013-.408.328-.592c.056-.032.182-.088.345-.085zm-2.229.476c.571-.011 1.384.865 1.164 2.159-.193 1.133-1.227 1.947-1.227 1.947.942-1.259 1.016-1.947.836-2.72s-.571-.878-.868-.762-.317.349-.423.254-.053-.868.518-.878zm1.852.442c.27-.003.448.245.307.997-.18.963-.277 1.447-1.513 2.645-2.423 2.349-4.032 2.381-4.032 2.381s.73-.392 1.545-1.185c1.164-.413 1.662-.719 2.402-1.492s.984-1.46.857-2.233c-.107-.651-.103-.94.19-1.058a.68.68 0 0 1 .243-.055zm-6.325.814c.196-.005.384.051.494.13.418.302.444.709.444.709s-.311-.266-.582-.296-.497.032-.645.243c-.198.282-.169.466-.169.466s-.392-.222-.201-.794c.11-.33.391-.451.659-.458zm14.049.732c.383-.014.686.871.908 1.814.254 1.078.165 2.365.165 2.365s-.375-1.422-.659-2.185-1.047-1.601-.583-1.931c.058-.041.114-.062.169-.064zm-1.831.543c.298-.005.821.293 1.198.583.524.404.793 1.407.793 1.407s-.664-1.064-1.497-1.317c-.253-.077-.808-.105-.718-.509.025-.114.107-.162.224-.164zm-1.734.548a4.04 4.04 0 0 1 1.466.274c-.022.12-.105.3-.105.3-.202.056-.336.248-.336.248-.157.046-.517-.075-.517-.075s-.172-.434-.591-.404-.531.426-.531.426l-.15.015s-.043-.425-.479-.449l-.015-.067s.474-.261 1.258-.267zm2.154.649s.486.202.718.629c-.06.18-.187.202-.187.202s-.195-.195-.464-.053c.037-.359-.224-.546-.224-.546v-.001c-.003-.008-.025-.077.158-.232zm-3.465.09c.136 0 .247.12.247.269s-.11.27-.247.27-.247-.121-.247-.27.111-.269.247-.269zm1.25.015a.27.27 0 0 1 .269.269.27.27 0 0 1-.269.27.27.27 0 0 1-.27-.27.27.27 0 0 1 .27-.269zm-8.04.056c.073-.001.146.03.217.101.413.413-.497 1.524-1.281 2.032s-2.053.466-2.053.466 1.418-.561 2.085-1.46c.304-.41.678-1.135 1.032-1.138zm9.566.109c.149 0 .269.127.269.284s-.121.284-.269.284-.27-.127-.27-.284.121-.284.27-.284zm1.811.748s.47.487.606 1.369c-.072.152-.254.104-.254.104s-.081-.188-.449-.172c-.119.005-.195-.351-.195-.351s.247-.352.12-.756c0-.187.172-.194.172-.194zm-12.989.113c.009 0 .016.003.019.009.16.287-1.746 1.175-3.08 1.64s-2.889 1.799-2.889 1.799c-.127-.169-.232-.144-.212-.252.499-.702 1.395-1.263 3.489-1.976 2.268-.772 2.534-1.225 2.674-1.221zM78.749 16c.136 0 .247.131.247.292s-.111.291-.247.291-.246-.131-.246-.291.11-.292.246-.292zm.831 1.482c.141 0 .254.144.254.322s-.114.321-.254.321-.254-.144-.254-.321.114-.322.254-.322zm-11.239.068c.198.519-.014.712-.269.872-.285-.192-.61-.543-2.049-.733h1.437c.395-.001.641-.051.882-.138zM60 17.61c.118-.002.18.165.18.396 0 .344-.258.533-.258.533s-.389-.509-.134-.793c.084-.093.154-.134.212-.135zm4.955.233c.985-.005 1.992.244 2.464.776.656.741.275 2.159-.974 2.032s-1.333-1.461-.931-1.693.847-.053 1.037.317c-.088-.64-.493-.812-.846-.836-.359-.024-1.006.285-1.069 1.206-1.651-1.206-3.634-.182-3.634-.182s1.613-1.225 2.841-1.5c.345-.077.728-.118 1.113-.12zm12.197.124c.275-.009.402.526.332 1.102-.12 1.362-1.197 2.11-1.197 2.11s.554-.689.659-1.631-.165-1.482.149-1.571c.02-.006.039-.009.057-.009zm3.436.054c.219.03.054 1.721-.784 3.727s-2.163 3.195-2.32 3.054c-.231-.208 1.153-1.662 1.781-2.994 1.09-2.311 1.122-3.77 1.322-3.787zm-4.982.401c.219-.009.396.541.367.779-.06.494-.464.718-.464.718s.181-.477.12-.778c-.048-.236-.359-.509-.105-.688.028-.02.055-.029.082-.03zm-16.079.191c.022-.002.041.004.061.018.779.545-3.702 2.858-6.435 4.995-.257.201.074-.603.074-.603l3.259-2.074c2.451-1.537 2.833-2.314 3.04-2.335zm22.846.232c.307.003.523.39.379.419-.108.022-.257-.303-.579-.12-.107.061-.172.273-.309.141-.039-.038-.121-.371.462-.438a.36.36 0 0 1 .046-.003zm.031.453c.582.024.418 1.926-1.269 3.492-1.349 1.253-2.709 2.159-2.709 2.159s.609-.532 2.349-2.159c2.274-2.126.593-3.154 1.503-3.472a.34.34 0 0 1 .126-.021zm-2.944.086c.165 0 .299.158.299.352s-.134.352-.299.352-.299-.158-.299-.352.134-.352.299-.352zm-19.396.02c.804.677.414.902 1.112 1.863.53.73.868.804 1.566 1.037-.656.296-4.064-.889-9.779 2.392 0 0-.085-.392.127-.593 5.113-3.972 6.36-3.99 6.974-4.699zm2.534.328c.607-.001 1.3.162 1.881.731-.374.224-.239 1.571-.928 1.706-.629-.075-1.646-.524-2.021-1.167-.34-.586-.434-.958-.434-.958s.67-.31 1.502-.312zm2.586 1.144c.278-.009.605.392 1.542.312.104.161.383.303.383.303-.003.474-.229.654-.229.654s-.169-.131-.434-.025-.307.407-.307.407-.487-.392-1.661-.307c.404-.442.276-1.128.535-1.277a.29.29 0 0 1 .172-.066zm13.512.424c.14 0 .254.138.254.307s-.114.307-.254.307-.254-.138-.254-.307.114-.307.254-.307zm-27.339.449a.94.94 0 0 1 .178.018c.874.173 1.191 1.011 1.191 1.011s-.065.177-.227.213c-.173-.322-.632-.695-1.051-.77-.762-.136-1.398.261-1.398.261s.613-.736 1.307-.733zm15.41.763c.124 0 .225.107.225.24s-.101.239-.225.239-.224-.107-.224-.239.1-.24.224-.24zm-2.082.051c.263 0 .557.023.84.092.823.202 1.018.666.875.898s-.764.314-.808-.134c-.022-.22.269-.18.269-.18s-.187.075-.03.21.367-.105.232-.24-.629-.172-1.07-.127c-.849-.18-1.205-.434-1.205-.434s.393-.084.896-.084zm-3.815.088c.28-.001.617.023.988.101.052.18.015.366.015.366s-.374-.12-.808.247c-.374-.329-.891-.187-.943-.262s-.067-.366-.067-.366.317-.083.815-.086zm-1.368.118c-4.445 1.376-6.244 3.852-6.244 3.852s-.262-.231-.434-.688c.131-.276.159-.582.18-.836s4.043-2.159 6.498-2.328zm3.112.048s.606-.004 1.526.512c.044.176-.128.402-.128.402-.149.015-.412-.049-.803.158-.235-.567-.623-.741-.652-.818-.032-.085.056-.254.056-.254zm15.01.099c.153 0 .277.124.277.277s-.124.277-.277.277-.277-.124-.276-.277.124-.277.276-.277zm-24.731.189c.026-.002.038.006.038.006.006.162-.07.575-.192.727.042-.434-.097-.553-.097-.553.128-.144.209-.176.252-.179zm11.62.332c.5.078.885.111 1.348.533-.031.185-.135.316-.135.316s-.418-.08-.814.146c-.215-.465-.592-.577-.592-.577-.015-.17.194-.418.194-.418zm-2.477.048c.397 0 .719.328.719.733s-.322.734-.719.733-.718-.328-.718-.733.322-.733.718-.733zm-1.736.045c.38 0 .688.315.688.703s-.308.703-.688.703-.688-.315-.688-.703.308-.703.688-.703zm-7.943.107c.226.412.007.51.067 1.202-.258.012-.428-.081-.658-.229.273-.322.591-.973.591-.973zm15.741.117c.149 0 .269.134.269.299s-.12.3-.269.3-.269-.134-.269-.3.121-.299.269-.299zm-17.81.12c.132 0 .24.1.24.224s-.107.225-.24.225-.239-.101-.239-.225.107-.224.239-.224zm8.074.015c.442 0 .801.315.801.703s-.359.703-.801.703-.8-.315-.8-.703.358-.703.8-.703zm17.81.224c.137 0 .247.121.247.27s-.111.269-.247.269-.247-.12-.247-.269.11-.27.247-.27zm-9.917.043c.498.126.811.175 1.257.619-.009.131-.113.306-.113.306s-.272-.098-.652.028c-.171-.533-.59-.671-.59-.671-.012-.091.098-.282.098-.282zm3.511.032c.169 0 .307.134.307.299s-.137.3-.307.3-.307-.134-.306-.3.137-.299.306-.299zm-6.024.105c.388 0 .703.315.703.703s-.315.703-.703.703-.703-.315-.703-.703.315-.703.703-.703zm7.782.194c.141 0 .255.121.255.27s-.114.269-.255.269-.254-.121-.254-.269.114-.27.254-.27zm3.098.09c.141 0 .255.107.255.24s-.114.239-.255.239-.254-.107-.254-.239.114-.24.254-.24zm-1.594.06c.153 0 .277.117.277.262s-.124.262-.277.262-.277-.117-.277-.262.124-.262.277-.262zm-7.476.224c.389 0 .704.332.704.741s-.315.741-.704.741-.703-.332-.703-.741.315-.741.703-.741zm-4.46.06s.359.449.838.449.778-.269.778-.269.074.727.733.936 1.093-.218 1.093-.218.061.689.658.874c.673.21 1.003-.096 1.003-.096a1.08 1.08 0 0 0 .674.748c.569.21 1.048-.179 1.048-.179s.074.613.643.688c.844.111.929-.284.929-.284s-.094.519.793.703c.718.15 1.018-.389 1.018-.389s.075.508.808.508c.539 0 .718-.449.718-.449s.299.449.838.389.688-.539.688-.539.449.419 1.018.329.778-.628.778-.628.037.456.598.538c-.516.329-.389.823-.389.823l-.479.225s-.209-.569-.748-.359-.344.905-.344.905l-.344.232s-.388-.459-.838-.217c-.523.281-.299.845-.299.845l-.479.21s-.359-.659-.898-.3-.359 1.018-.359 1.018l-.359.239s-.399-.512-.838-.269c-.667.368-.209 1.018-.209 1.018l-.449.389s-.382-.554-.898-.299c-.64.316-.419.988-.419.988l-.239.089s-.539-.419-1.018-.03-.366.726-.366.726l-.435.187s-.269-.471-.785-.224c-.593.284-.337.823-.337.823l-.381.254s-.394-.469-.959-.023c-.473.373-.178.861-.178.861l-.374.269s-.357-.532-.788-.349c-.666.283-.364.963-.364.963l-.299.164s-.308-.634-.808-.449c-.511.216-.419.718-.419.718l-.539.12s-.058-.527-.538-.509c-.629.06-.569.659-.569.659l-.479-.09s-.06-.658-.598-.628-.539.568-.539.568l-.299-.12s-.269-.838-.808-.808-.628.539-.628.539l-.509-.09s-.12-.808-.688-.808-.389.36-.808.3-.075-.658-.808-.748c-.446-.055-.718.419-.718.419s.036-.433-.449-.763c-.325-.221-.703-.164-.703-.164s.363-.681.059-1.646c-.266-.845-1.092-.988-1.092-.988.09-.329 0-.808 0-.808s.778.179 1.137-.569c.348-.725-.03-1.287-.03-1.287s.49.314 1.033-.09c.643-.479.374-.988.374-.988s.644.315 1.227-.209c.464-.416.389-1.078.389-1.078s.613.404 1.242-.104.554-.958.554-.958.659.165 1.227-.224.479-.838.479-.838.509.329 1.107.149.898-.628.898-.628.239.329.808.209.718-.359.718-.359zm6.744.005c.554.045.768.079 1.24.509-.021.186-.091.286-.091.286s-.098-.08-.64.09c-.218-.448-.615-.606-.615-.606.012-.137.106-.28.106-.28zm-11.436.01c.426 0 .771.302.771.674s-.345.673-.771.673-.77-.302-.77-.673.345-.674.77-.674zm-4.703.033c.455.001.722.212.722.212s.085.508-.328 1.175c-.333.538-.977 1.072-1.028 1.114.041-.041.21-.238.266-.796.078-.769-.305-.933.192-1.694.061-.007.12-.01.176-.01zm24.731.35c.086-.001.179.015.284.058.417.171.144.486.144.486s-.553.028-.846.503c-.275-.364-.671-.304-.671-.304-.064-.065-.053-.319-.053-.319.493.011.729-.419 1.143-.425zm-9.147.171c.392 0 .71.338.711.756s-.318.756-.711.756-.711-.338-.711-.756.318-.756.711-.756zm2.076.037c.471.019.674-.026 1.173.251.014.187-.036.319-.036.319s-.32-.042-.652.151c-.297-.401-.544-.433-.544-.433-.035-.084.059-.288.059-.288zm-18.409.11s.127.508.095 1.016c-.025.398-.265.857-1.545 2.286-.698-.18-.475-1.365.381-1.555 1.143-.195.959-1.148 1.069-1.746zm23.591.101a1.91 1.91 0 0 1 .407.042c.071.173.053.3.053.3s-.464 0-.709.325c-.28-.225-.568-.209-.568-.209-.06-.069-.01-.299-.01-.299.435-.052.559-.151.827-.158zm-3.306.036a2.41 2.41 0 0 1 .742.107c.052.18.052.309.052.309s-.39.018-.649.273c-.374-.329-.631-.325-.631-.325-.052-.075-.009-.319-.009-.319.192-.026.349-.042.495-.044zm-20.582.001s.035.718-.328 1.058c-.328.307-.889.264-1.281.688 0 0 .021-.346.561-.974.392-.455 1.047-.773 1.047-.773zm22.389.03c.119-.002.26.018.45.084.052.18.004.309.004.309s-.39-.025-.649.279c-.374-.329-.541-.262-.541-.262-.052-.075-.009-.314-.009-.314.328.022.484-.091.746-.095zm-18.333.194a.73.73 0 1 1 0 1.467.73.73 0 0 1-.726-.733.73.73 0 0 1 .726-.733zm31.114.045a3.56 3.56 0 0 1 .578.067s.12.052.037.351c-.337.045-.397.292-.397.292s-.174.031-.291-.022c-.013-.165-.105-.298-.247-.367-.044-.168.022-.307.022-.307a1.89 1.89 0 0 1 .298-.014zm-.844.007s.105.097.023.299c-.299.015-.404.412-.404.412l-.531.007s-.016-.254-.285-.374c-.035-.168.023-.292.023-.292.449-.052 1.175-.052 1.175-.052zm-16.126.052c.376 0 .681.315.681.703s-.304.704-.681.704-.681-.315-.681-.704.305-.703.681-.703zm14.524.068h.001s.082.179-.007.284c-.449.157-.427.471-.427.471-.014 0-.413.102-.576.09-.122-.296-.389-.307-.389-.307-.052-.165 0-.314 0-.314.501-.232 1.399-.224 1.399-.224zm3.72.058c.307.004.674.159.674.159s.084.17-.09.359c-.24-.008-.367.194-.367.194s-.043.079-.202-.015c.037-.254 0-.284-.164-.471-.022-.105.022-.217.022-.217a.75.75 0 0 1 .127-.009zm-10.147.099a.61.61 0 0 1 .606.613.61.61 0 0 1-.606.614.61.61 0 0 1-.606-.614.61.61 0 0 1 .606-.613zm-24.36.018l.413.518s-1.037-.053-1.207 1.164a1.31 1.31 0 0 0-1.006.265c-.333.277-.526.592-.496.955-.255.035-.361-.119-.361-.119s.093-.585 1.545-1.524c.718-.465 1.111-1.259 1.111-1.259zm28.932.132s.097.06.015.3c-.314.09-.389.456-.389.456s-.305.208-.621.239c-.09-.217-.299-.262-.299-.262l-.007-.321c.395-.21.76-.284 1.302-.412zm-6.278.045c.343 0 .621.275.621.614s-.278.613-.621.613-.621-.275-.621-.613.278-.614.621-.614zm-4.827.015c.388 0 .703.315.703.703s-.315.704-.703.704-.704-.315-.703-.704.315-.703.703-.703zm3.151.15a.61.61 0 0 1 .606.613.61.61 0 0 1-.606.614.61.61 0 0 1-.606-.614.61.61 0 0 1 .606-.613zm11.614 0c.169 0 .307.144.307.321s-.137.322-.307.322-.307-.144-.307-.322.138-.322.307-.321zm-13.073.03c.355 0 .643.292.643.651s-.288.65-.643.651-.644-.291-.644-.651.288-.651.644-.651zm11.434.06c.165 0 .299.137.299.306s-.134.307-.299.307-.299-.138-.299-.307.134-.306.299-.306zm3.068.044c.149 0 .269.124.269.277s-.12.277-.269.277-.269-.124-.269-.277.12-.277.269-.277zm2.054.112c.315-.015 1.38.912 1.706 1.804.36.984.159 2.413-.879 3.09-.212-.37-.529-.201-.529-.201s.857-1.006.667-2.286-1.196-2.127-1.037-2.37c.015-.023.039-.035.072-.036zm-8.751.038c.105.082.052.284.052.284s-.449.067-.479.509c-.172.112-.389.112-.389.112s-.157-.209-.396-.194c-.15-.127-.075-.337-.075-.337s.763-.329 1.287-.374zm7.775.045c.141 0 .255.12.255.269s-.114.27-.255.27-.254-.121-.254-.27.114-.269.254-.269zm-5.882.06c.165 0 .299.131.299.292s-.134.291-.299.291-.299-.13-.299-.291.134-.292.299-.292zm-28.878.119c.401 0 .726.332.726.741s-.325.741-.726.741-.726-.332-.726-.741.325-.741.726-.741zm25.441.208s.116.116 0 .328c-.467.124-.402.625-.402.625s-.2.134-.317.095c-.065-.328-.519-.455-.519-.455.605-.11.532-.5 1.238-.592zm1.656.136a.3.3 0 0 1 .299.299.3.3 0 0 1-.299.299.3.3 0 0 1-.3-.299.3.3 0 0 1 .3-.299zm8.284.059c.137 0 .247.114.247.255s-.111.254-.247.254-.247-.114-.247-.254.11-.255.247-.255zm-39.984.035c.282-.01.437 1.021.465 2.166-.045 1.227-.569 2.275-.569 2.275s.36-1.108.33-2.066c-.09-1.916-.521-2.209-.3-2.35.026-.016.05-.024.074-.025zm-.806.15c.257 0 .466.218.466.487s-.208.487-.466.487-.466-.218-.466-.487.208-.487.466-.487zm31.083.16a.31.31 0 0 1 .314.306.31.31 0 0 1-.314.307.31.31 0 0 1-.314-.307.31.31 0 0 1 .314-.306zm10.207.434c.132 0 .24.134.24.3s-.107.299-.24.299-.239-.134-.239-.299.107-.3.239-.3zm-37.364.045c.384 0 .696.312.696.696s-.311.696-.696.696-.696-.312-.696-.696.312-.696.696-.696zm25.615.075a.3.3 0 0 1 .299.299.3.3 0 0 1-.299.3.3.3 0 0 1-.299-.3.3.3 0 0 1 .299-.299zm1.003.142c.112.172.419.262.419.262s.172.097.104.501c-.644.172-1.16.472-1.16.472s-.157-.225-.09-.502c.404-.224.344-.553.344-.553s.135-.18.382-.18zm-2.702.382c.161 0 .292.151.292.337s-.131.336-.292.336-.292-.151-.292-.336.131-.337.292-.337zm1.122.187s.202.254.404.232.18.628.18.628l-1.182.614c.083-.37-.091-.6-.12-.719 0 0 .307-.202.247-.546.202-.187.471-.209.471-.209zm12.512.037c.128 0 .232.128.232.285s-.104.284-.232.284-.231-.127-.232-.284.103-.284.232-.285zm-2.553.021c.027 0 .051.007.073.021.265.169-.097.335-.201.783-.169.73-.021 1.27-.021 1.27s-.444-.476-.381-1.111c.061-.61.342-.96.53-.963zm-37.316.01s.36.233.582.201c-.349.116-.561.476-.561.476a3.89 3.89 0 0 0-.021-.677zm32.309.109c.083 0 .166.001.249.003.794.025 1.975.398 2.507 1.182.282.416.179.966-.517.337s-2.133-1.199-3.636-.958c-2.469.397-3.372 1.078-3.443.98-.097-.135 2.276-1.533 4.84-1.545zm5.543.282c.151-.005.212.253.056.403-.275.265-.444.646-.444.646s-.053-.646.211-.942c.066-.074.127-.105.177-.107zm-13.092.155c.194 0 .352.152.352.341s-.158.341-.352.341-.351-.153-.351-.341.157-.34.351-.341zm-23.782.038c.413 0 .748.355.748.793s-.335.793-.748.793-.748-.355-.748-.793.335-.793.748-.793zm24.89.075s.059.133.337.159c.282.309.229.717.229.717l-1.227.603c-.149-.294-.05-.631-.05-.631.206-.117.266-.303.275-.558.074-.18.435-.29.435-.29zm5.591.251a2.38 2.38 0 0 1 .125.004c.644.037 1.182.367 1.07.666s-.697.141-1.1-.045c-.763-.352-1.594-.404-1.594-.404s.861-.224 1.499-.221zm-8.328.528c.175 0 .318.164.318.366s-.142.367-.318.367-.318-.164-.318-.367.143-.367.318-.366zm6.002.058c.082.024.488.492.609.959.236.91-.014 1.003-.014 1.003s-.397.277-.487.165.165-.546.098-1.1-.275-.965-.217-1.025zm-4.784.019s.148.159.371.159c.159.275.076.659-.286.815-.783.339-.91-.127-.91-.127s.359-.085.306-.614c.222-.169.519-.233.519-.233zm17.134.053s-.55 1.609-1.207 1.683-.591-.574-.36-.604c.328-.042.116.265.561.212s1.006-1.291 1.006-1.291zm-12.875.012c.164-.011.444.463.483.866.042.444-.042 1.228-.328 1.207s.266-.349-.032-1.281c-.116-.364-.337-.628-.169-.773.014-.012.03-.019.046-.02zm-.93.399c.374-.002.603.271.732.656.147.441.007 1.032-.688 1.018-.485-.01-.404-.658-.404-.658s.569-.03.419-.33-.629-.133-.748.3.119.808.119.808-2.245.748-2.499.359 1.796-1.616 2.514-1.991c.213-.111.397-.161.556-.162zm13.826.276s-.527 1.876-1.482 1.641c-.688-.169-.438-.761-.222-.561.275.254.731.179 1.09-.169.442-.428.614-.911.614-.911zm-18.745.229c.1-.003.176.028.211.087.073.123-.046.33-.267.461s-.459.139-.533.017.046-.33.267-.461c.106-.063.222-.101.321-.104zm-1.2.001c.18 0 .326.152.326.341s-.146.341-.326.341-.326-.152-.326-.341.146-.341.326-.341zm-21.563.075c.277 0 .501.218.501.486s-.224.486-.501.486-.502-.218-.502-.486.225-.486.502-.486zm24.597.157c.182 0 .329.156.329.348s-.147.348-.329.348-.329-.156-.329-.348.147-.348.329-.348zm-.546.673c.182 0 .329.151.329.337s-.147.336-.329.336-.33-.15-.33-.336.148-.337.33-.337zm-.962.045c.2 0 .363.179.363.4s-.163.4-.363.4-.363-.179-.363-.4.163-.401.363-.4zm-1.825.006a.29.29 0 0 1 .05.005c.041.008.077.026.105.052.117.109.072.337-.1.508s-.407.223-.525.114-.072-.337.1-.508c.111-.11.251-.173.37-.171zm-1.239.091c.19 0 .344.168.344.374s-.154.374-.344.374-.344-.168-.344-.374.154-.374.344-.374zm2.136.284c.145 0 .263.12.263.268s-.118.269-.263.269-.264-.12-.264-.269.118-.268.264-.268zm-21.53.005s1.343.216.938 2.331c-.206.151-.213.39-.213.39s-.202-.108-.409.057c.067-.338-.021-.628-.316-.776-.266-.134-.927-.091-.989.497-.634-.03-1.111.914-1.111.914s-.353-1.206 1.051-2.073c.5-.309.59-.714.455-1.066.496.027.594-.273.594-.273zm-1.379.055c.228 0 .412.198.412.442s-.185.441-.412.441-.411-.198-.411-.441.184-.442.411-.442zm30.026.71c-.052.177-.083.245.004.426.052.107-.061.223-.15.234s-.212-.085-.171-.196c.079-.212.113-.246.013-.428-.083-.151.101-.21.15-.209.085.002.184.07.154.173zm-1.09-.003c-.068.172-.063.299.054.458.076.103-.041.249-.138.273s-.262-.091-.21-.208c.094-.211.091-.308-.008-.457s.06-.22.113-.229c.096-.017.227.066.189.163zm5.454-.116c.442.026 1.544.492 2.151.772.762.351 2.335 1.018 2.125 1.347s-1.198-.387-2.245-.898c-1.041-.508-2.335-.928-2.215-1.167.015-.03.051-.047.104-.052.023-.002.05-.003.08-.001zm-5.07.038c.153 0 .277.134.277.299s-.124.299-.277.299-.277-.134-.277-.299.124-.299.277-.299zm1.85.201a.34.34 0 0 0-.04.41c.045.106-.09.208-.187.207s-.222-.108-.166-.208c.106-.19.114-.261.058-.41-.059-.159.132-.197.182-.183.091.025.214.092.152.184zm-.773-.186c.141 0 .255.147.255.329s-.114.329-.255.329-.254-.147-.254-.329.114-.329.254-.329zm-2.717.003c.081.001.206.06.186.158-.048.231-.07.295.114.46.098.088-.017.26-.121.298s-.301-.038-.257-.162c.092-.265.026-.339-.094-.468-.132-.143.013-.288.173-.286zm-5.192.012c.186 0 .337.149.337.333s-.151.333-.337.333-.337-.149-.337-.333.151-.333.337-.333zm-2.215.03s.419.554 1.003.015c-.12.629.419.763.419.763s-.744.614-1.811.538l-.15-.434s.344-.239.209-.688c.195-.165.33-.194.33-.194zm-1.112.007a.33.33 0 0 1 .333.326.33.33 0 0 1-.333.326.33.33 0 0 1-.333-.326.33.33 0 0 1 .333-.326zm9.088 0c.145 0 .262.127.262.284s-.117.285-.262.285-.262-.128-.262-.285.117-.284.262-.284zm4.016.236c-.124.16-.115.218-.031.41.046.105-.086.209-.184.211s-.231-.107-.171-.205c.127-.21.132-.282.05-.411-.092-.143.111-.223.19-.209s.213.119.147.204zm-.738-.138c.132 0 .239.136.239.303s-.107.303-.239.303-.239-.136-.239-.303.107-.303.239-.303zm-4.688.714c.108.095-.031.281-.148.317s-.295-.046-.276-.189c.033-.243.095-.348-.081-.513-.095-.089.023-.282.136-.292.342-.031.03.319.368.676zm5.776-.609c.138 0 .251.134.251.299s-.112.3-.251.3-.251-.134-.251-.3.112-.299.251-.299zm-5.451.038c.161 0 .291.122.291.273s-.13.273-.291.273-.292-.122-.292-.273.131-.273.292-.273zm6.236.219c-.123.111-.139.23-.068.396.03.105-.104.19-.2.182s-.209-.12-.147-.21c.126-.184.149-.26.087-.394-.071-.153.123-.203.201-.189s.198.152.128.215zm-7.727.054c-.015.25-.085.235.067.512.07.126-.051.278-.171.305s-.287-.066-.261-.208c.064-.35.088-.245-.044-.517-.019-.174.064-.227.163-.283.051-.029.259-.017.246.191zm.342-.078c.134 0 .243.126.243.281s-.109.28-.243.281-.243-.126-.243-.281.109-.281.243-.281zm-1.731.01c.096.015.179.082.205.195.044.193-.086.235.067.512.07.126-.051.279-.17.306s-.283-.065-.261-.208c.038-.256.037-.343-.044-.517-.088-.19.085-.307.205-.288zm9.465.05c.124 0 .224.129.224.288s-.1.288-.224.288-.225-.129-.225-.288.101-.288.225-.288zm-8.838.03c.145 0 .262.127.262.284s-.117.284-.262.284-.262-.127-.262-.284.117-.284.262-.284zm9.644.299c-.099.083-.176.192-.164.368.008.112-.154.167-.253.14s-.188-.162-.106-.238c.172-.161.181-.21.183-.363.002-.137.168-.169.247-.151s.204.149.092.244zm-17.124-.142c.184 0 .333.151.333.337s-.149.336-.333.336-.333-.151-.333-.336.149-.337.333-.337zm5.815.061a.26.26 0 0 1 .078.014c.15.06.449.224.239 1.018-.599-.554-1.046-.402-1.047-.613-.003-.301.503-.431.73-.418zm11.602.133c.128 0 .232.141.232.315s-.104.314-.232.314-.232-.141-.232-.314.104-.315.232-.315zm-16.241.015c.021-.001.032 0 .032 0s.292.3.591.195c.135.359.062.64-.419.815-.718.262-.831-.291-.831-.291s.18-.292.15-.517c.253-.168.413-.198.477-.202zm17.072.374c-.181.076-.178.15-.161.337.01.104-.144.151-.232.124s-.159-.15-.085-.223c.136-.134.187-.189.178-.332s.165-.163.231-.138.184.183.069.231zm-6.609-.095c.427-.004.855.027 1.198.125.628.18.519.585-.284.374-1.385-.365-2.784-.314-2.784-.314s.931-.177 1.87-.185zm6.878.14c.116 0 .21.132.21.296s-.094.296-.21.296-.209-.132-.209-.296.094-.295.209-.296zm.726.405a.51.51 0 0 0-.161.337c-.014.103-.143.151-.231.124s-.159-.149-.085-.223c.119-.119.123-.239.14-.362.021-.146.175-.155.241-.124s.176.165.096.248zm-35.635-.165c.19 0 .344.194.344.434s-.154.434-.344.434-.344-.194-.344-.434.154-.434.344-.434zM70.6 35.4c.389-.015 1.248.564.989.786-.296.254-1.291-.508-1.122-.741.032-.029.078-.043.133-.045zm17.268.04c.284.014.929.687 1.246 1.064.344.408 1.005 1.28.762 1.418s-.552-.519-1.069-1.175c-.499-.632-1.228-1.048-1.037-1.27.024-.028.057-.039.098-.037zm-22.402.017s.15.194.471.164c.187.374.12.606-.239.86s-.763-.202-.763-.202.194-.209.074-.501c.165-.105.457-.321.457-.321zm-1.142.029c.192 0 .348.156.348.348s-.156.348-.348.348-.348-.156-.348-.348.156-.348.348-.348zm20.965.173c.128 0 .232.13.232.291s-.104.292-.232.292-.232-.131-.232-.292.104-.291.232-.291zm-16.115.028c1.104-.011 1.623.499 1.545.623-.105.165-.658-.329-2.26.09-.924.242-1.601.629-2.275 1.137-.808-.12-1.362.06-1.362.06s1.063-1.078 3.054-1.691c.498-.153.931-.215 1.299-.219zm-17.912.054c.207 0 .374.171.374.381s-.167.382-.374.382-.374-.171-.374-.382.168-.381.374-.381zm-2.551.172c.075.458.408.401.365.673-.394-.079-.788-.051-1.25.067.331-.413.592-.732.884-.741zm37.282.247c-.104.095-.165.175-.161.337.003.104-.144.151-.232.124s-.159-.149-.085-.223c.121-.121.155-.197.178-.332s.155-.157.223-.135.171.142.076.229zm-35.679-.096c.045.003.091.014.14.032.123.252.049.563.673.782 0 0-1.059-.25-1.478-.265-.007-.098.043-.192.043-.192a.49.49 0 0 0 .287-.245.47.47 0 0 1 .335-.112zm2.467.2c.203 0 .367.161.367.36s-.164.359-.367.359-.366-.161-.366-.359.164-.36.366-.36zm33.469.015c.126 0 .228.138.228.307s-.102.307-.228.307-.228-.137-.228-.307.102-.307.228-.307zm-23.513.105c.18 0 .326.146.326.326s-.146.326-.326.326-.326-.146-.326-.326.146-.326.326-.326zm1.183.087s.213.201.457.127c.165.284.229.832-.272 1.049-.561.243-.831-.373-.831-.373s.255-.187.181-.441c.201-.169.466-.362.466-.362zm-11.91.168c.128.3.216.572.625.778-.82-.378-1.119-.434-1.119-.434s.285-.03.494-.344zm20.01.059c1.856.479 3.308.883 4.475 1.661.38.253.329.853-.434.269s-4.041-1.931-4.041-1.931zm-17.653.05c.231 0 .419.181.419.404s-.188.404-.419.404-.419-.181-.419-.404.188-.404.419-.404zm1.943.341c.191 0 .347.176.347.392s-.155.392-.347.392-.347-.176-.347-.392.155-.392.347-.392zm4.96.141c.196 0 .355.161.356.359s-.159.359-.356.359-.356-.161-.356-.359.159-.359.356-.359zm1.135.164s.235.194.511.067c.254.593.12.897-.25 1.085-.667.339-.719-.36-.719-.36s.222-.222.127-.55c.159-.18.332-.242.332-.242zm-4.453.038c.14 0 .254.164.254.366s-.114.367-.254.367-.255-.164-.255-.367.114-.367.255-.366zm1.631.052c.182 0 .329.153.329.341s-.147.34-.329.341-.33-.152-.33-.341.148-.341.33-.341zm27.078 0c.233 0 .423.211.423.471s-.189.471-.423.471-.423-.211-.423-.471.189-.471.423-.471zm-10.78.007s1.234.285 1.751.539c.823.404 1.766.763 1.482 1.227s-1.265-.339-1.796-.733l-1.437-1.033zm-20.67.054c.14-.001.454.047.735.44.374.524.179 1.182.179 1.182s.669-.545.748 0c.133.909-.873.409-1.407.075-.359-.224-.688-.524-1.212-1.137.718.135.883-.554.883-.554s.027-.005.073-.006zm10.631.398c.821-.005 2.077 1.002 1.823 1.314-.269.329-.494-.18-.868-.509s-1.092-.793-1.092-.793c.044-.007.091-.011.138-.011zm8.363.071s1.798.928 1.976 1.497c.224.718-.156 1.569-.674 1.362-.423-.477.517-.562.24-1.392-.178-.533-1.541-1.467-1.541-1.467zm-15.401.015c.149 0 .27.137.27.307s-.121.307-.27.306-.269-.137-.269-.306.12-.307.269-.307zm5.621.071c.139 0 .236.023.26.068.074.138-.63.677-1.183.938-.243-.222-.191-.71-.191-.71.368-.2.829-.297 1.114-.297zm-3.654.011s.318.391.699.296c.095.614-.137.778-.688.804-.962.045-.857-.55-.857-.55s.339-.116.328-.455l.518-.095zm-3.493.04a1.6 1.6 0 0 1 .056.001c.389.733.871.402.871.402.075.314.314.314.314.314s-.457.179-.479.583c-.03.561.638.549.769.541-.194.002-.621-.305-.305-.735.329-.449 1.257-.135 1.122.688s-1.212.658-2.065.344-.195-.644-.27-1.212-.628-.598-.628-.598.046-.32.614-.327zm4.979.626c.106 0 .191.089.191.198s-.086.199-.191.198-.191-.089-.191-.198.085-.198.191-.198zm4.329.509s.509 1.062-.135 1.437c-.783.455-1.167-.568-1.167-.568a.76.76 0 0 0 1.048.134c.374-.371.372-.534.254-1.003zm-4.622.1c.157 0 .284.137.284.306s-.127.307-.284.307-.284-.138-.284-.307.127-.306.284-.306zm-1.904.035c.075 0 .135.067.135.15s-.06.15-.135.15-.134-.067-.134-.15.06-.15.134-.15zm.606.225c.111 0 .202.087.202.194s-.09.195-.202.195-.202-.087-.202-.195.091-.194.202-.194zm.606.12c.124 0 .225.104.225.232s-.101.232-.225.232-.224-.104-.224-.232.1-.232.224-.232zm-5.359.214c.255-.013 1.029.483 1.647.728.868.344 1.332-.179 1.407.27.157.942-3.218-.749-3.098-.988.012-.006.027-.009.044-.01z" fill="#d3bc5f" stroke="#540" stroke-width=".265"/></svg>