<svg xmlns="http://www.w3.org/2000/svg" width="344.64" height="173.579" viewBox="0 0 91.186 45.926" stroke-linejoin="round" xmlns:v="https://vecta.io/nano"><path d="M45.504.132c-.004.002-3.999 2.122-3.83 5.507-1.609 1.185-3.098-.409-4.706.692s-2.441 5.722 2.046 5.214c-.381 3.937-5.695 3.037-5.697-1.454 0-1.046-.836.512-.836.512s-1.178-.762-1.474.508c-1.097-1.196-3.404-1.397-4.463.677 1.281.527 1.031 1.354 1.031 1.354s-3.201.102-4.099 1.629c-.221-.992-1.317-.239-1.317-.239s.03-1.706-.868-.868c-.475-.241.287-2.065-.689-1.856-1.211.258.09 2.994.09 2.994s-1.137.988-.658 2.664c-1.532-.102-2.786.705-3.832 1.946-3.367 3.996-4.4 1.048-5.537-2.305-.833-2.456 2.275 24.814 9.698 22.719.161 3.112.643 3.021 3.54.942-.893 2.688-.783 5.108.441 5.024 2.185-.15.088-3.087.988-6.025 0 0 1.365 5.137 3.472 4.64.997-.236.599-2.245.599-2.245s2.784 3.622 7.363 2.544a.96.96 0 0 0 .479 1.018s1.189-.237 2.215-1.377c.524-.582 1.168-1.467 2.724-.928s3.322.599 3.322.599h.174s1.766-.06 3.322-.599 2.2.346 2.724.928c1.026 1.14 2.215 1.377 2.215 1.377s.598-.297.479-1.018c4.58 1.078 7.363-2.544 7.363-2.544s-.398 2.009.599 2.245c2.107.498 3.472-4.64 3.472-4.64.899 2.938-1.198 5.875.988 6.025 1.224.084 1.335-2.336.441-5.024 2.897 2.079 3.379 2.17 3.54-.942 7.423 2.095 10.531-25.175 9.698-22.719-1.137 3.352-2.17 6.301-5.537 2.305-1.046-1.241-2.3-2.047-3.832-1.946.479-1.676-.658-2.664-.658-2.664s1.301-2.735.09-2.994c-.976-.208-.214 1.615-.689 1.856-.898-.838-.868.868-.868.868s-1.097-.753-1.317.239c-.898-1.527-4.099-1.629-4.099-1.629s-.25-.827 1.031-1.354c-1.058-2.074-3.366-1.873-4.463-.677-.296-1.27-1.474-.508-1.474-.508s-.836-1.558-.836-.512c-.002 4.49-5.316 5.391-5.697 1.454 4.487.508 3.655-4.114 2.046-5.214s-3.098.493-4.706-.692c.169-3.385-3.826-5.505-3.828-5.506zm0 2.485h.178s2.751 2.476 1.926 3.45-1.926-.169-1.926-.169h-.178s-1.101 1.143-1.926.169 1.926-3.45 1.926-3.45zm-2.857 4.91s.551.142.652.859c.159 1.137.886 1.548 1.118 1.652-.305-.13-1.531-.718-2.532-2.151.315.019.762-.36.762-.36zm5.893 0s.447.379.762.36c-1 1.433-2.226 2.021-2.532 2.151.232-.104.959-.515 1.118-1.652.1-.717.652-.859.652-.859zm-9.53.899c.78 0 1.987.482 2.706.964 2.042 1.37 2.611 3.137 2.477 3.027 0 0-1.312-1.926-3.619-2.794-1.023-.385-2.265-.064-2.307-.572-.038-.451.276-.625.744-.625zm13.168 0c.468 0 .782.173.744.625-.042.508-1.285.187-2.307.572-2.307.868-3.619 2.794-3.619 2.794-.134.111.435-1.657 2.477-3.027.719-.482 1.926-.964 2.706-.964zm-11.374 3.225a.12.12 0 0 1 .023.003c1.818.432 2.265 1.778 2.265 1.778-1.609-.931-2.329-.444-2.329-.444s-.273-1.351.04-1.337zm9.58 0c.313-.014.04 1.337.04 1.337s-.72-.487-2.329.444c0 0 .447-1.346 2.265-1.778a.12.12 0 0 1 .023-.003zm-4.798 1.123c.325 1.265 1.092 1.418 1.092 1.418s-.931 1.439-1.121 2.857c-.212-1.609-1.122-2.878-1.122-2.878s.804-.164 1.151-1.397zm-4.738 1.293s3.281.508 3.704 4.593c-1.058-2.752-3.704-4.593-3.704-4.593zm9.491 0s-2.646 1.841-3.704 4.593c.423-4.085 3.704-4.593 3.704-4.593zm-28.75 1.438c.281 0 .509.261.509.584s-.228.584-.509.583-.509-.261-.509-.583.228-.584.509-.584zm48.008 0c.281 0 .509.261.509.584s-.228.584-.509.583-.509-.261-.509-.583.228-.584.509-.584zm-46.062.539s.538.779.419 1.751c-.174 1.414.688 2.23.688 2.23s-1.093.404-1.542.763c-.464-2.948.434-4.744.434-4.744zm44.117 0s.898 1.796.434 4.744c-.449-.359-1.542-.763-1.542-.763s.862-.816.688-2.23c-.119-.972.419-1.751.419-1.751zm-47.499 1.991c1.676.344 2.664 2.933 2.664 2.933-.808.569-1.586 1.302-1.586 1.302s.538-1.556-1.078-4.235zm50.882 0c-1.616 2.679-1.078 4.235-1.078 4.235s-.778-.734-1.586-1.302c0 0 .988-2.589 2.664-2.933zm-40.405 2.709l-.03.853-.988.089.03-.913zm29.928 0l.988.03.03.913-.988-.089zm-28.686.045l1.062.134-.03.853-1.092-.134zm27.444 0l.06.853-1.092.134-.03-.853zm-25.453.329l.598.284-.045.823-.613-.284zm23.463 0l.06.823-.613.284-.045-.823zm-25.823 3.313c1.115-.009 2.177.24 3.123.876 4.656 3.133 5.08 8.297 5.08 8.297s-7.619.381-11.853.085-6.519-1.905-7.959-5.122c2.058-.101 7.234-4.1 11.608-4.135zm28.184 0c4.374.035 9.55 4.034 11.608 4.135-1.439 3.217-3.726 4.826-7.959 5.122s-11.853-.085-11.853-.085.423-5.164 5.08-8.297c.946-.636 2.008-.885 3.123-.876zm-36.744 9.173c.593 1.101 1.693 1.566 1.693 1.566s-.931-.254-1.058.931c-.137 1.282.72 1.228.72 1.228s-.551 2.54-2.794 1.693c1.736-2.074 1.439-5.419 1.439-5.419zm45.304 0s-.296 3.345 1.439 5.419c-2.244.847-2.794-1.693-2.794-1.693s.857.054.72-1.228c-.127-1.185-1.058-.931-1.058-.931s1.101-.466 1.693-1.566zm-41.198 2.032s1.439.297 3.048.297c-2.244 2.879-1.439 5.122-1.439 5.122s-2.667-.042-1.947-2.667c0 0 1.104.102 1.297-.879.275-1.402-.958-1.873-.958-1.873zm37.092 0s-1.233.471-.958 1.873c.192.98 1.297.879 1.297.879.72 2.625-1.947 2.667-1.947 2.667s.804-2.244-1.439-5.122c1.609 0 3.048-.297 3.048-.297z" fill="#999" stroke="#666" stroke-width=".265"/><path d="M18.843 18.138c.046-.001.092 0 .138.005.176.016.352.071.523.16.165.086.326.204.477.35a2.87 2.87 0 0 1 .413.51 3.89 3.89 0 0 1 .541 1.409c.099.545.101 1.152-.031 1.792-.068.331-.182.628-.332.893s-.339.506-.549.711c-.435.425-.968.719-1.496.915l-.056.021c-.506.182-1.056.298-1.6.347-.262.023-.519.031-.762.023a4.54 4.54 0 0 1-.654-.065c-.761-.138-1.462-.465-2.079-.98-.631-.526-1.137-1.219-1.527-2.017a7.8 7.8 0 0 1-.756-2.722c-.041-.475-.024-.795-.01-.926.027-.263.072-.267.084-.266s.042.018.058.268l.075.901c.071.555.25 1.555.794 2.622.391.764.886 1.41 1.485 1.891.247.198.507.364.777.498l.136-.074a1.1 1.1 0 0 0 .154-.112.7.7 0 0 0 .127-.148c.037-.058.066-.125.084-.203a.84.84 0 0 0 .017-.261 1.39 1.39 0 0 0-.098-.381c-.052-.136-.112-.249-.166-.339l-.094-.137-.035-.044c-.031-.036-.055-.055-.07-.064s-.021-.013-.027-.013c-.391.248-.785-.311-.414-.581.011-.008.046-.053.185-.106.051-.019.117-.038.196-.044s.164-.001.255.025a.74.74 0 0 1 .263.14c.089.073.158.162.21.252a1.09 1.09 0 0 1 .052.102 1.3 1.3 0 0 1 .08.25c.031.144.045.298.053.463a2.47 2.47 0 0 1-.02.476l-.003.021a1.38 1.38 0 0 1-.095.342c-.044.102-.1.189-.164.263a.89.89 0 0 1-.201.171.83.83 0 0 1-.217.096 3.9 3.9 0 0 0 .954.28l.28.033.089-.035c.104-.036.32-.1.522-.204.091-.047.185-.104.273-.174s.164-.146.231-.239.121-.196.159-.316.058-.261.056-.415-.022-.289-.055-.392c-.03-.093-.07-.155-.109-.193s-.073-.052-.106-.059-.071-.008-.111-.003-.086.016-.129.031-.088.036-.123.056c-.102.06-.105.093-.09.099-.563.257-.954-.583-.394-.847.029.012.069-.005.279-.028.069-.008.157-.014.253-.013a1.34 1.34 0 0 1 .3.037.97.97 0 0 1 .314.138c.103.07.19.162.258.276s.114.251.138.396a2.2 2.2 0 0 1 .019.514 1.86 1.86 0 0 1-.114.54 1.56 1.56 0 0 1-.236.417 1.64 1.64 0 0 1-.313.3c-.053.039-.106.074-.16.105l.087-.008c.513-.054 1.027-.171 1.494-.348l.052-.02c.487-.191.962-.461 1.342-.836a2.76 2.76 0 0 0 .473-.615c.128-.228.226-.483.286-.77a4.31 4.31 0 0 0 .033-1.628c-.088-.495-.262-.922-.476-1.256-.109-.171-.228-.315-.351-.434s-.254-.213-.378-.276-.251-.1-.364-.108-.226.012-.325.056a.82.82 0 0 0-.275.205c-.082.092-.149.201-.201.317-.058.13-.1.267-.128.398-.033.156-.048.306-.052.433-.009.388.099.626.157.763l.056.15c.031.117.007.157.006.153.054.769-1.097.858-1.161.089 0-.004-.035-.069-.01-.215.009-.055.029-.115.054-.184.093-.252.143-.34.276-.834l.005-.019.148-.486c.053-.149.121-.313.21-.472.079-.142.179-.287.307-.413.118-.117.262-.221.436-.292a1.12 1.12 0 0 1 .396-.083zm12.987.926c2.197-.009 4.559.596 6.726 2.367 5.334 4.36 4.826 13.758 4.826 13.758-2.689.565-4.716-.721-8.872.369-2.242.588-3.4 1.755-3.937 3.605-.47 1.621.212 3.123 2.639 4.927-2.498-.99-4.411-2.063-4.488-4.47-.05-1.555.596-2.901 1.367-3.723-.964-.102-4.341-.101-6.52-1.555a10.54 10.54 0 0 1-.596-.429 14.36 14.36 0 0 1 .002 1.239c-.032.716-.129 1.54-.377 2.262a3.69 3.69 0 0 1-.482.962c-.209.29-.462.523-.762.683l-.142.075a4.64 4.64 0 0 1-.826.332c-.292.084-.566.124-.825.126a2.33 2.33 0 0 1-.682-.095c-.206-.061-.383-.147-.535-.242-.337-.212-.55-.472-.654-.629a1.04 1.04 0 0 1-.116-.218c-.044-.125-.004-.16.008-.165s.056-.015.144.068c.041.039.078.083.156.164.118.124.329.335.629.491.135.07.289.13.463.167a1.91 1.91 0 0 0 .569.033c.214-.019.444-.072.689-.165.228-.087.462-.207.701-.359l.121-.079c.191-.136.343-.325.461-.561a2.91 2.91 0 0 0 .249-.809c.107-.63.083-1.352.011-2.008-.081-.742-.222-1.406-.297-1.773a14.24 14.24 0 0 1-.008-.04c-.123-.607-.141-.783-.14-.777-.019-.085-.022-.172-.01-.258-2.585-2.993-3.255-6.675-3.255-6.675.931-.085 3.979-2.836 6.308-4.36 1.382-.905 4.242-2.227 7.453-2.24h.001zm-.847.991c-2.663.013-4.598.73-6.544 1.994-3.804 2.471-5.448 4.011-5.448 4.011l.318.825c1.82-.466 6.843-3.676 9.341-4.268 1.715-.407 6.04-1.017 9.397 2.879 2.657 3.084 3.09 8.212 3.09 8.212l1.44-.045c-.509-6.436-2.335-10.446-6.286-12.452-1.605-.815-3.488-1.164-5.31-1.155zm.578 4.376c-4.374.035-9.55 4.034-11.608 4.135.589 1.318 1.745 2.661 2.694 3.46 1.78 1.197 3.525 1.529 5.265 1.662 4.233.296 11.853-.085 11.853-.085s-.423-5.164-5.08-8.297c-.946-.636-2.008-.885-3.123-.876zm-17.641 3.411a1.04 1.04 0 0 1 .064.002c.037.003.069.015.096.028s.049.03.068.045c.037.031.07.07.098.109s.057.085.085.135a2.76 2.76 0 0 1 .085.166 6.88 6.88 0 0 1 .181.43 18.57 18.57 0 0 1 .202.548l.464 1.373.46 1.373a2.38 2.38 0 0 0 .26.201.93.93 0 0 0 .243.118.39.39 0 0 0 .101.017c.03 0 .057-.004.08-.012s.045-.021.066-.039.043-.045.065-.081a.71.71 0 0 0 .064-.143 1.46 1.46 0 0 0 .052-.216c.014-.082.022-.16.025-.234.009-.186-.008-.372-.054-.544a1.29 1.29 0 0 0-.111-.286.76.76 0 0 0-.14-.189c-.049-.047-.093-.07-.126-.078s-.05 0-.061.008a.51.51 0 0 0-.045.045.74.74 0 0 0-.073.105l-.029.048c-.214.372-.772.053-.56-.32.006-.011.024-.045.054-.087s.112-.149.229-.231c.095-.067.221-.124.371-.129.124-.004.244.029.353.094.098.059.182.14.253.237.282.396.375.817.36 1.254.012.381-.122.877-.396 1.094-.304.24-.59.12-.819-.074.39 1.209 1.113 2.952 1.83 4.003a3.35 3.35 0 0 0 .33.405c.107.11.208.191.301.246.217.129.411.203.579.234s.303.022.421-.013a.83.83 0 0 0 .323-.185 1.39 1.39 0 0 0 .275-.356 2.5 2.5 0 0 0 .212-.518c.058-.196.1-.411.127-.637.054-.463.039-.96-.042-1.432-.084-.492-.225-.859-.373-1.121-.162-.286-.332-.444-.455-.52-.431.888-1.518.284-1.228-.558.07-.146.184-.314.365-.444a1.06 1.06 0 0 1 .53-.197 1.21 1.21 0 0 1 .525.074 1.61 1.61 0 0 1 .452.26c.26.209.504.518.7.931.181.382.325.862.395 1.446a5.96 5.96 0 0 1-.036 1.683c-.045.267-.111.525-.197.766a3.19 3.19 0 0 1-.323.666c-.13.201-.285.378-.467.519s-.393.244-.623.293a1.6 1.6 0 0 1-.724-.021c-.251-.063-.506-.18-.762-.347-.147-.096-.285-.22-.412-.36a4.07 4.07 0 0 1-.373-.486c-.243-.366-.473-.808-.688-1.278-.425-.933-.816-2.04-1.138-3.013l-.072-.218-.513-1.612-.437-1.374-.185-.541c-.058-.16-.112-.297-.16-.409-.024-.056-.047-.104-.068-.145a1.1 1.1 0 0 0-.055-.098c-.01-.015-.018-.025-.023-.032-.037-.004-.07-.004-.098-.002-.039.003-.071.011-.098.022a.23.23 0 0 0-.073.048c-.022.021-.043.049-.06.084-.036.074-.056.173-.058.294-.002.128.018.269.053.415.037.153.092.265.147.347.046.068.094.121.136.16.018.017.037.033.055.047a1.26 1.26 0 0 0 .169.113c.061.035.073.044.072.053s-.016.021-.092.014c-.05-.005-.129-.021-.22-.066-.024-.012-.049-.025-.074-.041-.058-.037-.126-.09-.192-.166-.08-.092-.161-.22-.219-.399a2.05 2.05 0 0 1-.1-.468c-.011-.143-.002-.287.042-.416.022-.063.052-.124.094-.179s.093-.102.155-.141a.64.64 0 0 1 .206-.081c.056-.012.116-.018.179-.018zm22.237 8.113c.114.001.225.011.332.028.462.077.844.298 1.109.556.153.149.27.312.351.477.098.198.142.393.147.574a1.22 1.22 0 0 1-.138.605c-.142.273-.357.439-.453.51-.396.283-.826-.304-.437-.596a.81.81 0 0 0 .234-.258c.013-.025.025-.051.035-.079a.51.51 0 0 0 .029-.168c.001-.076-.014-.17-.063-.278-.041-.091-.105-.192-.2-.29a1.41 1.41 0 0 0-.732-.397 1.43 1.43 0 0 0-.467-.017c-.16.021-.33.07-.503.157-.179.091-.375.219-.573.382a4.55 4.55 0 0 0-.581.576 4.32 4.32 0 0 0-.855 1.546c-.087.297-.131.592-.131.882 0 .26.036.512.105.754.015.051.031.103.049.155.104.298.27.607.518.918.241.301.56.604.976.898.408.289.812.487 1.207.615a3.87 3.87 0 0 0 .85.173 4.49 4.49 0 0 1-.718-.368c-.289-.183-.625-.447-.876-.8-.117-.165-.217-.352-.284-.562-.065-.204-.098-.429-.086-.674a2.85 2.85 0 0 1 .338-1.231c.007-.014.015-.027.023-.041.168-.293.405-.568.706-.759a1.58 1.58 0 0 1 .451-.198c.153-.039.315-.053.478-.03a1.1 1.1 0 0 1 .459.174 1.27 1.27 0 0 1 .369.384c.184.287.286.544.328.775a1.32 1.32 0 0 1 .019.331c-.008.106-.028.2-.056.284a1.14 1.14 0 0 1-.223.386c-.096.11-.146.144-.159.159-.462.255-.849-.433-.391-.696-.01.012-.012.031.033.006a.28.28 0 0 0 .104-.107c.016-.027.031-.063.041-.109a.57.57 0 0 0 .011-.167c-.009-.134-.059-.321-.195-.568a.75.75 0 0 0-.192-.234.58.58 0 0 0-.233-.111c-.088-.02-.184-.021-.286-.003a1.08 1.08 0 0 0-.325.117c-.237.128-.442.334-.599.574l-.021.033c-.177.283-.305.639-.345 1.056a1.59 1.59 0 0 0 .045.564c.047.179.124.343.219.493.206.326.5.586.766.779.291.212.584.367.751.454l.059.03.144.075c.745-.002 1.422-.212 1.974-.464a1.14 1.14 0 0 1-.096-.063 2.32 2.32 0 0 1-.452-.451c-.142-.184-.29-.428-.378-.72-.041-.135-.069-.282-.077-.439a1.84 1.84 0 0 1 .051-.52c.041-.166.092-.317.155-.452a1.45 1.45 0 0 1 .208-.327 1.09 1.09 0 0 1 .252-.218 1.04 1.04 0 0 1 .271-.119c.188-.053.363-.047.474-.038.163.014.224.027.24.022.416.218.103.845-.321.642.014-.004.021-.033-.063-.083a.53.53 0 0 0-.25-.071.49.49 0 0 0-.162.023.57.57 0 0 0-.182.1c-.065.052-.13.123-.192.219a1.7 1.7 0 0 0-.176.375c-.056.161-.079.307-.084.434a1.43 1.43 0 0 0 .041.402 1.91 1.91 0 0 0 .327.67c.148.202.314.363.399.45.05.051.085.089.11.118a7.85 7.85 0 0 0 1.425-.897c.215-.168.345-.279.425-.344.156-.125.184-.116.194-.108s.029.038-.104.199c-.062.075-.188.215-.391.399a6.95 6.95 0 0 1-1.481 1.031c-.583.299-1.334.568-2.185.584a4.19 4.19 0 0 1-1.273-.173 4.8 4.8 0 0 1-1.332-.64 5.24 5.24 0 0 1-1.086-.958c-.288-.343-.489-.692-.621-1.038-.023-.06-.044-.121-.063-.181-.09-.283-.141-.58-.149-.887-.01-.342.033-.688.124-1.034a4.86 4.86 0 0 1 .921-1.774 5.18 5.18 0 0 1 .641-.667c.222-.192.449-.353.672-.474.232-.126.468-.204.7-.242a2.09 2.09 0 0 1 .349-.027zm6.463.473c.045 0 .09.001.136.003.166.007.341.028.515.07a1.81 1.81 0 0 1 .494.195 1.41 1.41 0 0 1 .41.362 1.6 1.6 0 0 1 .265.545c.057.205.077.41.057.613a1.63 1.63 0 0 1-.119.47l.105.058a3.23 3.23 0 0 0-.115-.035l-.024.054a2.1 2.1 0 0 1-.311.471 2.85 2.85 0 0 1-.421.395c-.344.265-.711.438-.999.539-.171.06-.316.095-.427.115l-.067.011c-.221.034-.364.022-.43.016.064-.001.208-.01.421-.061.021-.005.042-.011.065-.017a3.46 3.46 0 0 0 .411-.138c.278-.113.631-.297.948-.564a2.62 2.62 0 0 0 .382-.393c.11-.141.199-.291.262-.448.004-.01.008-.021.011-.031l-.294-.075c-.379-.094-.859-.19-1.382-.14-.538.051-.929.243-1.184.432l-.029.022c-.31.238-.482.514-.584.7l-.066.124a1.93 1.93 0 0 1-.108.191c-.15.324-.637.11-.501-.22.002-.005.028-.103.148-.266.029-.04.065-.084.107-.132a3.39 3.39 0 0 1 .828-.662l.036-.02a2.92 2.92 0 0 1 1.339-.38c.55-.022 1.068.107 1.429.245a3.39 3.39 0 0 1 .281.123c.043-.131.066-.264.069-.397a1.37 1.37 0 0 0-.092-.518 1.12 1.12 0 0 0-.26-.412.96.96 0 0 0-.341-.214c-.123-.046-.255-.069-.392-.076a2.08 2.08 0 0 0-.414.023 3.17 3.17 0 0 0-.727.205c-.099.041-.173.077-.209.094-.087.04-.094.034-.092.033-.487.185-.778-.534-.299-.739.003-.001.016-.019.132-.049a3.71 3.71 0 0 1 .271-.054c.165-.027.449-.068.762-.067zm1.824 3.533c.412.003.541.559.172.743h0c-.002.004-.024.027-.116.062-.151.057-.495.154-1.004.447-.088.051-.176.105-.263.162-.637.42-1.089.893-1.601 1.373-.192.179-.376.328-.451.399.053-.094.151-.301.31-.522.386-.54.969-1.064 1.508-1.551l.238-.215.881-.777c.102-.076.145-.078.148-.079a.39.39 0 0 1 .178-.041zm-.681-32.838s-1.482-1.863-.339-4.656m.889 10.625s-2.159-2.54-6.942-3.26m7.239 1.566S41.773 7.462 38.895 6.7m33.448 11.439c-.046-.001-.092 0-.138.005-.176.016-.352.071-.523.16-.165.086-.326.204-.477.35a2.87 2.87 0 0 0-.413.51 3.89 3.89 0 0 0-.541 1.409c-.099.545-.101 1.152.031 1.792.068.331.182.628.332.893s.339.506.549.711c.435.425.968.719 1.496.915l.056.021c.506.182 1.056.298 1.6.347.262.023.519.031.762.023a4.54 4.54 0 0 0 .654-.065c.761-.138 1.462-.465 2.079-.98.631-.526 1.137-1.219 1.527-2.017a7.8 7.8 0 0 0 .756-2.722c.041-.475.024-.795.01-.926-.027-.263-.073-.267-.084-.266s-.042.018-.058.268c-.005.086-.022.482-.075.901-.071.555-.25 1.555-.794 2.622-.391.764-.886 1.41-1.485 1.891-.247.198-.507.364-.777.498-.048-.024-.091-.047-.136-.074a1.1 1.1 0 0 1-.154-.112.7.7 0 0 1-.127-.148c-.037-.058-.066-.125-.084-.203a.84.84 0 0 1-.017-.261 1.39 1.39 0 0 1 .098-.381c.052-.136.112-.249.166-.339.032-.053.064-.099.094-.137a.95.95 0 0 1 .035-.044c.031-.036.055-.055.07-.064s.021-.013.027-.013c.391.248.785-.311.414-.581-.011-.008-.046-.053-.185-.106-.051-.019-.117-.038-.196-.044s-.164-.001-.255.025a.74.74 0 0 0-.263.14c-.089.073-.158.162-.21.252a1.09 1.09 0 0 0-.052.102 1.3 1.3 0 0 0-.08.25c-.031.144-.045.298-.053.463a2.47 2.47 0 0 0 .02.476l.003.021a1.38 1.38 0 0 0 .095.342c.044.102.1.189.164.263a.89.89 0 0 0 .201.171.83.83 0 0 0 .217.096 3.9 3.9 0 0 1-.954.28c-.087.014-.181.025-.28.033-.033-.014-.059-.024-.089-.035-.104-.036-.32-.1-.522-.204-.091-.047-.185-.104-.273-.174s-.164-.146-.231-.239-.121-.196-.159-.316-.058-.261-.056-.415.022-.289.055-.392c.031-.093.07-.155.109-.193s.073-.052.106-.059.071-.008.111-.003.086.016.129.031.088.036.123.056c.103.06.105.093.09.099.563.257.954-.583.394-.847-.029.012-.069-.005-.279-.028-.069-.008-.157-.014-.253-.013a1.34 1.34 0 0 0-.3.037.97.97 0 0 0-.314.138c-.103.07-.19.162-.258.276s-.114.251-.138.396a2.2 2.2 0 0 0-.019.514 1.86 1.86 0 0 0 .114.54 1.56 1.56 0 0 0 .236.417 1.64 1.64 0 0 0 .313.3c.053.039.106.074.16.105l-.087-.008c-.513-.054-1.027-.171-1.494-.348l-.052-.02c-.487-.191-.962-.461-1.342-.836a2.76 2.76 0 0 1-.473-.615c-.128-.228-.226-.483-.286-.77a4.31 4.31 0 0 1-.033-1.628c.088-.495.262-.922.476-1.256.109-.171.228-.315.351-.434s.254-.213.378-.276.251-.1.364-.108.226.012.325.056a.82.82 0 0 1 .275.205c.082.092.149.201.201.317.058.13.1.267.128.398.033.156.048.306.052.433.009.388-.099.626-.157.763-.025.058-.045.106-.056.15-.031.117-.007.157-.006.153-.054.769 1.097.858 1.161.089 0-.004.034-.069.01-.215-.009-.055-.029-.115-.054-.184-.093-.252-.143-.34-.276-.834l-.005-.019a6.64 6.64 0 0 0-.148-.486c-.053-.149-.121-.313-.21-.472-.079-.142-.179-.287-.307-.413-.118-.117-.262-.221-.436-.292a1.12 1.12 0 0 0-.396-.083zm-12.987.926c-2.197-.009-4.559.596-6.726 2.367-5.334 4.36-4.826 13.758-4.826 13.758 2.689.565 4.716-.721 8.872.369 2.242.588 3.4 1.755 3.937 3.605.47 1.621-.212 3.123-2.639 4.927 2.498-.99 4.411-2.063 4.488-4.47.05-1.555-.596-2.901-1.367-3.723.964-.102 4.341-.101 6.52-1.555a10.54 10.54 0 0 0 .596-.429 14.31 14.31 0 0 0-.002 1.239c.032.716.129 1.54.377 2.262a3.69 3.69 0 0 0 .482.962c.209.29.462.523.762.683l.142.075a4.64 4.64 0 0 0 .826.332c.292.084.566.124.825.126a2.33 2.33 0 0 0 .682-.095c.206-.061.383-.147.535-.242.337-.212.55-.472.654-.629a1.04 1.04 0 0 0 .116-.218c.044-.125.004-.16-.008-.165s-.056-.015-.144.068c-.041.039-.078.083-.156.164-.118.124-.329.335-.629.491-.135.07-.289.13-.463.167a1.91 1.91 0 0 1-.569.033c-.214-.019-.444-.072-.689-.165-.228-.087-.462-.207-.701-.359l-.121-.079c-.191-.136-.343-.325-.461-.561a2.91 2.91 0 0 1-.249-.809c-.107-.63-.083-1.352-.011-2.008.081-.742.222-1.406.297-1.773a14.29 14.29 0 0 0 .008-.04c.123-.607.141-.783.14-.777a.74.74 0 0 0 .01-.258c2.585-2.993 3.255-6.675 3.255-6.675-.931-.085-3.979-2.836-6.308-4.36-1.382-.905-4.242-2.227-7.453-2.24h-.001zm.847.991c2.663.013 4.598.73 6.544 1.994 3.804 2.471 5.448 4.011 5.448 4.011l-.318.825c-1.82-.466-6.843-3.676-9.341-4.268-1.715-.407-6.04-1.017-9.397 2.879-2.657 3.084-3.09 8.212-3.09 8.212l-1.44-.045c.509-6.436 2.335-10.446 6.286-12.452 1.605-.815 3.488-1.164 5.31-1.155zm-.578 4.376c4.374.035 9.55 4.034 11.608 4.135-.589 1.318-1.745 2.661-2.694 3.46-1.78 1.197-3.525 1.529-5.265 1.662-4.233.296-11.853-.085-11.853-.085s.423-5.164 5.08-8.297c.946-.636 2.008-.885 3.123-.876zm17.641 3.411a1.04 1.04 0 0 0-.064.002c-.037.003-.069.015-.096.028s-.049.03-.068.045c-.037.031-.07.07-.098.109s-.057.085-.085.135a2.76 2.76 0 0 0-.085.166 6.88 6.88 0 0 0-.181.43 18.57 18.57 0 0 0-.202.548l-.464 1.373-.46 1.373a2.38 2.38 0 0 1-.26.201.93.93 0 0 1-.243.118.39.39 0 0 1-.101.017c-.03 0-.057-.004-.08-.012s-.045-.021-.066-.039-.043-.045-.065-.081a.71.71 0 0 1-.064-.143 1.46 1.46 0 0 1-.052-.216c-.014-.082-.022-.16-.025-.234-.009-.186.008-.372.054-.544a1.29 1.29 0 0 1 .111-.286.76.76 0 0 1 .14-.189c.049-.047.093-.07.126-.078s.05 0 .061.008a.51.51 0 0 1 .045.045.74.74 0 0 1 .073.105l.029.048c.214.372.772.053.56-.32-.006-.011-.024-.045-.054-.087s-.112-.149-.229-.231c-.095-.067-.221-.124-.371-.129-.124-.004-.244.029-.353.094-.098.059-.182.14-.253.237-.282.396-.375.817-.36 1.254-.012.381.122.877.396 1.094.304.24.59.12.819-.074-.39 1.209-1.113 2.952-1.83 4.003a3.35 3.35 0 0 1-.33.405c-.107.11-.208.191-.301.246-.217.129-.411.203-.579.234s-.303.022-.421-.013a.83.83 0 0 1-.323-.185 1.39 1.39 0 0 1-.275-.356 2.5 2.5 0 0 1-.212-.518c-.058-.196-.1-.411-.127-.637-.054-.463-.039-.96.042-1.432.084-.492.225-.859.373-1.121.162-.286.332-.444.455-.52.431.888 1.518.284 1.228-.558-.07-.146-.184-.314-.365-.444a1.06 1.06 0 0 0-.53-.197 1.21 1.21 0 0 0-.525.074 1.61 1.61 0 0 0-.452.26c-.26.209-.504.518-.7.931-.181.382-.325.862-.395 1.446a5.96 5.96 0 0 0 .036 1.683c.045.267.111.525.197.766a3.19 3.19 0 0 0 .323.666c.13.201.285.378.467.519s.393.244.623.293a1.6 1.6 0 0 0 .724-.021c.251-.063.506-.18.762-.347.147-.096.285-.22.412-.36a4.07 4.07 0 0 0 .373-.486c.243-.366.473-.808.688-1.278.425-.933.816-2.04 1.138-3.013l.072-.218.513-1.612.437-1.374.185-.541c.058-.16.112-.297.16-.409.024-.056.047-.104.068-.145a1.1 1.1 0 0 1 .055-.098c.01-.015.018-.025.023-.032.037-.004.07-.004.098-.002.039.003.071.011.098.022a.23.23 0 0 1 .073.048c.022.021.043.049.06.084.036.074.056.173.058.294.002.128-.017.269-.053.415-.037.153-.092.265-.147.347-.046.068-.094.121-.136.16-.018.017-.037.033-.055.047a1.26 1.26 0 0 1-.169.113c-.061.035-.073.044-.072.053s.016.021.093.014c.05-.005.129-.021.22-.066.024-.012.049-.025.074-.041.058-.037.126-.09.192-.166.08-.092.161-.22.219-.399a2.05 2.05 0 0 0 .1-.468c.011-.143.002-.287-.042-.416-.022-.063-.052-.124-.094-.179s-.093-.102-.155-.141a.64.64 0 0 0-.206-.081c-.056-.012-.116-.018-.179-.018zm-31.558 5.866c-.362 0-.656.294-.656.656s.293.656.656.656.656-.294.656-.656-.294-.656-.656-.656zm9.321 2.247c-.114.001-.225.011-.332.028-.462.077-.844.298-1.109.556-.153.149-.27.312-.351.477-.098.198-.142.393-.147.574a1.23 1.23 0 0 0 .138.605c.142.273.357.439.453.51.396.283.826-.304.437-.596a.81.81 0 0 1-.234-.258c-.013-.025-.025-.051-.035-.079a.51.51 0 0 1-.029-.168c-.001-.076.014-.17.063-.278a1.04 1.04 0 0 1 .2-.29 1.41 1.41 0 0 1 .732-.397 1.43 1.43 0 0 1 .467-.017c.16.021.33.07.503.157.179.091.375.219.573.382a4.55 4.55 0 0 1 .581.576c.387.457.693.992.855 1.546.087.297.131.592.131.882 0 .26-.036.512-.105.754a2.75 2.75 0 0 1-.049.155c-.104.298-.27.607-.518.918-.241.301-.56.604-.976.898-.408.289-.812.487-1.207.615a3.87 3.87 0 0 1-.85.173 4.49 4.49 0 0 0 .718-.368c.289-.183.625-.447.876-.8.117-.165.217-.352.284-.562.065-.204.098-.429.086-.674a2.85 2.85 0 0 0-.338-1.231l-.023-.041c-.168-.293-.405-.568-.706-.759a1.58 1.58 0 0 0-.451-.198c-.153-.039-.315-.053-.478-.03a1.1 1.1 0 0 0-.459.174 1.27 1.27 0 0 0-.369.384c-.184.287-.286.544-.328.775-.021.119-.026.229-.019.331s.028.2.056.284a1.14 1.14 0 0 0 .223.386c.096.11.146.144.159.159.462.255.849-.433.391-.696.01.012.012.031-.033.006a.28.28 0 0 1-.104-.107c-.016-.027-.031-.063-.041-.109a.58.58 0 0 1-.011-.167c.009-.134.058-.321.195-.568a.75.75 0 0 1 .192-.234.58.58 0 0 1 .233-.111c.088-.02.184-.021.286-.003a1.08 1.08 0 0 1 .325.117c.237.128.442.334.599.574l.021.033c.177.283.305.639.345 1.056.019.204.001.391-.045.564-.047.179-.124.343-.219.493-.206.326-.5.586-.766.779-.291.212-.584.367-.751.454l-.059.03-.144.075c-.745-.002-1.422-.212-1.974-.464.027-.016.059-.036.096-.063a2.32 2.32 0 0 0 .452-.451c.142-.184.29-.428.378-.72.041-.135.069-.282.076-.439a1.82 1.82 0 0 0-.051-.52c-.041-.166-.092-.317-.155-.452a1.45 1.45 0 0 0-.208-.327 1.09 1.09 0 0 0-.252-.218 1.04 1.04 0 0 0-.271-.119c-.188-.053-.363-.047-.474-.038-.163.014-.224.027-.24.022-.416.218-.103.845.321.642-.014-.004-.021-.033.063-.083a.53.53 0 0 1 .25-.071.49.49 0 0 1 .162.023.57.57 0 0 1 .182.1.91.91 0 0 1 .192.219 1.7 1.7 0 0 1 .176.375c.056.161.079.307.084.434.005.148-.011.279-.041.402a1.91 1.91 0 0 1-.327.67c-.148.202-.314.363-.399.45a2.65 2.65 0 0 0-.11.118 7.85 7.85 0 0 1-1.425-.897c-.215-.168-.345-.279-.425-.344-.156-.125-.184-.116-.194-.108s-.029.038.104.199a4.17 4.17 0 0 0 .391.399 6.95 6.95 0 0 0 1.481 1.031c.583.299 1.334.568 2.185.584a4.19 4.19 0 0 0 1.273-.173 4.8 4.8 0 0 0 1.332-.64 5.24 5.24 0 0 0 1.086-.958c.288-.343.489-.692.621-1.038a3.27 3.27 0 0 0 .063-.181c.09-.283.141-.58.149-.887.01-.342-.033-.688-.124-1.034a4.86 4.86 0 0 0-.921-1.774 5.18 5.18 0 0 0-.641-.667c-.222-.192-.449-.353-.672-.474-.232-.126-.468-.204-.7-.242a2.09 2.09 0 0 0-.349-.027zm-6.463.473c-.045 0-.09.001-.136.003-.166.007-.341.028-.515.07a1.81 1.81 0 0 0-.494.195 1.41 1.41 0 0 0-.41.362 1.6 1.6 0 0 0-.265.545c-.057.205-.077.41-.057.613a1.63 1.63 0 0 0 .119.47l-.105.058a3.22 3.22 0 0 1 .115-.035l.024.054c.08.17.186.327.311.471a2.85 2.85 0 0 0 .421.395c.344.265.711.438.999.539.171.06.316.095.427.115l.067.011c.221.034.364.022.43.016-.064-.001-.208-.01-.421-.061a2.72 2.72 0 0 1-.065-.017 3.46 3.46 0 0 1-.411-.138c-.278-.113-.631-.297-.948-.564a2.62 2.62 0 0 1-.382-.393 1.85 1.85 0 0 1-.262-.448c-.004-.01-.008-.021-.011-.031l.294-.075c.379-.094.859-.19 1.382-.14.538.051.929.243 1.184.432l.029.022c.31.238.482.514.584.7.025.046.047.088.066.124.076.144.11.196.108.191.15.324.637.11.501-.22-.002-.005-.028-.103-.148-.266a1.87 1.87 0 0 0-.107-.132 3.39 3.39 0 0 0-.828-.662l-.036-.02a2.92 2.92 0 0 0-1.339-.38c-.55-.022-1.068.107-1.429.245-.105.04-.199.083-.281.123-.043-.131-.066-.264-.069-.397-.004-.175.028-.348.092-.518a1.12 1.12 0 0 1 .26-.412.96.96 0 0 1 .341-.214c.123-.046.255-.069.392-.076a2.08 2.08 0 0 1 .414.023 3.17 3.17 0 0 1 .727.205c.099.041.173.077.209.094.087.04.094.034.091.033.487.185.778-.534.299-.739-.003-.001-.016-.019-.132-.049a3.71 3.71 0 0 0-.271-.054c-.165-.027-.449-.068-.762-.067zm-2.858.03a.53.53 0 0 0-.529.529.53.53 0 0 0 .529.529.53.53 0 0 0 .529-.529.53.53 0 0 0-.529-.529zm0 2.455a.38.38 0 1 0 0 .762.38.38 0 1 0 0-.762zm1.034 1.047c-.412.003-.541.559-.172.743h0c.002.004.024.027.116.062.151.057.495.154 1.004.447a5.21 5.21 0 0 1 .263.162c.637.42 1.089.893 1.601 1.373.192.179.376.328.451.399-.053-.094-.151-.301-.31-.522-.386-.54-.969-1.064-1.508-1.551l-.238-.215-.881-.777c-.102-.076-.145-.078-.148-.079a.39.39 0 0 0-.178-.041zm-1.034 1.451c-.163 0-.296.133-.296.296s.133.296.296.296.297-.132.297-.296-.133-.296-.297-.296zm1.715-34.289s1.482-1.863.339-4.656m-.889 10.625s2.159-2.54 6.942-3.26m-7.239 1.566s2.836-3.937 5.715-4.699m-4.868 1.778a1.736 1.736 0 1 1-3.471 0 1.736 1.736 0 0 1 3.471 0zm-18.019 4.896c-.178.003-.356.037-.529.107a1.31 1.31 0 0 0-.439.29 1.29 1.29 0 0 0-.276.42c-.134.326-.143.697-.067 1.057.074.353.24.76.545 1.184a4.38 4.38 0 0 0 .479.557l-.145.088c-.124.074-.353.202-.637.297-.244.081-.544.144-.87.118a1.79 1.79 0 0 1-.476-.104 1.94 1.94 0 0 1-.484-.263c-.339-.25-.58-.489-.746-.711a1.47 1.47 0 0 1-.295-.637c-.015-.094-.017-.185-.004-.273s.037-.165.073-.241c.071-.148.186-.282.343-.399.124-.099.236-.153.332-.177a.5.5 0 0 1 .253-.003c.076.019.149.057.217.108a1.07 1.07 0 0 1 .202.204c.145.188.238.41.284.571.025.087.038.157.046.209.003.02.005.038.007.054.012.108.007.141.005.152-.094.494.643.641.746.149.015-.074.038-.21.007-.408-.005-.03-.011-.062-.019-.095a1.91 1.91 0 0 0-.101-.312c-.089-.215-.252-.506-.502-.752-.105-.103-.229-.201-.371-.276-.134-.071-.285-.122-.449-.136a1.05 1.05 0 0 0-.486.076c-.159.065-.313.168-.46.311-.18.182-.307.387-.374.605-.034.113-.052.227-.053.34-.001.12.015.237.045.35.057.216.174.456.384.713.19.233.454.476.809.726a2.11 2.11 0 0 0 .534.274 1.95 1.95 0 0 0 .522.101c.352.02.672-.056.924-.148a2.97 2.97 0 0 0 .649-.334 1.84 1.84 0 0 0 .152-.114c.188.18.402.355.645.524.256.178.497.305.725.392s.444.133.64.147a1.82 1.82 0 0 0 .548-.042c.172-.04.322-.103.45-.172a2.07 2.07 0 0 0 .593-.485 1.55 1.55 0 0 0 .071-.091l.036.037a4.12 4.12 0 0 0 1.19.832c.431.203.853.322 1.197.393.808.165 1.151.114 1.238.094a.18.18 0 0 0 .024-.007c.186.344.43.623.71.847.384.308.811.493 1.181.604.431.13.805.166 1.013.175.064.003.118.003.163.003a3.26 3.26 0 0 0-.028.424l.001.069c.01.325.085.653.22.966a2.89 2.89 0 0 0 .589.877c.249.254.548.463.883.596a2.16 2.16 0 0 0 1.107.138c.394-.055.724-.197.986-.356.299-.181.527-.394.682-.561a3.42 3.42 0 0 0 .222-.265c.273-.362.296-.499.302-.512.327-.727-.765-1.217-1.092-.489.006-.013-.018.047-.187.31-.035.055-.08.122-.135.194-.095.125-.228.277-.4.408-.149.114-.333.218-.557.273-.196.049-.405.048-.622-.012-.212-.059-.423-.172-.617-.333a2.04 2.04 0 0 1-.482-.591 1.87 1.87 0 0 1-.218-.685c-.002-.016-.004-.033-.005-.05a2.62 2.62 0 0 1 .108-.915c.093-.318.247-.647.474-.932a2.09 2.09 0 0 1 .866-.652c.365-.146.812-.202 1.348-.121a2.72 2.72 0 0 1 .71.203c.209.094.424.172.534.332.967 1.403 1.232 3.248 1.013 5.882a2.45 2.45 0 0 0-.279-.352 1.86 1.86 0 0 0-.362-.294 1.53 1.53 0 0 0-.451-.188c-.119-.028-.243-.042-.372-.043h-.001c-.058 0-.118.003-.179.008-.193.018-.376.062-.545.14-.16.074-.302.176-.425.304a1.57 1.57 0 0 0-.289.434 1.95 1.95 0 0 0-.15.51 2.14 2.14 0 0 0 .107 1.074 1.52 1.52 0 0 0 .187.349 1.28 1.28 0 0 0 .106.127c.19.2.387.279.497.32.667.244 1.045-.748.384-1.009-.011-.004-.048-.032-.106-.082a1.68 1.68 0 0 1-.043-.038 1.18 1.18 0 0 1-.122-.129 1.37 1.37 0 0 1-.271-.599 1.26 1.26 0 0 1-.019-.35.95.95 0 0 1 .09-.331.79.79 0 0 1 .228-.28c.109-.084.245-.146.407-.179s.319-.033.464-.003c.138.028.265.083.379.158s.213.166.301.268.166.218.229.329c.141.247.235.509.288.636l.023.053.036 1.315.117 5.151.009 1.33c.002.215.325.213.323-.003l-.009-1.33.044-5.153.021-1.595a3.56 3.56 0 0 1 .194-.404 2.12 2.12 0 0 1 .229-.329 1.43 1.43 0 0 1 .301-.268c.115-.075.241-.129.379-.158.145-.03.301-.03.464.003s.298.095.407.179a.79.79 0 0 1 .228.28.95.95 0 0 1 .09.331 1.26 1.26 0 0 1-.019.35 1.37 1.37 0 0 1-.271.599c-.048.059-.091.1-.122.129a1.79 1.79 0 0 1-.043.038c-.058.05-.096.078-.106.082-.661.262-.283 1.253.384 1.009.11-.042.307-.121.497-.32.037-.039.072-.081.106-.127a1.52 1.52 0 0 0 .187-.349 2.14 2.14 0 0 0 .107-1.074 1.95 1.95 0 0 0-.15-.51 1.57 1.57 0 0 0-.289-.434c-.123-.129-.265-.231-.425-.304-.17-.078-.352-.122-.545-.14-.061-.006-.121-.008-.179-.008a1.62 1.62 0 0 0-.372.043c-.165.039-.315.104-.452.188s-.255.184-.361.294c-.088.091-.165.188-.233.284.048-2.628.055-4.545.967-5.814.113-.158.325-.239.534-.332a2.72 2.72 0 0 1 .71-.203c.536-.081.983-.024 1.348.121a2.09 2.09 0 0 1 .866.652c.227.285.381.614.474.932a2.62 2.62 0 0 1 .108.915c-.001.017-.003.033-.005.05a1.87 1.87 0 0 1-.218.685 2.04 2.04 0 0 1-.482.591c-.193.161-.405.275-.617.333-.217.06-.427.062-.622.012-.224-.055-.408-.159-.557-.273-.172-.132-.305-.283-.4-.408-.055-.072-.1-.14-.135-.194-.169-.262-.192-.322-.187-.31-.327-.727-1.418-.238-1.092.489.006.013.029.149.302.512.057.076.131.167.222.265.155.167.383.38.682.561.262.159.592.301.986.356a2.16 2.16 0 0 0 1.107-.138c.334-.133.634-.342.883-.596a2.89 2.89 0 0 0 .589-.877c.135-.313.209-.641.22-.966.001-.023.001-.046.001-.069 0-.132-.009-.274-.028-.424.045.001.099 0 .163-.003.208-.009.582-.046 1.013-.175.37-.111.797-.296 1.181-.604.279-.224.524-.503.71-.847.007.003.014.005.024.007.087.02.43.071 1.238-.094.344-.07.766-.19 1.197-.393a4.12 4.12 0 0 0 1.19-.832l.036-.037a1.57 1.57 0 0 0 .071.091 2.07 2.07 0 0 0 .593.485c.128.069.278.131.45.172.163.038.346.057.548.042.196-.014.41-.059.64-.147s.469-.214.725-.392c.243-.169.457-.344.645-.524.033.028.081.065.152.114a2.97 2.97 0 0 0 .649.334c.252.092.572.168.924.148a1.95 1.95 0 0 0 .522-.101 2.11 2.11 0 0 0 .534-.274c.355-.249.619-.493.809-.726.21-.257.327-.497.384-.713.03-.114.046-.231.045-.35-.001-.113-.019-.227-.053-.34-.066-.219-.194-.423-.374-.605-.148-.142-.301-.246-.46-.311a1.05 1.05 0 0 0-.486-.076c-.163.014-.315.065-.449.136-.142.075-.265.173-.371.276-.25.245-.412.537-.502.752a1.91 1.91 0 0 0-.101.312 1.49 1.49 0 0 0-.019.095c-.031.198-.008.334.007.408.103.492.84.344.746-.149-.002-.011-.007-.044.005-.152l.007-.054c.008-.052.021-.122.046-.209.046-.16.139-.383.284-.571a1.07 1.07 0 0 1 .202-.204c.068-.051.141-.089.217-.108a.5.5 0 0 1 .253.003c.096.025.208.078.332.177.156.117.272.251.343.399.037.077.061.158.073.241a.89.89 0 0 1-.004.273 1.47 1.47 0 0 1-.295.637c-.165.222-.407.462-.746.711a1.94 1.94 0 0 1-.484.263 1.79 1.79 0 0 1-.476.104c-.325.026-.626-.037-.87-.118-.284-.095-.513-.223-.637-.297l-.145-.088a4.38 4.38 0 0 0 .479-.557c.304-.424.471-.831.545-1.184.075-.361.067-.731-.067-1.057a1.29 1.29 0 0 0-.276-.42 1.31 1.31 0 0 0-.439-.29c-.173-.07-.351-.104-.529-.107h-.001a1.71 1.71 0 0 0-.528.077c-.363.111-.681.326-.923.563a2.31 2.31 0 0 0-.585.921 1.76 1.76 0 0 0-.058.231 1.55 1.55 0 0 0-.025.314 1.43 1.43 0 0 0 .126.552.37.37 0 0 0 .669-.294c-.021-.047-.052-.143-.057-.279-.002-.052 0-.111.009-.178.005-.043.013-.091.026-.145.045-.186.148-.438.358-.691.165-.199.386-.384.64-.494a1.21 1.21 0 0 1 .363-.097c.121-.012.246-.003.371.033s.233.093.325.166.169.169.228.28c.126.237.164.54.114.868-.048.316-.186.698-.465 1.105a4.49 4.49 0 0 1-1.117 1.108c-.243.172-.47.295-.68.378s-.409.128-.587.143a1.66 1.66 0 0 1-.497-.03c-.156-.034-.294-.088-.413-.148-.273-.139-.468-.327-.57-.431-.036-.037-.063-.066-.086-.092a4.3 4.3 0 0 0 .718-1.08c.099-.216.172-.426.222-.624.018-.072.033-.142.044-.211.022-.126.035-.256.035-.386 0-.183-.024-.372-.091-.548-.063-.167-.166-.326-.32-.45s-.336-.199-.552-.227a1.85 1.85 0 0 0-.697.055 3.2 3.2 0 0 0-1.237.603 2.56 2.56 0 0 0-.744.959c-.179.41-.212.805-.162 1.134.055.36.203.615.306.757.112.153.225.245.261.276.562.468 1.273-.361.725-.845-.013-.011-.056-.055-.101-.106a.77.77 0 0 1-.16-.286c-.042-.137-.063-.341.01-.594.061-.209.188-.449.412-.674.21-.21.502-.404.888-.537.183-.063.326-.086.437-.085a.51.51 0 0 1 .253.059c.066.037.123.095.169.181.05.092.083.21.096.348a1.66 1.66 0 0 1-.001.303c-.005.057-.013.116-.023.178-.029.171-.081.358-.158.556-.146.372-.379.77-.703 1.132-.317.353-.688.619-1.064.819-.397.211-.792.345-1.121.433-.416.111-.758.111-1.172.219.055-.11.104-.226.147-.349a5.46 5.46 0 0 0 .118-.383 4.39 4.39 0 0 0 .155-1.154c-.002-.235-.026-.459-.072-.666s-.115-.392-.207-.556a1.3 1.3 0 0 0-.351-.409c-.144-.107-.309-.175-.49-.197s-.377.001-.576.066c-.204.067-.414.177-.631.327-.16.111-.301.223-.425.335a3.53 3.53 0 0 0-.554.624c-.235.342-.372.685-.452 1.001-.089.349-.106.662-.107.842 0 .095.004.17.012.221.021.137.061.165.066.175.397.893 1.736.298 1.339-.595.004.008.03.018-.011-.032-.014-.018-.04-.043-.073-.085-.066-.084-.166-.234-.221-.465a1.35 1.35 0 0 1 .038-.75 1.7 1.7 0 0 1 .333-.568c.091-.106.203-.213.337-.319.178-.141.344-.236.494-.291s.27-.066.377-.052a.54.54 0 0 1 .274.118.84.84 0 0 1 .215.276 1.66 1.66 0 0 1 .144.435 2.93 2.93 0 0 1 .05.567c-.001.323-.044.675-.127 1.037-.026.115-.057.234-.095.356-.141.466-.39.833-.706 1.124s-.687.491-1.025.628a5.64 5.64 0 0 1-.939.279l-.162.034c-.031-.183-.079-.374-.145-.568-.128-.375-.328-.768-.621-1.111-.286-.335-.656-.618-1.119-.788-.469-.171-1.01-.218-1.621-.111-.317.055-.592.147-.831.263-.248.12-.456.266-.63.422a2.92 2.92 0 0 0-.738 1.062c-.103.251-.163.481-.196.665a.35.35 0 0 0-.141.005c-.033-.184-.093-.417-.197-.67a2.92 2.92 0 0 0-.738-1.062c-.174-.156-.382-.302-.63-.422-.239-.116-.515-.208-.831-.263-.611-.107-1.152-.06-1.621.111-.463.17-.834.453-1.119.788-.293.343-.493.736-.621 1.111a3.71 3.71 0 0 0-.145.568l-.162-.034a5.64 5.64 0 0 1-.939-.279c-.338-.137-.707-.335-1.025-.628s-.565-.658-.706-1.124c-.037-.122-.068-.241-.095-.356-.083-.363-.127-.714-.127-1.037a2.93 2.93 0 0 1 .05-.567c.033-.169.082-.315.144-.435a.84.84 0 0 1 .215-.276.54.54 0 0 1 .274-.118c.107-.014.232-.001.377.052s.315.15.494.291a2.48 2.48 0 0 1 .337.319 1.7 1.7 0 0 1 .333.568 1.35 1.35 0 0 1 .038.75c-.055.231-.155.382-.221.465-.033.042-.058.068-.073.085-.041.05-.015.04-.011.032-.397.893.943 1.488 1.339.595.005-.01.045-.039.066-.175a1.51 1.51 0 0 0 .012-.221 3.56 3.56 0 0 0-.107-.842c-.08-.316-.217-.659-.452-1.001a3.53 3.53 0 0 0-.554-.624c-.124-.112-.265-.224-.425-.335-.217-.15-.427-.26-.631-.327-.198-.065-.392-.089-.576-.066s-.346.09-.49.197a1.3 1.3 0 0 0-.351.409c-.092.164-.161.352-.207.556s-.07.431-.072.666a4.39 4.39 0 0 0 .155 1.154c.033.125.072.253.118.383a2.9 2.9 0 0 0 .147.349c-.414-.108-.756-.107-1.172-.219-.328-.088-.724-.222-1.121-.433-.376-.2-.747-.465-1.064-.819-.324-.361-.557-.759-.703-1.132a2.88 2.88 0 0 1-.158-.556 2.15 2.15 0 0 1-.023-.178c-.01-.105-.01-.207-.001-.303.013-.138.047-.256.096-.348.046-.086.104-.144.169-.181a.51.51 0 0 1 .253-.059c.11-.001.254.022.437.085.386.133.679.327.888.537.224.225.351.465.412.674.074.253.052.457.01.594a.77.77 0 0 1-.16.286c-.044.052-.088.095-.101.106-.549.484.162 1.314.725.845.036-.031.15-.123.261-.276.104-.142.252-.397.306-.757.05-.33.018-.724-.162-1.134a2.56 2.56 0 0 0-.744-.959 3.2 3.2 0 0 0-1.237-.603 1.85 1.85 0 0 0-.697-.055c-.216.029-.402.107-.552.227s-.257.283-.32.45c-.066.176-.091.365-.091.548a2.32 2.32 0 0 0 .035.386 2.87 2.87 0 0 0 .044.211c.049.198.122.408.222.624a4.3 4.3 0 0 0 .718 1.08l-.086.092c-.102.105-.297.292-.57.431-.119.061-.257.114-.413.148a1.66 1.66 0 0 1-.497.03c-.178-.015-.374-.059-.587-.143s-.437-.206-.68-.378a4.49 4.49 0 0 1-1.117-1.108c-.278-.407-.416-.789-.465-1.105-.05-.328-.012-.631.114-.868.059-.111.136-.205.228-.28s.2-.13.325-.166.25-.045.371-.033a1.21 1.21 0 0 1 .363.097c.254.11.475.295.64.494.21.254.313.505.358.691a1.31 1.31 0 0 1 .026.145c.008.067.011.126.009.178-.005.136-.036.232-.057.279a.37.37 0 0 0 .669.294c.045-.101.119-.29.126-.552a1.56 1.56 0 0 0-.025-.314 1.75 1.75 0 0 0-.058-.231 2.31 2.31 0 0 0-.585-.921c-.242-.238-.56-.452-.923-.563a1.71 1.71 0 0 0-.527-.077h-.001z" fill="#782121" stroke="#2b0000" stroke-width=".066" stroke-linecap="round"/><path d="M18.877 10.088c-1.037-.021-1.545 1.08-1.503 2.095.064 2.603 5.143 5.207 5.143 5.207s-.593.868.381 1.376c-.339 1.545 1.101 2.223 1.101 2.223s-.981 1.104-2.963.656c-.656-.148-.868-.995-.402-1.291s.55.889 1.037.72.402-1.037-.529-1.439-1.63.804-1.376 1.566 1.715 1.757 3.958.466c.55 1.63.275 1.93-.415 1.744-1.03-.278-.653.673-1.157.802-.21.054-.372-.484-.921-.348-.642.158-.414.61-.715.666-.545.1-.286-.412-.926-.338-.623.072-.402.696-.688.667-.373-.037-.169-.458-.719-.5s-.448.468-.851.489-.342-.554-.723-.596-.462.463-.801.378-.276-.738-.594-.844-.528.294-.909.019-.212-.889-.508-1.101-.614.148-.846-.233.106-.677-.127-1.164-.402-.064-.635-.508.424-.613.212-1.143-.55-.297-.677-.783.423-.214.488-1.087c.027-.358-.246-.504-.105-.739.193-.322.452.086.775-.306.419-.509.113-.894.113-.894s.36.19.741 0 .194-.506.575-.569.196.297.648.349c.527.061.594-.354.594-.354.098-.096.212-.017.212-.017s-.006.141.278.359c.124.095.423.105.423.105s0 .296.169.487.402.043.572.424c0 0 .258-.831-.487-1.228 0 0 .291-.371-.105-.889-.381-.339 1.566 1.122 1.376 3.492s-1.604 2.659-1.99 1.778c-.389-.89.59-1.07.36-1.735-.177-.513-1.651-.381-1.482 1.164s1.503 2.201 2.455 1.482 1.088-2.491 1.016-3.683c.407 1.981.296 3.937-.868 4.487s-3.153-.487-2.916-2.612c.18-1.614-.614-1.598-.973-1.119-.693.925.249 3.561 2.069 4.366s3.556-.571 3.365-3.556-1.643-4.413-3.006-4.905c-.597-.216-1.945.022-1.945.022s-.016-.469-.431-.618c-.659-.235-.831.301-1.297.174s.032-.663-.687-.96-1.735 1.376-1.693 5.059 2.137 6.519 2.137 6.519-2.412-1.862-2.582-2.9.233-.677.317-1.482c-.127-.72-.635-1.27-1.408-.846-.735.403-1.386 2.646 5.197 7.408-.651.463-.382 1.091-.382 1.091-1.494-.458-4.436-1.833-7.851-1.556-1.69.137-5.173.523-5.26 4.445-.085 3.82 2.212 3.831 2.561 2.985.256-.612-.127-1.006-.127-1.006s.794.836 1.937.371 1.207-1.926.868-2.794-1.228-.677-1.101-.169c-.275-.169-.833.24-.212.889.476.497.275 1.418-.233 1.566s-1.439-.678-1.693-1.715c0 0 .244.148.498-.169s.053-.719.053-.719.254-.021.317-.381c.061-.345-.127-.55-.127-.55s.19.085.381-.064.148-.487.148-.487.137.148.412.021.159-.423.286-.487.283.388.635.317c.409-.083.296-.593.55-.614s.201.646.762.593c.322-.03.508-.444.508-.444l.572.021s.042.487.487.529.572-.423.572-.423l.593.085s-.074.561.466.677c.583.126.72-.36.72-.36l.593.233s-.033.446.411.545c.554.124.673-.233.673-.233.114.079.274.075.274.075.041.356.332.484.332.484.013.173-.125.484-.125.484s-1.608-.593-3.682-.064-2.307 2.265-1.566 2.455.656-.91 2.159-1.206c0 0-.494.831.338.974.904.155 1.333-.762 3.259-.847-1.249 1.132-.55 2.35-.55 2.35s-2.392-.254-5.651.825-6.468 2.932-5.482 4.529c.471.764 2.392-2.751 2.921-2.222s-.762 2.52.614 2.705c1.031.139.781-1.423.781-1.423s1.717-1.53 6.33-2.15c0 0-.699 1.058 1.926.529s4.529-.127 5.545.36-8.587 1.088-7.366 3.45c.455.88 2.307-.677 2.307-.677s.161.516.656.381c-.582 1.108.625 2.761 1.386 1.936.413-.5.21-.907-.275-1.424.412-1.186 2.487-2.037 2.487-2.037s-.076 1.551.575 1.91c.904.5 1.267-.895 1.267-.895s-.756.213-.967-.316.988-2.075 2.787-1.842 2.561 1.1 2.561 1.1-2.057 1.042-1.376 1.969c.462.629 1.058-.064 1.058-.064s-.482 1.353.804 1.629c.676.145 1.726-.789 1.146-2.11-.257.633-.743 1.222-1.082.777s.402-1.714.952-1.566 3.514 3.726 5.27 2.35c.829 1.902 3.36.452 4.548-.488 1.42-1.123 2.993-3.802 8.022-3.024 0 0 .529-2.465-.19-4.201s-.49-3.799-.49-3.799 1.355.475 1.518-.68c.175-1.244-1.14-1.208-1.14-1.208s-.223-.562-.789-.345c-1.688-1.878-.031-1.481.105-1.652.219-.274-.501-.51-.884-.328-.962.458-.165 1.437-.165 1.437s-2.571-2.124-2.691-3.022c.811-1.131 2.157-.757 1.999-.018-.086.402-.992.371-.67 1.01.361.715 1.767-.543 1.242-1.742-.879-2.005-2.873-1.344-3.588.021-2.56-1.449-6.582-3.612-6.409-5.23.13-1.221 1.563-.416.718.479.777.02 1.086-1.084.18-1.634-1.227-.744-2.13.604-1.856 1.694-2.297-1.318-6.341-1.953-6.286-3.691.031-.971.901-1.66 1.309-.387 1.255.025.785-2.536-.778-1.917-1.603.635-.732 3.45-.732 3.45s-.868-1.249-1.503-.889-.021 1.354-.021 1.354-1.611-.705-2.074-1.947c-.529-1.418-.021-2.413.952-1.63.72-.254.486-1.5-.466-1.693-.652-.132-1.249.699-1.249.699s.042-1.185-.995-1.207zm53.432 0c-1.037.021-.995 1.207-.995 1.207s-.597-.831-1.249-.699c-.952.193-1.185 1.439-.466 1.693.974-.783 1.482.212.952 1.63-.463 1.242-2.074 1.947-2.074 1.947s.614-.995-.021-1.354-1.503.889-1.503.889.871-2.815-.732-3.45c-1.563-.62-2.033 1.941-.778 1.917.408-1.274 1.279-.585 1.309.387.055 1.738-3.989 2.373-6.286 3.691.275-1.09-.629-2.438-1.856-1.694-.907.55-.597 1.654.18 1.634-.845-.895.588-1.7.718-.479.172 1.617-3.85 3.78-6.409 5.23-.715-1.365-2.71-2.027-3.588-.021-.526 1.199.881 2.457 1.242 1.742.322-.639-.584-.607-.67-1.01-.158-.739 1.187-1.113 1.999.018-.12.898-2.691 3.022-2.691 3.022s.797-.979-.165-1.437c-.383-.182-1.103.055-.884.328.136.17 1.794-.226.105 1.652-.566-.218-.789.345-.789.345s-1.315-.036-1.14 1.208c.162 1.155 1.518.68 1.518.68s.228 2.063-.49 3.799-.19 4.201-.19 4.201c5.029-.778 6.602 1.901 8.022 3.024 1.188.94 3.719 2.39 4.548.488 1.757 1.376 4.72-2.202 5.27-2.35s1.291 1.122.952 1.566-.825-.144-1.082-.777c-.581 1.321.47 2.256 1.146 2.11 1.286-.276.804-1.629.804-1.629s.596.693 1.058.064c.681-.927-1.376-1.969-1.376-1.969s.762-.867 2.561-1.1 2.999 1.313 2.787 1.842-.967.316-.967.316.363 1.395 1.267.895c.65-.36.575-1.91.575-1.91s2.075.85 2.487 2.037c-.486.517-.689.924-.275 1.424.762.825 1.968-.829 1.386-1.936.496.135.656-.381.656-.381s1.853 1.557 2.307.677c1.222-2.363-8.382-2.964-7.366-3.45s2.921-.889 5.545-.36 1.926-.529 1.926-.529c4.613.62 6.33 2.15 6.33 2.15s-.249 1.562.781 1.423c1.376-.185.085-2.176.614-2.705s2.45 2.986 2.921 2.222c.985-1.598-2.223-3.45-5.482-4.529s-5.651-.825-5.651-.825.699-1.217-.55-2.35c1.926.085 2.356 1.002 3.259.847.832-.143.338-.974.338-.974 1.503.296 1.418 1.397 2.159 1.206s.508-1.926-1.566-2.455-3.682.064-3.682.064-.138-.311-.125-.484c0 0 .291-.128.332-.484 0 0 .16.004.274-.075 0 0 .118.357.673.233.444-.099.411-.545.411-.545l.593-.233s.137.485.72.36c.54-.116.466-.677.466-.677l.593-.085s.127.466.572.423.487-.529.487-.529l.572-.021s.186.414.508.444c.561.053.508-.614.762-.593s.141.531.55.614c.352.071.508-.381.635-.317s.011.36.286.487.412-.021.412-.021-.042.339.148.487.381.064.381.064-.188.205-.127.55c.064.36.317.381.317.381s-.201.402.053.719.498.169.498.169c-.254 1.037-1.185 1.863-1.693 1.715s-.709-1.069-.233-1.566c.621-.649.063-1.058-.212-.889.127-.508-.762-.699-1.101.169s-.275 2.329.868 2.794 1.937-.371 1.937-.371-.383.394-.127 1.006c.349.847 2.646.836 2.561-2.985-.087-3.922-3.57-4.308-5.26-4.445-3.415-.276-6.358 1.099-7.851 1.556 0 0 .268-.628-.382-1.091 6.583-4.762 5.932-7.005 5.197-7.408-.773-.423-1.281.127-1.408.846.085.804.487.444.317 1.482s-2.582 2.9-2.582 2.9 2.095-2.836 2.137-6.519-.973-5.355-1.693-5.059-.222.833-.687.96-.638-.409-1.297-.174c-.415.148-.431.618-.431.618s-1.348-.237-1.945-.022c-1.363.492-2.815 1.92-3.006 4.905s1.545 4.36 3.365 3.556 2.762-3.441 2.069-4.366c-.359-.479-1.153-.495-.973 1.119.236 2.125-1.752 3.162-2.916 2.612s-1.275-2.506-.868-4.487c-.072 1.191.064 2.963 1.016 3.683s2.286.064 2.455-1.482-1.304-1.677-1.482-1.164c-.23.665.749.845.36 1.735-.385.881-1.799.593-1.99-1.778s1.757-3.831 1.376-3.492c-.396.518-.105.889-.105.889-.745.396-.487 1.228-.487 1.228.169-.381.402-.233.572-.424s.169-.487.169-.487.3-.01.423-.105c.284-.218.278-.359.278-.359s.114-.079.212.017c0 0 .068.415.594.354.451-.052.267-.413.648-.349s.194.379.575.569.741 0 .741 0-.305.385.113.894c.322.392.582-.016.775.306.141.235-.132.381-.105.739.065.873.615.6.488 1.087s-.466.254-.677.783.445.698.212 1.143-.402.021-.635.508.106.783-.127 1.164-.55.021-.846.233-.127.826-.508 1.101-.591-.124-.909-.019-.255.759-.594.844-.42-.421-.801-.378-.321.618-.723.596-.3-.532-.851-.489-.346.463-.719.5c-.286.028-.065-.595-.688-.667-.64-.074-.381.438-.926.338-.301-.055-.073-.507-.715-.666-.55-.136-.711.402-.921.348-.504-.129-.127-1.08-1.157-.802-.69.186-.966-.114-.415-1.744 2.244 1.291 3.704.296 3.958-.466s-.445-1.968-1.376-1.566-1.016 1.27-.529 1.439.571-1.016 1.037-.72.254 1.143-.402 1.291c-1.983.448-2.963-.656-2.963-.656s1.439-.678 1.101-2.223c.974-.508.381-1.376.381-1.376s5.08-2.604 5.143-5.207c.042-1.016-.466-2.117-1.503-2.095zM30.09 24.919s.15.239.718.359.808-.209.808-.209.299.449.898.628 1.107-.149 1.107-.149-.09.449.479.838 1.227.224 1.227.224-.075.449.554.958 1.242.104 1.242.104-.074.662.389 1.078c.584.524 1.227.209 1.227.209s-.269.509.374.988c.543.404 1.033.09 1.033.09s-.378.562-.03 1.287c.359.748 1.137.569 1.137.569s-.09.479 0 .808c0 0-.826.142-1.092.988-.304.965.059 1.646.059 1.646s-.378-.057-.703.164c-.486.331-.449.763-.449.763s-.273-.473-.718-.419c-.733.09-.389.688-.808.748s-.239-.3-.808-.3-.688.808-.688.808l-.509.09s-.09-.509-.628-.539-.808.808-.808.808l-.299.12s0-.539-.539-.568-.598.628-.598.628l-.479.09s.06-.599-.569-.659c-.48-.018-.538.509-.538.509l-.539-.12s.092-.502-.419-.718c-.5-.185-.808.449-.808.449l-.299-.164s.302-.68-.364-.963c-.431-.183-.788.349-.788.349l-.374-.269s.295-.488-.178-.861c-.565-.446-.959.023-.959.023l-.381-.254s.256-.54-.337-.823c-.516-.247-.785.224-.785.224l-.435-.187s.113-.337-.366-.726-1.018.03-1.018.03l-.239-.089s.221-.672-.419-.988c-.516-.254-.898.299-.898.299l-.449-.389s.458-.65-.209-1.018c-.439-.242-.838.269-.838.269l-.359-.239s.18-.659-.359-1.018-.898.3-.898.3l-.479-.21s.223-.565-.299-.845c-.45-.242-.838.217-.838.217l-.344-.232s.195-.696-.344-.905-.748.359-.748.359l-.479-.225s.127-.494-.389-.823c.561-.082.598-.538.598-.538s.21.539.778.628 1.018-.329 1.018-.329.15.479.688.539.838-.389.838-.389.18.449.718.449c.733 0 .808-.508.808-.508s.299.539 1.018.389c.887-.185.793-.703.793-.703s.085.395.929.284c.569-.075.643-.688.643-.688s.479.389 1.048.179.674-.748.674-.748.33.306 1.003.096c.597-.186.658-.874.658-.874a1.12 1.12 0 0 0 1.093.218c.658-.21.733-.936.733-.936a1.24 1.24 0 0 0 .778.269c.479 0 .838-.449.838-.449zm31.006 0s.359.449.838.449.778-.269.778-.269.074.727.733.936 1.093-.218 1.093-.218.061.689.658.874c.673.21 1.003-.096 1.003-.096a1.08 1.08 0 0 0 .674.748c.569.21 1.048-.179 1.048-.179s.074.613.643.688c.844.111.929-.284.929-.284s-.094.519.793.703c.718.15 1.018-.389 1.018-.389s.075.508.808.508c.539 0 .718-.449.718-.449s.299.449.838.389.688-.539.688-.539.449.419 1.018.329.778-.628.778-.628.037.456.598.538c-.516.329-.389.823-.389.823l-.479.225s-.209-.569-.748-.359-.344.905-.344.905l-.344.232s-.388-.459-.838-.217c-.523.281-.299.845-.299.845l-.479.21s-.359-.659-.898-.3-.359 1.018-.359 1.018l-.359.239s-.399-.512-.838-.269c-.667.368-.209 1.018-.209 1.018l-.449.389s-.382-.554-.898-.299c-.64.316-.419.988-.419.988l-.239.089s-.539-.419-1.018-.03-.366.726-.366.726l-.435.187s-.269-.471-.785-.224c-.593.284-.337.823-.337.823l-.381.254s-.394-.469-.959-.023c-.473.373-.178.861-.178.861l-.374.269s-.357-.532-.788-.349c-.666.283-.364.963-.364.963l-.299.164s-.308-.634-.808-.449c-.511.216-.419.718-.419.718l-.539.12s-.058-.527-.538-.509c-.629.06-.569.659-.569.659l-.479-.09s-.06-.658-.598-.628-.539.568-.539.568l-.299-.12s-.269-.838-.808-.808-.628.539-.628.539l-.509-.09s-.12-.808-.688-.808-.389.36-.808.3-.075-.658-.808-.748c-.446-.055-.718.419-.718.419s.036-.433-.449-.763c-.325-.221-.703-.164-.703-.164s.363-.681.059-1.646c-.266-.845-1.092-.988-1.092-.988.09-.329 0-.808 0-.808s.778.179 1.137-.569c.348-.725-.03-1.287-.03-1.287s.49.314 1.033-.09c.643-.479.374-.988.374-.988s.644.315 1.227-.209c.464-.416.389-1.078.389-1.078s.613.404 1.242-.104.554-.958.554-.958.659.165 1.227-.224.479-.838.479-.838.509.329 1.107.149.898-.628.898-.628.239.329.808.209.718-.359.718-.359z" fill="#d3bc5f" stroke="#540" stroke-width=".265"/></svg>