<svg xmlns="http://www.w3.org/2000/svg" width="740.001" height="579.001" viewBox="0 0 195.792 153.194" xmlns:v="https://vecta.io/nano"><g stroke-width=".794" stroke-linejoin="round"><path d="M6.942 28.955s3.387 3.048 9.313 4.741S2.879 67.9 2.879 67.9s3.725 1.016 13.716-1.524 7.112 32.68 7.112 32.68 8.128-3.048 15.239-7.281 29.463 33.188 29.463 33.188 4.064-3.895 6.265-8.636c0 0 4.456-9.049-12.53-15.917 1.245-5.169 34.373-47.75 34.373-47.75 26.351 24.663 7.941 51.616 20.319 72.641 2.474 4.203 5.588 8.128 5.588 8.128l31.495-40.469s11.853 3.387 20.997 2.371l9.482-38.268c4.723.006 9.99-4.233 9.99-4.233l-17.441-21.335s8.805-2.54 12.192-7.45c-12.734-10.178-61.636-8.232-94.662 9.669-43.323-16.822-87.534-4.758-87.534-4.758z" fill="#676767" stroke="#676767"/><path d="M67.709 110.034s20.276 15.28 33.884 36.937c-.075.102 2.865-7.626 10.586-17.352 2.384-3.002 9.821-9.99 11.43-13.969s-1.439-40.046-1.439-40.046L98.21 48.766 64.344 82.039z" fill="#83433c" stroke="#453131"/></g><path d="M94.476 65.267c-.028.002-.054.014-.076.036-.162.162-.095.561.185 1.102.241.467.372.916.289.998s-.042.28.088.439c1.28 1.555.144 5.37-1.621 5.44-.103.004-.401.236-.661.515-.803.861-1.818.965-2.296.235-.654-.998-.209-1.875 1.933-3.802 1.895-1.706 1.852-2.068-.11-.909-1.791 1.058-1.902 1.002-1.956-.975-.055-1.993-.06-2.008-.619-1.793-.312.12-.418.701-.473 2.586l-.132 3.159-.104 1.588c-.044.86-.044.86-.473.066-.236-.437-.38-.821-.32-.855s-.159-.249-.486-.478-.595-.542-.595-.695c0-.441-1.12-1.65-1.505-1.643l-.527.588a.79.79 0 0 1 .165.155c.189.228.273.415.187.415s.198.604.634 1.342.969 1.769 1.187 2.29c.559 1.337-1.462.863-2.396-.562-.479-.732-.574-2.03-.42-2.879l-1.385 1.743c.017.009.03.013.051.026.168.104.305.241.305.305 0 .221-.234.116-.422-.189-.008-.014-.01-.021-.017-.033l-.495.657c.112-.088.106-.017.009.239-.121.319.19.594 1.241 1.095 3.318 1.582 3.255 2.007-.676 4.618-1.476.98-3.185 2.292-3.798 2.915l-1.219 1.133c-.264 0-.214-1.974-.014-3.044l-1.063 1.998-.111.219.522 2.613c.077.571.627.362 1.243-.47.326-.441.702-.733.836-.651s.321-.157.415-.533c.266-1.06.741-.634 1.058.951.159.792.426 1.697.595 2.013.655 1.225.401 1.875-1.016 2.593-.728.369-1.328.817-1.333.997s-.314.683-.686 1.12c-.676.794-.676.794-.5-.265.203-1.218 1.33-3.298 1.801-3.326.283-.016-.496-.444-.895-.492-.631-.075-1.677 2.909-1.782 5.079-.112 2.323.451 3.189.902 1.39.083-.329.625-1.06 1.205-1.624 1.013-.986 1.039-.995.643-.233-.226.437-.413.928-.413 1.092s-.183.449-.405.633-.345.393-.275.463-.07.5-.312.954-.343.808-.368 1.183c-.067.985-.229 1.395-.641 2.377-.038.09-.12.712-.247 1.367-.253 1.306-.209 2.123.134 2.481.224.233.564-1.612.886-2.679.853-2.827.832-4.08 2.473-6.416.077-.11.51-.473.835-1.051.912-1.622.966-1.504.908 1.968-.063 3.789.25 4.74 1.137 3.457 2.094-3.031 3.374-2.226 4.72 2.966 1.198 3.632-1.718 1.926-2.079 1.779-3.646-1.523-3.58-1.51-3.873-.74-.447 1.176-.354 6.465.134 7.634.66 1.578-.412.482-1.781-1.822-.97-1.633-1.102-1.758-1.297-1.233-.216.585.242 1.471 1.431 2.768.259.282.47.838.47 1.236s.083.937.183 1.2c.157.409.076.393-.565-.111-.757-.595-2.264-.811-2.264-.324 0 .146.297.265.661.265.804 0 2.779 1.825 2.779 2.569 0 .283.298.794.661 1.135.848.797.832.564-.132-1.941-1.089-2.827-1.034-3.11.353-1.831 2.726 2.513 3.173 2.458 1.772-.215-1.251-2.388-1.353-2.806-1.524-6.291-.15-3.055-.166-3.042 1.912-1.503 4.001 2.964 6.096 3.817 6.166 2.371.031-.637-.444-.925-.445-1.372-.008-1.979-.428-4.855-.839-5.673-.27-.537-.526-1.311-.569-1.72s-.198-.842-.343-.962c-.169-.139-.153-.187.043-.132 1.946.546 5.068 8.625 4.73 12.237-.158 1.69-.672 3.144-.672 1.903 0-.411-.472-.838-.687-.623-.067.067.014.466.179.886s.296 1.084.29 1.474c-.013.811.662 1.578.856.974.109-.34.381-1.817.468-2.544.022-.182.139-.331.26-.331.231.921 1.01 1.316 1.569 2.184 2.467 3.92 2.622 3.335.211-.795-1.486-2.545-1.589-2.83-1.667-4.63-.12-2.753-.995-5.266-2.935-8.423-.941-1.532-1.876-2.854-2.458-3.478-.881-.944-.927-3.453-.099-5.325.319-.529.317-1.168.556-1.559l.893-1.101c.373-.599 1.656.138 1.876.424.16.218.678.596 1.151.841s.875.56.893.702l.078.589c.025.182.187.301.36.266 1.121-.231 2.249 4.656 1.575 6.822-.205.66-.289 1.434-.187 1.72s.09.775-.026 1.087-.167.613-.112.668.178.692.273 1.416c.215 1.64.544 2.031.907 1.077.184-.485.187-.885.01-1.216-.3-.561-.354-1.938-.087-2.206s1.898 2.112 2.78 4.058l1.156 2.514c.272.575.342 1.45.253 3.175l-.141 2.898c-.01.284-.118.642-.24.794s-.305.665-.406 1.139-.285.8-.408.724-.293.08-.378.347c-.171.539-1.472 2.38-1.472 2.084 0-.103-.446.104-.992.46s-1.439.729-1.984.827-.992.274-.992.389c0 .378-2.234-.071-2.892-.582-1.318-1.023-1.531-1.752-1.705-5.849-.084-1.975.013-2.167 1.76-3.479.55-.413.937-.812.862-.888s-.004-.297.158-.492c.628-.757-.379-.336-1.685.703-.731.582-1.195.683-1.496 1.058-.315.392-.03.801-.456 1.463-.232.362-.366.892-.29 1.182s.031.595-.101.677-.24-.114-.24-.434-.647-1.553-1.437-2.741-1.517-2.48-1.615-2.872-.292-.642-.431-.557c-.379.234.015 1.648.913 3.28 1.986 3.61 1.903 3.312 1.565 5.631-.169 1.16-.255 2.195-.19 2.301s-.734.216-1.775.246c-2.169.063-2.408.151-2.101.768.25.504.217 2.27-.059 3.137-.1.315-.071.642.067.727.372.23.83-1.33.83-2.826 0-1.834 2.888-1.807 6.001.054 1.045.625 1.965 1.133 2.044 1.13s1.002.215 2.051.485 2.004.43 2.123.357c1.105-.683.438.557-1.1 2.044-1.038 1.004-1.821 1.933-1.739 2.064.358.579 2.038-.574 4.69-3.219 2.671-2.664 3.662-3.397 3.294-2.438-.086.224-.351 1.087-.59 1.918s-.564 1.75-.723 2.041c-.288.529-.061.827-.407 1.191-.523.551-.589.975-.726 1.856-.105.676-.467 1.774-.542 2.505-.166 1.61-.847 5.158-1.055 5.495-.083.134.236.78.707 1.436 1.22 1.699 2.184 4.517 1.647 4.817-.276.155-.307.279-.099.407.164.101.299.052.299-.111s.12-.222.266-.132.192.454.103.809c-.102.408-.048.645.147.645.17 0 1.018-.393.695.969-.229 1.041.393 2.889.393 2.889-.484-1.631.588-3.399-.033-4.532-.808-1.474-.261-2.343-.843-3.573-.868-1.835-1.294-4.183-1.14-6.279.086-1.17.03-1.645-.197-1.648s-.231-.063-.028-.198c.159-.107.269-.581.245-1.054s.039-.86.142-.86.249-.238.326-.529c.206-.79.538-.645 1.059.463.257.546.818 1.602 1.247 2.347.78 1.354.78 1.354-.289 2.88-.747 1.067-.986 1.61-.791 1.804.31.31 1.608-.73 1.608-1.289 0-.175.181-.469.403-.653s.342-.396.267-.471-.018-.28.128-.455c.179-.216.133-.631-.143-1.292-.287-.452-.19-1.009-.345-1.481-.043-.131-.342-.446-.455-.992l-.301-1.389c-.418-1.711.064-8.051.703-9.246.14-.261.207-.521.149-.579-1.474-1.474 1.804-1.322 3.411.158.716.66 1.436 1.2 1.599 1.2s1.338.536 2.611 1.191c2.585 1.33 2.557 1.321 2.557.854 0-.185-.536-.629-1.191-.987s-1.191-.742-1.191-.854-.157-.204-.349-.204c-.982 0-1.975-1.423-1.515-2.171.431-.702 1.864-1.99 1.864-1.677 0 .087.78-.438 1.732-1.168s1.957-1.448 2.233-1.596c.173-.093.32-.124.436-.117l.069-2.054c-.279.88-1.061 1.503-3.312 3.121-2.048 1.472-2.058 1.469-1.238-.357.736-1.637 2.176-3.236 2.925-3.249.424-.007.422-.032-.026-.292-.736-.428-2.209.463-3.093 1.87-.737 1.173-.737 1.173-1.042.04-.168-.623-.268-1.159-.222-1.192s.633-.373 1.304-.757c1.257-.719 2.88-2.352 2.88-2.897 0-.554.48.163.573.856.106.796.52.813.879.036.188-.407.312-.568.394-.472l-.04-1.988c-.044.193-.115.416-.22.651-.449 1.005-.449 1.005-.891.331-.585-.893-.72-.857-1.429.384-.331.58-.927 1.261-1.323 1.513s-.78.534-.853.626-.528.37-1.011.618c-.878.45-.878.45-.695 2.792.13 1.666.086 2.56-.151 3.097-.799 1.805-1.307 1.805-3.239-.003-1.757-1.645-1.955-2.026-2.109-4.08-.085-1.124-.085-1.124.98-1.13 2.153-.012 4.553-1.655 6.174-4.228 1.875-2.976 2.901-3.466 3.6-1.72.206.516.218.514.488-.066.137-.293.336-.464.611-.533l-.031-.602c-.005.001-.013.01-.018.01-.061 0-.048-.091.007-.205a93.24 93.24 0 0 0-.287-3.783c-.048-.02-.086-.058-.086-.113 0-.046.028-.08.064-.104l-.034-.318c-.013.009-.025.025-.04.025-.208 0-.773 2.066-.852 3.115-.037.496-.2.59-1.031.59-.72 0-1.098.159-1.399.588-.306.437-.412.48-.412.167 0-.231-.238-1.032-.529-1.779l-1.044-2.681c-.572-1.47-.502-1.555.647-.794 1.257.833 1.329.726 1.273-1.893-.053-2.506-.265-2.991-1.206-2.766-.516.124-.448-.507.233-2.187.199-.491.362-1.201.362-1.58 0-1.018-.687.027-1.231 1.875-.483 1.639-.732 1.992-1.479 2.103-1.303.193-.799.785.631.742.78-.024 1.547-.033 1.704-.021.236.019.226 2.851-.012 3.133-.031.037-.612-.227-1.29-.588-1.445-.768-1.429-.801-.544 1.132.724 1.581 1.692 5.018 1.692 6.005 0 .937-1.092 2.269-2.518 3.069-3.045 1.709-4.448 1.379-5.735-1.352l-2.013-4.233c-1.355-2.838-1.906-4.603-1.906-6.109 0-2.02-1.82-5.637-3.505-6.965-.954-.752-.83-.833.576-.379 1.9.614 2.566 1.022 4.252 2.609 1.559 1.493 4.215 5.597 3.932 8.198-.176 1.161-.091 2.634.229 3.969.225.937.527-.343.57-2.414.047-2.248.288-3.214.712-2.861.947.786 1.093 5.135.218 6.471-.478.729-.079 1.106.477.452 2.118-2.489 1.81-6.793-.558-7.785-.105-.044-.704-1.131-1.331-2.415-1.269-2.6-1.206-3.33.203-2.328 1.5 1.068 1.818.654.489-.636-1.232-1.197-5.941-3.37-7.937-3.663-.236-.035-.511-.146-.612-.247s-.454-.184-.783-.184-.778-.18-.998-.4-.795-.475-1.276-.565c-1.085-.205-1.713-.736-2.353-1.99-.906-1.776-.832-4.194.088-2.88 1.106 1.58 3.954 4.067 4.488 4.252 1.002.349 2.18.333 3.781-.018 1.589-.357 1.72-.32 1.72.492 0 1.617.705 1.86.856.295.265-2.762-1.546-3.649-4.58-2.244-1.58.732-1.903.578-4.68-2.228s-2.784-2.765.382-3.062c2.483-.233 2.622-.163 2.833 1.435.175 1.316.504 1.873.812 1.375.198-.321-.387-2.74-.716-2.958-.134-.089-.235-.255-.223-.367s-1.049-.182-2.359-.153c-2.763.061-2.784.034-1.124-1.476 2.161-1.966 4.875-3.167 4.493-1.988-.056.174.948 1.445 3.256 4.12 1.937 2.245 3.032 4.02 4.506 7.302 1.011 2.253 1.815 3.483 2.143 3.28.307-.19.022-1.25-.871-3.244-.415-.926-.697-1.776-.628-1.888s-.05-.352-.267-.532c-.838-.696-.43-1.117.464-.479.823.588 2.605 1.339 2.775 1.169.045-.045-.777-.605-1.825-1.245-3.802-2.32-4.947-3.817-3.809-4.983.539-.552 1.145-1.467 1.347-2.032s.387-.879.411-.697.074.45.111.595.081.994.099 1.885c.03 1.455.076 1.584.458 1.267.679-.564.266-4.095-.59-5.04-.653-.722-.806-.628-1.273.779-.851 2.561-1.761 3.208-2.753 1.956-.471-.595-1.262-1.332-1.759-1.639-.573-.354-.849-.698-.756-.942.084-.218-.008-.385-.212-.388-1.163-.013-1.151-.522.038-1.699 2.365-2.339 2.581-3.253.372-1.568-1.067.814-.989.862-1.364-.83-.346-1.565-1.472-3.686-1.899-3.657zm4.081 9.61c.073 0 .132.06.132.132s-.059.132-.132.132-.132-.06-.132-.132.059-.132.132-.132zm.794.794c.073 0 .132.06.132.132s-.059.132-.132.132-.132-.06-.132-.132.059-.132.132-.132zm-13.175 3.576c.365-.003.607.205.607.685 0 .275.401.926.892 1.446 1.522 1.614 2.476 3.695 1.958 4.271-.235.26-1.448 2.497-2.695 4.971-2.775 5.501-3.449 6.456-3.176 4.498.102-.728.198-1.7.214-2.161.376-1.759-.226-1.259.127-2.598.167-.605.166-.93-.002-.93-.142 0-.177-.132-.078-.294s-.138-.549-.528-.86-.74-.744-.777-.963-.159-.665-.269-.994-.065-1.25.1-2.047.29-1.512.278-1.589.171-.513.407-.971c.737-1.425 2.138-2.458 2.942-2.465zm17.673 2.245c.073 0 .132.06.132.132s-.059.132-.132.132-.132-.06-.132-.132.059-.132.132-.132zm-8.996 8.202c.073 0 .132.06.132.132s-.059.132-.132.132-.132-.06-.132-.132.059-.132.132-.132zm-7.468 13.941c.29-.013.721.239.721.511 0 .195-.236.096-.399-.169-.091-.148-.295-.189-.453-.091-.176.108-.211.053-.091-.141.044-.072.126-.105.223-.11zm-5.015 1.122c.028.015.084.673.197 1.991.124 1.449.182 2.677.13 2.73-.25.25-.347-.545-.351-2.85l.024-1.87zm7.852 1.621c.064 0 .128.024.176.073.097.097.018.176-.176.176s-.273-.079-.176-.176c.049-.049.112-.073.176-.073zm-7.276 3.424c.073 0 .132.059.132.132s-.06.132-.132.132-.132-.059-.132-.132.06-.132.132-.132zm.265 1.323c.073 0 .132.059.132.132s-.06.132-.132.132-.132-.059-.132-.132.06-.132.132-.132zm5.292 1.852c.073 0 .132.059.132.132s-.06.132-.132.132-.132-.059-.132-.132.06-.132.132-.132zm.145 1.086c.153.031.252.664.252 1.846 0 1.301-.222 1.593-.738.97-.19-.229-.175-.773.051-1.774.164-.728.316-1.067.436-1.043zm8.882 7.91c.073 0 .059.119-.031.265s-.223.265-.296.265-.059-.119.031-.265.223-.265.296-.265zm2.615 4.763c.073 0 .132.059.132.132s-.059.132-.132.132-.132-.059-.132-.132.059-.132.132-.132zm-2.117 7.938c.073 0 .132.06.132.132s-.059.132-.132.132-.132-.06-.132-.132.059-.132.132-.132z"/><g stroke-width=".794" stroke-linejoin="round"><path d="M101.533 146.433c-1.994 2.946.104 6.248 1.437 5.448 1.402-.842-1.616-2.455-1.437-5.448z" stroke="#080000"/><path d="M67.529 110.154l11.973 10.058s-14.749-20.086-.599-41.427c14.607-22.031 18.678-16.643 18.678-16.643s6.944 2.993 15.086 25.982-1.197 42.026-1.197 42.026 8.98-8.98 12.093-13.29 2.874-31.729 2.874-31.729L96.983 47.893 64.057 88.602z" fill="#453131" stroke="#453131"/></g><g fill="#cdcdcd" stroke="#676767" stroke-width=".794" stroke-linejoin="round"><path d="M96.504 52.922s-3.696 8.145-10.551 15.573c-23.971 25.974-17.675 56.372-17.675 56.372s-12.239-10.152-20.429-17.503C34.266 95.172 31.72 86.462 31.72 86.462s-5.596 6.507-7.988 12.493c-10.343-16.388-12.207-36.13-12.207-36.13s-5.902 2.71-8.51 5.083c-2.392-17.836 13.25-38.016 13.25-38.016s-5.674-.861-9.303-.826c0 0 17.126-21.914 35.526-26.013C56.031.037 76.365 5.247 85.169 14.843c6.394 6.969 8.942 14.372 8.942 14.372s5.384-12.931 15.326-19.157c11.437-7.163 24.69-12.83 51.006-3.592 11.373 3.993 28.736 17.481 28.736 17.481s-6.825-2.275-15.805-1.676c6.705 6.466 18.678 20.833 21.312 30.652l-6.366-2.614s.961 18.796-13.03 44.71c-1.797-4.989-6.86-9.035-6.86-9.035s-1.344 14.525-24.031 30.398c-10.968 7.674-22.031 17.241-22.031 17.241s10.058-34.004-25.862-80.7z"/><g stroke-linecap="round"><path d="M122.845 31.609s-16.763 8.262-23.707 13.29c-3.233-18.199 11.45-31.134 22.51-35.082 22.505-8.033 39.153-2.275 51.126 6.705-14.488 0-28.856 5.867-28.856 5.867s9.474-4.189 7.423-8.142c-2.663-5.134-19.516-5.867-28.736-2.634-3.075 1.078-19.067 8.86-14.982 17.496 2.316 4.895 15.221 2.499 15.221 2.499zm-79.498-2.146s-16.255-4.064-24.891-4.233c4.318-7.45 19.704-23.047 45.38-16.933C80.15 12.182 92.622 27.77 92.114 45.549 80.6 37.167 62.482 33.188 62.482 33.188s16.933 3.556 19.473-2.371-5.08-16.933-18.118-20.997-40.3 7.112-20.489 19.642zm53.169 23.452s-33.189-1.052-60.457 28.762c4.684 14.323 17.51 24.881 27.438 33.042-1.524-9.906 2.02-23.505 2.02-23.505s-7.692 10.721-14.719 2.339.254-14.985 4.656-19.557 16.279-13.143 18.88-10.752c3.133 2.879-4.656 19.049-4.656 19.049s3.236-5.712 7.872-11.075c4.034-4.667 9.342-8.072 17.671-18.828m-1.829-.844C71.47 50.69 54.269 61.889 54.269 61.889s10.498-6.011 10.075-8.212c-1.101-3.387-10.583-2.371-25.653 2.032s-16.848 9.906-15.409 13.716 4.995 7.366 20.743-1.693C26.923 81.446 24.044 89.066 24.044 89.066c-4.014-6.495-7.787-16.497-8.748-27.742 38.921-17.507 81.305-8.367 81.305-8.367S63.692 36.331 21.978 30.629c0 0-9.211 8.253-14.527 30.328 8.466-5.164 24.044-9.313 24.044-9.313s-16.425 3.217-12.784-7.281 22.521-7.789 27.854-6.688 36.913 6.858 17.271 9.652c0 0 13.631.339 23.452 1.524m9.478 4.169s32.991 1.682 67.963 30.036c0 0 .022 8.18-9.915 18.716s-27.299 21.911-27.299 21.911.958-10.297-1.317-22.749c3.592 10.177 9.818 9.938 16.403 5.987s11.939-17.704 7.543-25.862c-6.742-12.511-28.616-21.791-32.567-18.439s2.754 12.332 5.029 25.024C109.555 60.285 98.3 53.101 98.3 53.101m-1.724.043s36.602-17.482 87.405-4.416c0 0 .526 18.083-8.095 34.606-10.241-10.613-24.306-17.241-24.306-17.241s20.235 11.375 24.785-2.395-40.975-20.586-47.654-12.572c-2.993 3.592 7.184 8.022 7.184 8.022s-19.277-9.219-34.842-8.142m-4.538 2.163s35.941-22.369 71.476-30.004c0 0 11.606 9.642 17.952 20.538-16.882-4.789-33.286-4.67-33.286-4.67s19.277.599 16.164-8.262-64.536 12.692-33.884 8.98c-13.769 1.796-30.532 8.74-30.532 8.74" fill="#676767"/><path d="M16.284 29.903l5.597.718M11.464 62.86l3.712-1.497m20.863 20.265s-3.143 3.083-4.37 4.909m133.023-3.503s2.074 1.355 3.746 2.963m15.489-37.253s1.571.445 4.407 1.567m-20.38-27.143s2.744-.708 5.508-.898M96.504 52.922L94.11 29.454" fill="#000"/></g></g></svg>