<svg xmlns="http://www.w3.org/2000/svg" width="740.001" height="579.001" viewBox="0 0 195.792 153.194" xmlns:v="https://vecta.io/nano"><g stroke-width=".794" stroke-linejoin="round"><path d="M6.942 28.955s3.387 3.048 9.313 4.741S2.879 67.9 2.879 67.9s3.725 1.016 13.716-1.524 7.112 32.68 7.112 32.68 8.128-3.048 15.239-7.281 29.463 33.188 29.463 33.188 4.064-3.895 6.265-8.636c0 0 4.456-9.049-12.53-15.917 1.245-5.169 34.373-47.75 34.373-47.75 26.351 24.663 7.941 51.616 20.319 72.641 2.474 4.203 5.588 8.128 5.588 8.128l31.495-40.469s11.853 3.387 20.997 2.371l9.482-38.268c4.723.006 9.99-4.233 9.99-4.233l-17.441-21.335s8.805-2.54 12.192-7.45c-12.734-10.178-61.636-8.232-94.662 9.669-43.323-16.822-87.534-4.758-87.534-4.758z" fill="#676767" stroke="#676767"/><path d="M67.709 110.034s20.276 15.28 33.884 36.937c-.075.102 2.865-7.626 10.586-17.352 2.384-3.002 9.821-9.99 11.43-13.969s-1.439-40.046-1.439-40.046L98.21 48.766 64.344 82.039z" fill="#83433c" stroke="#453131"/><path d="M87.52 67.212c-.295.903-.66 2.881-.837 5.887-.102 1.742-.128 3.883.088 5.978.101.983.259 1.984.497 2.941.231.929.547 1.851.983 2.691.19.357.399.682.621.984a15.86 15.86 0 0 0-1.424 2.701c-.522 1.282-.919 2.766-.959 4.361a10.25 10.25 0 0 0 1.143 4.979l.367.728a19.34 19.34 0 0 1 1.505 4.862l.208 1.614.086.785c.018.002.091-.098.179-.78a11.97 11.97 0 0 0 .086-1.67c-.017-1.233-.198-3.091-.926-5.261l-.286-.823a7.29 7.29 0 0 1-.32-4.21c.27-1.241.827-2.346 1.452-3.265a13.06 13.06 0 0 1 1.407-1.723l1.966 1.22c.372.243.704.485 1.003.753a5.02 5.02 0 0 1 .825.935c.254.375.472.811.644 1.332a8.47 8.47 0 0 1 .375 1.956l.072.69a12.43 12.43 0 0 0 .3 1.559 12.91 12.91 0 0 0 .665 1.909c.502 1.155 1.122 2.189 1.734 3.31.598 1.096 1.197 2.289 1.703 3.81.516 1.551.931 3.426 1.148 5.834.161 1.897.157 3.483.056 4.846a22.56 22.56 0 0 1-.576 3.681c-.271 1.12-.601 2.134-.921 3.076l-.984 2.995c-.328 1.126-.567 2.211-.711 3.377a21.69 21.69 0 0 0-.088 4.186l.213 2c.586 4.159 2.107 8.494 2.839 10.614-.617-2.184-1.714-6.592-2.049-10.702a29.67 29.67 0 0 1-.098-1.951c-.021-1.356.064-2.671.296-3.981.192-1.088.47-2.094.836-3.149.34-.979.686-1.816 1.107-2.892.366-.936.76-1.989 1.092-3.172a22.97 22.97 0 0 0 .742-3.932c.033-.327.06-.667.082-1.018a68.33 68.33 0 0 0 2.248 1.563 64.5 64.5 0 0 0 3.603 2.24l.183.106c1.695.974 2.993 1.389 3.692 1.625-.702-.461-1.584-1.181-3.157-2.417l-.163-.129c-.875-.698-1.954-1.636-3.121-2.733-1.194-1.123-2.185-2.147-2.683-2.629-.337-.327-.467-.418-.564-.391a36.92 36.92 0 0 0-.064-1.347c-.155-2.536-.526-4.569-1.03-6.298-.495-1.7-1.099-3.04-1.675-4.22-.61-1.249-1.099-2.151-1.5-3.199a10.87 10.87 0 0 1-.479-1.583 10.41 10.41 0 0 1-.194-1.263c-.017-.18-.029-.369-.037-.567-.039-.89-.147-1.727-.337-2.514a9.18 9.18 0 0 0-.743-2.029c-.303-.594-.66-1.12-1.058-1.601-.382-.463-.789-.868-1.198-1.242-.79-.722-1.558-1.316-2.13-1.902-.285-.292-.52-.575-.714-.871a4.44 4.44 0 0 1-.475-.958c-.192-.498-.35-1.105-.468-1.818a19.7 19.7 0 0 1-.228-2.365c-.075-1.792.026-3.682.157-5.296l.486-5.495c.412-6.285-.04-7.758-.444-7.83s-2.218 1.777-2.727 2.749c-1.258 1.598-.782 2.749-1.321 4.352zm14.013 79.221c-1.994 2.946.104 6.248 1.437 5.448 1.402-.842-1.616-2.455-1.437-5.448z" stroke="#080000"/><path d="M67.529 110.154l11.973 10.058s-14.749-20.086-.599-41.427c14.607-22.031 18.678-16.643 18.678-16.643s6.944 2.993 15.086 25.982-1.197 42.026-1.197 42.026 8.98-8.98 12.093-13.29 2.874-31.729 2.874-31.729L96.983 47.893 64.057 88.602z" fill="#453131" stroke="#453131"/></g><g fill="#cdcdcd" stroke="#676767" stroke-width=".794" stroke-linejoin="round"><path d="M96.504 52.922s-3.696 8.145-10.551 15.573c-23.971 25.974-17.675 56.372-17.675 56.372s-12.239-10.152-20.429-17.503C34.266 95.172 31.72 86.462 31.72 86.462s-5.596 6.507-7.988 12.493c-10.343-16.388-12.207-36.13-12.207-36.13s-5.902 2.71-8.51 5.083c-2.392-17.836 13.25-38.016 13.25-38.016s-5.674-.861-9.303-.826c0 0 17.126-21.914 35.526-26.013C56.031.037 76.365 5.247 85.169 14.843c6.394 6.969 8.942 14.372 8.942 14.372s5.384-12.931 15.326-19.157c11.437-7.163 24.69-12.83 51.006-3.592 11.373 3.993 28.736 17.481 28.736 17.481s-6.825-2.275-15.805-1.676c6.705 6.466 18.678 20.833 21.312 30.652l-6.366-2.614s.961 18.796-13.03 44.71c-1.797-4.989-6.86-9.035-6.86-9.035s-1.344 14.525-24.031 30.398c-10.968 7.674-22.031 17.241-22.031 17.241s10.058-34.004-25.862-80.7z"/><g stroke-linecap="round"><path d="M122.845 31.609s-16.763 8.262-23.707 13.29c-3.233-18.199 11.45-31.134 22.51-35.082 22.505-8.033 39.153-2.275 51.126 6.705-14.488 0-28.856 5.867-28.856 5.867s9.474-4.189 7.423-8.142c-2.663-5.134-19.516-5.867-28.736-2.634-3.075 1.078-19.067 8.86-14.982 17.496 2.316 4.895 15.221 2.499 15.221 2.499zm-79.498-2.146s-16.255-4.064-24.891-4.233c4.318-7.45 19.704-23.047 45.38-16.933C80.15 12.182 92.622 27.77 92.114 45.549 80.6 37.167 62.482 33.188 62.482 33.188s16.933 3.556 19.473-2.371-5.08-16.933-18.118-20.997-40.3 7.112-20.489 19.642zm53.169 23.452s-33.189-1.052-60.457 28.762c4.684 14.323 17.51 24.881 27.438 33.042-1.524-9.906 2.02-23.505 2.02-23.505s-7.692 10.721-14.719 2.339.254-14.985 4.656-19.557 16.279-13.143 18.88-10.752c3.133 2.879-4.656 19.049-4.656 19.049s3.236-5.712 7.872-11.075c4.034-4.667 9.342-8.072 17.671-18.828m-1.829-.844C71.47 50.69 54.269 61.889 54.269 61.889s10.498-6.011 10.075-8.212c-1.101-3.387-10.583-2.371-25.653 2.032s-16.848 9.906-15.409 13.716 4.995 7.366 20.743-1.693C26.923 81.446 24.044 89.066 24.044 89.066c-4.014-6.495-7.787-16.497-8.748-27.742 38.921-17.507 81.305-8.367 81.305-8.367S63.692 36.331 21.978 30.629c0 0-9.211 8.253-14.527 30.328 8.466-5.164 24.044-9.313 24.044-9.313s-16.425 3.217-12.784-7.281 22.521-7.789 27.854-6.688 36.913 6.858 17.271 9.652c0 0 13.631.339 23.452 1.524m9.478 4.169s32.991 1.682 67.963 30.036c0 0 .022 8.18-9.915 18.716s-27.299 21.911-27.299 21.911.958-10.297-1.317-22.749c3.592 10.177 9.818 9.938 16.403 5.987s11.939-17.704 7.543-25.862c-6.742-12.511-28.616-21.791-32.567-18.439s2.754 12.332 5.029 25.024C109.555 60.285 98.3 53.101 98.3 53.101m-1.724.043s36.602-17.482 87.405-4.416c0 0 .526 18.083-8.095 34.606-10.241-10.613-24.306-17.241-24.306-17.241s20.235 11.375 24.785-2.395-40.975-20.586-47.654-12.572c-2.993 3.592 7.184 8.022 7.184 8.022s-19.277-9.219-34.842-8.142m-4.538 2.163s35.941-22.369 71.476-30.004c0 0 11.606 9.642 17.952 20.538-16.882-4.789-33.286-4.67-33.286-4.67s19.277.599 16.164-8.262-64.536 12.692-33.884 8.98c-13.769 1.796-30.532 8.74-30.532 8.74" fill="#676767"/><path d="M16.284 29.903l5.597.718M11.464 62.86l3.712-1.497m20.863 20.265s-3.143 3.083-4.37 4.909m133.023-3.503s2.074 1.355 3.746 2.963m15.489-37.253s1.571.445 4.407 1.567m-20.38-27.143s2.744-.708 5.508-.898M96.504 52.922L94.11 29.454" fill="#000"/></g></g></svg>