<svg xmlns="http://www.w3.org/2000/svg" width="264.48" height="166.464" viewBox="0 0 264.435 166.51" fill="#e41fa7" xmlns:v="https://vecta.io/nano"><path d="M260.252 99.712c1.408 3.837 1.705 8.965 1.697 9.791.705 14.608-10.876 22.906-26.27 26.197a68.96 68.96 0 0 1-15.434 1.404c.266-1.068 1.969-8.135 2.705-12.346s2.234-9.409 3.328-11.551c3.187-6.24 2.298-9.524-1.252-4.623-.942 1.301-2.243 3.847-2.893 5.656-2.596 7.234-8.528 12.349-12.051 9.924-3.195-2.2-2.586-7.65 1.34-16.533.837-1.893.767-4.531-1.219-1.717-2.081 2.949-6.683 4.818-9.887 5.01-2.535-5.414-5.37-3.718-7.041-1.691-1.291 1.566.499 4.769 4.254 3.793.824 4.391-1.154 9.976-6.479 11.703-9.099 2.952-13.599-8.237-6.227-15.484 2.216-2.178 2.691-3.023 1.695-3.023-3.566 0-9.219 7.39-8.553 13.063 1.577 13.43 18.112 9.605 21.467-.145.697-2.025 1.541-5.229 1.156-6.635 2.142-.214 4.696-1.034 6.842-2.674-.308.815-1.613 4.149-2.178 6.354-2.474 9.659 3.02 16.649 14.68 5.98-.412 2.779-.454 1.494-1.023 5.469l-1.441 9.314c-11.597.029-34.93 2.765-40.207 6.031-10.798 5.379-4.158 20.683 9.119 22.863 18.073 3.903 29.533-9.889 33.389-26.377 5.584-.389 7.084-.493 13.965-1.609 16.482-2.675 30.846-10.852 30.697-23.736-.053-4.606-.999-11.167-4.182-14.408zm-45.305 39.77l1.9.019c-2.407 8.681-9.076 21.737-17.643 24.285-19.374 5.762-33.345-11.925-20.041-18.924 8.92-3.592 25.797-5.366 35.783-5.381zm-36.793-72.7c-.939.034-2.439 1.557-3.764 4.168-3.551 7.001-10.5 7.912-29.305 3.846-18.044-3.902-25.378-3.005-33.623 4.111-1.591 1.373-2.891 3.089-2.891 3.814 0 .987.522.765 2.082-.889 5.919-6.275 15.324-7.645 29.07-4.232 10.341 2.567 24.646 3.821 31.6 1.016-.167 2.901-1.693 6.249-3.38 16.746-6.594 41.044-22.095 61.144-42.053 57.154-24.717-4.941-30.917-33.009-8.086-36.605 7.977-1.256 9.501-3.829 1.736-2.932-25.947 2.998-26.855 34.5-1.191 41.303 25.461 6.749 45.77-14.517 52.453-54.922 2.638-15.951 4.176-22.242 6.318-25.852 1.075-1.812 1.955-4.105 1.955-5.096 0-1.137-.361-1.651-.924-1.631zm-6.549-29.066c-1.037 0-3.987 3.003-5.936 5.148-2.151 2.368-4.514 6.395-6.404 9.193-2.258.769-5.047-.315-5.398.266-1.137 1.072.324 1.378-.189 2.639-1.698 4.171-6.875 4.902-7.361 1.826-.512-3.239 1.619-4.566 3.578-4.566.847 0 2.191-.366 2.129-.805-.098-.689-4.822-.303-6.627 1.811-4.542 5.318 1.97 11.368 8.803 4.699.921-.899 1.519-2.374 1.455-3.896.525-.296 2.015-.16 3.238-.365-.843 1.603-2.657 5.44-4.143 9.094-2.223 5.468-2.497 9.571-1.361 10.688 1.938 1.905 6.37-2.136 7.836-7.441.523-1.891.726-5.087.529-6.729.463.163 4.801-.239 7.582-1.346 8.082-3.217 10.827-6.502 2.074-2.488-1.696.777-5.462 3-12.068 2.158 1.183 2.958 1.052 5.722-.002 8.918-1.088 3.298-4.184 6.46-4.084 4.178.19-4.349 2.117-12.21 5.711-17.328 4.122-2.878 6.183-5.635 7.197-7.059 2.667-3.743 6.708-8.594 3.441-8.594zm-1.062 2.572c-2.454 5.105-8.787 10.848-8.787 10.848s4.467-8.001 8.787-10.848zM69.306 38.507c-2.472-.103-9.171 5.952-9.105 14.756-2.738 2.671-6.349 5.689-10.01 5.27-3.164-.363-1.806-5.513 2.818-12.676 4.506-6.979 4.414-8.666 1.836-6.41-3.716 4.052-6.975 11.494-8.74 14.197-2.017 2.035-4.633 5.409-4.461 5.791.147.326 3.106-2.185 4.186-3.246-.134 1.499.811 3.162 1.555 3.652 1.995 1.317 4.363 1.05 6.928.08 1.918-.725 4.327-3.021 5.861-4.375 1.179 9.257 9.047 7.744 20.637-6.07 2.652 1.187 7.099 1.195 10.719-.689-3.889 4.449-5.151 9.779-2.148 11.672 4.076 2.569 10.554-1.201 12.828-3.338 5.368-5.046 7.852-8.182 10.549-12.525.602 3.728 3.148 8.065.549 14.84-7.219 2.471-7.199-4.15-10.93-1.307-1.019 1.593 1 3.601 4.143 4.297 2.103.466 5.917.509 8.186-1.154 4.074-1.038 8.57-3.903 10.447-7.187 2.183-3.819 1.687-4.136-1.475-.473-2.342 2.713-6.659 4.615-7.623 4.887 2.79-6.089-1.54-14.124-.687-17.59 1.544-2.517 1.09-6.342-9.309 8.615-3.594 5.169-8.446 9.286-13.172 9.98-4.438.652-1.7-8.99 4.646-14.279 8.517-7.793 4.955-7.717 2.061-4.904-4.467 4.217-6.697 5.953-10.828 7.066-2.415.651-6.307-.285-6.307-.285 3.776-4.897 3.595-8.086 2.158-8.262-4.061-.496-8.173 6.875-5.377 9.729-2.48 2.784-8.461 9.915-12.402 10.176-4.135.274-4.328-2.947-4.377-5.123 9.239-10.567 8.12-13.744 7.615-14.682-.149-.276-.416-.417-.77-.432zm-.752 1.811c1.76 2.135-4.764 9.396-6.045 10.707.166-2.833.812-5.012 1.957-6.877s2.25-3.183 4.088-3.83zm14.885.666c.139 2.083-2.43 5.416-2.43 5.416-1.736-1.319.764-5.347 2.43-5.416zM63.377 23.227c-.968.059-2.195.996-2.195 1.971 0 .679.325 1.234.721 1.234 1.033 0 2.885-2.367 2.301-2.941-.21-.206-.504-.283-.826-.264zM11.373.034C6.548.368 3.895 2.467 1.672 4.762.92 5.539-.238 7.851.043 8.37c.723-.414 1.781-1.228 2.742-1.984C6.022 3.839 9.704 2.1 14.57 3.175c3.892.86 19.935 8.934 22.643 9.506 0 0-2.856 10.413-5.174 20.207-2.426 10.25-5.282 19.315-4.715 25.355.589 6.264 1.634 2.955 1.85-1.148.416-7.897 10.428-43.914 10.428-43.914.853-.062 1.859.483 7.869.135 9.177-.531 16.307-3.337 18.871-5.932 2.324-2.352 3.159-4.008 2.982-4.838-.631.265-1.92 1.64-3.77 2.875-9.396 6.273-23.956 6.607-32.939 1.734C20.465.565 14.652-.193 11.373.034z"/></svg>