<svg xmlns="http://www.w3.org/2000/svg" width="335.808" height="104.928" viewBox="0 0 335.837 104.936" xmlns:v="https://vecta.io/nano"><path d="M405.14 23.817c1.352 3.683 1.636 8.605 1.629 9.398.677 14.022-10.44 21.986-25.215 25.146-6.48 1.386-12.639 1.421-14.814 1.348.255-1.025 1.89-7.808 2.597-11.85s2.144-9.031 3.195-11.087c3.059-5.989 2.206-9.142-1.202-4.437-.904 1.248-2.153 3.692-2.776 5.429-2.492 6.944-8.186 11.854-11.567 9.525-3.066-2.111-2.482-7.343 1.286-15.87.803-1.817.737-4.349-1.17-1.648-1.997 2.831-6.415 4.624-9.49 4.809-2.433-5.196-5.155-3.569-6.758-1.624-1.239 1.503.479 4.577 4.083 3.641.79 4.215-1.107 9.575-6.218 11.233-8.734 2.834-13.053-7.906-5.977-14.863 2.127-2.091 2.583-2.902 1.627-2.902-3.423 0-8.849 7.093-8.209 12.538 1.514 12.891 17.385 9.219 20.605-.139.669-1.944 1.479-5.019 1.11-6.368 2.056-.205 4.507-.993 6.567-2.566-.296.782-1.548 3.982-2.09 6.098-2.375 9.271 2.899 15.98 14.09 5.74-.396 2.667-.436 1.434-.982 5.249l-1.384 8.941c-11.132.028-33.528 2.654-38.593 5.789-10.365 5.163-3.991 19.853 8.753 21.946 17.348 3.747 28.347-9.492 32.048-25.318 5.36-.374 6.8-.473 13.404-1.545 15.82-2.568 29.608-10.416 29.465-22.784-.051-4.421-.959-10.719-4.014-13.83zM361.654 61.99l1.824.019c-2.311 8.333-8.711 20.865-16.934 23.31-18.597 5.531-32.006-11.446-19.237-18.164 8.562-3.448 24.761-5.151 34.347-5.165zm-22.066-95.615c-.901.033-2.341 1.494-3.613 4.001-3.409 6.72-10.078 7.594-28.128 3.691-17.32-3.745-24.36-2.884-32.273 3.946-1.527 1.318-2.775 2.965-2.775 3.661 0 .948.501.734 1.998-.853 5.681-6.023 14.709-7.338 27.903-4.063 9.926 2.464 23.657 3.668 30.332.975-.16 2.785-1.625 5.998-3.244 16.074-6.329 39.397-21.208 58.69-40.365 54.86-23.725-4.743-29.676-31.684-7.761-35.136 7.657-1.206 9.119-3.675 1.667-2.814-24.905 2.878-25.777 33.115-1.144 39.645 24.439 6.478 43.933-13.934 50.348-52.717 2.532-15.311 4.008-21.349 6.065-24.814 1.032-1.739 1.877-3.94 1.877-4.891 0-1.091-.346-1.585-.887-1.565zM235.069 19.918c-1.41 0-5.419 4.082-8.068 6.998-2.924 3.219-6.136 8.692-8.705 12.496-3.07 1.045-6.859-.429-7.338.361-1.546 1.457.44 1.872-.257 3.586-2.307 5.67-9.344 6.663-10.005 2.482-.697-4.402 2.2-6.207 4.863-6.207 1.151 0 2.979-.497 2.894-1.094-.133-.937-6.554-.411-9.007 2.461-6.173 7.228 2.677 15.451 11.965 6.387 1.252-1.221 2.064-3.226 1.978-5.296.714-.402 2.739-.218 4.401-.496-1.146 2.179-3.612 7.394-5.631 12.36-3.021 7.432-3.394 13.008-1.85 14.526 2.634 2.59 8.658-2.904 10.651-10.114.711-2.571.986-6.914.719-9.145.629.222 6.525-.324 10.305-1.829 10.985-4.373 14.716-8.837 2.819-3.382-2.305 1.057-7.423 4.077-16.403 2.933 1.608 4.021 1.43 7.777-.002 12.121-1.479 4.482-5.687 8.781-5.551 5.678.259-5.912 2.878-16.596 7.762-23.552 5.602-3.912 8.404-7.659 9.782-9.594 3.625-5.088 9.118-11.681 4.678-11.681zm-1.444 3.496c-3.336 6.939-11.943 14.744-11.943 14.744s6.072-10.874 11.943-14.744zm-135.976-4.22c-3.36-.139-12.465 8.09-12.376 20.056-3.722 3.631-8.63 7.733-13.605 7.162-4.3-.493-2.454-7.493 3.831-17.229 6.124-9.486 6-11.779 2.495-8.713-5.05 5.507-9.481 15.622-11.88 19.297-2.742 2.767-6.298 7.352-6.063 7.871.2.444 4.222-2.97 5.689-4.412-.183 2.038 1.103 4.297 2.113 4.964 2.712 1.791 5.93 1.427 9.416.109 2.607-.986 5.882-4.106 7.967-5.946 1.602 12.582 12.297 10.525 28.049-8.251 3.604 1.614 9.649 1.624 14.569-.937-5.286 6.047-7.002 13.292-2.92 15.864 5.54 3.491 14.346-1.632 17.436-4.537 7.296-6.859 10.672-11.121 14.338-17.024.818 5.067 4.279 10.962.746 20.17-9.812 3.358-9.785-5.641-14.856-1.776-1.386 2.165 1.36 4.895 5.631 5.84 2.858.633 8.042.692 11.126-1.569 5.537-1.411 11.649-5.305 14.2-9.769 2.967-5.191 2.293-5.621-2.004-.642-3.183 3.687-9.051 6.273-10.361 6.642 3.793-8.277-2.093-19.198-.934-23.908 2.098-3.421 1.482-8.62-12.652 11.71-4.884 7.025-11.48 12.622-17.903 13.565-6.033.886-2.311-12.219 6.315-19.408 11.577-10.592 6.735-10.489 2.801-6.666-6.071 5.731-9.102 8.092-14.718 9.605-3.282.884-8.572-.388-8.572-.388 5.132-6.655 4.887-10.991 2.933-11.229-5.52-.674-11.109 9.344-7.308 13.223-3.37 3.784-11.5 13.476-16.857 13.831-5.62.372-5.883-4.005-5.949-6.963 12.557-14.362 11.036-18.681 10.351-19.955-.202-.375-.566-.567-1.046-.587zm-1.022 2.461c2.392 2.902-6.475 12.771-8.216 14.553.226-3.851 1.104-6.813 2.66-9.347s3.058-4.326 5.556-5.206zm20.231.905c.189 2.831-3.302 7.361-3.302 7.361-2.359-1.793 1.038-7.267 3.302-7.361zM89.59-1.574c-1.316.08-2.984 1.354-2.984 2.679 0 .923.442 1.678.98 1.678 1.405 0 3.921-3.218 3.127-3.998-.285-.28-.684-.385-1.123-.358zM18.906-33.098c-6.558.454-10.164 3.307-13.186 6.427-1.022 1.055-2.596 4.198-2.214 4.903.983-.563 2.421-1.67 3.727-2.697 4.4-3.461 9.404-5.825 16.018-4.364 5.289 1.168 27.096 12.143 30.776 12.92 0 0-3.881 14.153-7.032 27.465-3.298 13.932-7.18 26.253-6.408 34.463.8 8.514 2.22 4.016 2.514-1.561.565-10.734 14.173-59.688 14.173-59.688 1.159-.085 2.527.656 10.696.183 12.474-.722 22.164-4.536 25.65-8.062 3.159-3.197 4.294-5.448 4.054-6.576-.858.36-2.61 2.23-5.124 3.908-12.77 8.527-32.561 8.98-44.771 2.357-16.514-8.957-24.416-9.988-28.872-9.679z" transform="matrix(.827782 0 0 .86325 -2.854174 29.027418)" fill="#e41fa7"/></svg>